<svg xmlns="http://www.w3.org/2000/svg" fill="none" viewBox="0 0 129 90"><path fill="#FF9090" d="M59.2 20.67c-3.35.14-15.72 1.06-15.72 1.06L60 25.1l15.7-3.6s-12.64-1-16.49-.83z"/><path fill="#6CB2C3" d="M50.97 5.07S44.84 3.73 40.9 4.05c-1.23.1-1.97.22-3.13.44-5.06.92-11.3 4.68-12.87 6.72-2.92 3.78-3.12 6.82-4.3 11.45-.4 1.56-.72 4.89-1.15 7.11-.48 1.45-.99 2.06-1.3 2.31l-.33.18s.13-.02.33-.18c.83-.46 3.04-1.74 3.83-2.83 1.31-1.8 1.46-3.72 2.73-5.55 3.58-5.15 9.3-4.12 12.51-9.5 1.86-3.1 1.33-6.56 4.56-8.5 2.2-1.3 8.82.9 8.82.9l.37-1.53z"/><g filter="url(#filter0_i)"><path fill="#E0C1B3" d="M26.4 22.12c2.47-2.3 4.74-2.02 7.77-4.25 4.7-3.46 3.72-6.45 5.1-9.03 1.5-2.81 2.76-3.26 2.76-3.26s-1.72.36-3.59 2.75c-1.54 1.97-2.23 3.51-4.96 6-2.34 2.12-5.31 2.44-6.75 2.89-3.22 1-4.87 1.95-6.09 6.52a54.42 54.42 0 00-1.13 5.7c-.3 1.9-1.88 2.95-1.88 2.95s3.27-1.66 4.31-2.97c2.07-2.62 2-5.03 4.46-7.3z"/></g><g filter="url(#filter1_i)"><path fill="#6CB2C3" d="M40.52-2.33c2.07 1.67 6.7 3.6 6.7 3.6l-1.08.84-4.92-2.54s-5.1.4-8.25 1.3c-5.42 1.54-9.03 4.95-13.34 4.86a13.78 13.78 0 01-5.8-1.16 51.7 51.7 0 01-5.24-3.01s3.55-.02 5.7-1.9c1.61-1.43 1.77-3.08 3.65-4.12 1.8-.99 3.16-.49 5.15-.96 1.72-.4 2.6-1.16 4.36-1.22 1.73-.06 2.62.84 4.35.87 1.66.03 2.42-.77 4.03-.4 2.3.54 2.85 2.36 4.69 3.84z"/></g><g filter="url(#filter2_i)"><path fill="#E0C1B3" d="M34.72-1.61c-1.28.43-8.65 5.38-8.65 5.38S32.1 1.3 35.47.42c2.4-.63 7.8.2 7.8.2s-4.01-2.24-5.41-2.43a6.1 6.1 0 00-3.14.2z"/></g><g filter="url(#filter3_i)"><path fill="#6CB2C3" d="M62.16 18.14c-1.08 2.83-4.5 7.37-4.5 7.37l1.54.2 3.35-5.31s3.35-3.4 7.02-3.93c7.47-1.07 13.48.15 17.64-2.4a15.63 15.63 0 005.02-4.47c1.18-1.55 4.38-6.58 4.38-6.58S91.3 5.5 88.96 5.05c-2.4-.46-3.5-1.99-5.93-1.93-2.32.06-3.38 1.33-5.6 2.01-1.9.6-3.2.35-4.96 1.3-1.73.93-2.08 2.32-3.76 3.35-1.6.98-2.8.62-4.17 1.92-1.94 1.85-1.43 3.94-2.38 6.44z"/></g><g filter="url(#filter4_i)"><path fill="#E0C1B3" d="M69.14 14.7c4.37-.9 10.65 1.13 10.65 1.13s-7.12.15-10.91 1.22c-2.71.75-6.38 3.4-6.38 3.4s1.82-2.84 3.08-3.82a9 9 0 013.56-1.93z"/></g><g filter="url(#filter5_i)"><path fill="#6CB2C3" d="M40.92-7.67C35.95-12.62 27.4-18.98 27.4-18.98l-5.64.04S33.47-11.92 39.1-5.82C46.87 2.63 50.64 6.92 54.6 16.9c1.01 2.51 2.21 6.57 2.21 6.57l2.54-.01s-1.46-4.52-2.6-7.34c-1.25-3.15-3.6-7.9-3.6-7.9S69.42 3.93 78.95-.9c12.7-6.45 25.67-18.32 25.67-18.32l-3.36.02S88.97-9.1 77.61-2.99c-9.44 5.07-25.93 8.94-25.93 8.94S45.73-2.9 40.92-7.67z"/></g><g filter="url(#filter6_i)"><path fill="#FF9090" d="M39.43 22.08c5.5-2.23 13.67 1.04 19.79 1 6.56-.05 13.78-5.37 23.27-.17 9.48 5.19 8.16 23.59 4.8 32.55-3.36 8.96-5.87 12.09-8.82 15.92-2.06 2.66-4.6 4.6-8.21 4.62-3.61.03-5.88-1.5-10.54-1.5-4.98 0-7.85 1.64-11.25 1.66-3.4.03-5.43-2.07-7.66-4.5-2.24-2.45-7.12-10.55-8.13-18.22 0 0 4.29 2.77 9.02 1.21 4.73-1.55 4.33-5.92 4.44-5.99.36-.25 1.61.1 3-2.52 1.48-3.81-1.03-5.14-.93-5.35 1.45-1.18 1.42-3.15 1.17-4.33-.27-1.3-1-2.67-3.36-3.57 0-.2.65-3.9-3.84-5.75-3.34-1.17-8.53 1-9.17 1.58.79-2.56 3.42-5.43 6.42-6.64z"/></g><g filter="url(#filter7_i)"><path fill="#E0C1B3" d="M39.42 31.1c-1.04-2.8-6.4-2.44-6.4-2.44s6.18-3.42 10.26-1.06c3.55 2.06 2.74 5.3 2.74 5.3s2.94.65 3.47 3.87c.45 2.75-1.1 4.08-1.1 4.08a5 5 0 001.16 4.66c-.76 2.77-2.87 3.15-3.4 3.15 0 0-.63 4.35-2.55 5.35-1.56.8-7.46 3.1-7.46 3.1l-3.4-3.66s4.64.73 6.23-1.95c2.01-3.4-.05-5.65-.05-5.65s2.18-.58 2.61-2.55c.5-2.27-1.18-3.32-1.18-3.32s1.52-1.12 1.14-2.79c-.6-2.57-2.04-2.56-2.04-2.56s.6-1.87-.03-3.53z"/></g><path fill="#FF9090" d="M51.5 29.5c1-.4 1.11 1.55 7.23 1.5 6.56-.05 4.73-1.05 10.27 1.5 7.31 3.36 2.98.33 2.5 3.96-1.48 11.25 1.32 3.34-.96 12.2-1.48 5.79 7.2 2.73 3.96 8.84-1.55 2.93-.48 4.91-2 5-1.13.07-1.39.77-1.42 1.2-.03.36.08.53 0 0-.06-.33-.2-.97-.54-2.05-1.23-3.99-7.52-6.83-11.81-6.78-4.98.05-6.32 4.04-7.74 8.27-1.48 4.39-1.42 7.42-3.6 7.13-2.21-.3.15-1.03-1.12-3.5C44 62.37 38.7 69.9 36 62.87c-.85-2.2-2.9-6.57-3.3-9.42 4.2 2.25 7.17 1.79 9.26 1.07 3.2-1.1 4.08-5.79 4.19-5.86.36-.25 1.61.1 3-2.52 1.48-3.81-1.03-5.14-.93-5.35 1.45-1.18 1.42-3.15 1.17-4.33-.27-1.3-1-2.67-3.36-3.57 0-.2.6-3.9-3.89-5.75-2.73-.56 6.51.78 5.87 1.36 1 1 2.5 1.4 3.5 1z"/><defs><filter id="filter0_i" width="26.4" height="39.02" x="17.63" y="1.47" color-interpolation-filters="sRGB" filterUnits="userSpaceOnUse"><feFlood flood-opacity="0" result="BackgroundImageFix"/><feBlend in="SourceGraphic" in2="BackgroundImageFix" result="shape"/><feColorMatrix in="SourceAlpha" result="hardAlpha" values="0 0 0 0 0 0 0 0 0 0 0 0 0 0 0 0 0 0 127 0"/><feOffset dx="2" dy="4"/><feGaussianBlur stdDeviation="2.5"/><feComposite in2="hardAlpha" k2="-1" k3="1" operator="arithmetic"/><feColorMatrix values="0 0 0 0 0 0 0 0 0 0 0 0 0 0 0 0 0 0 0.25 0"/><feBlend in2="shape" result="effect1_innerShadow"/></filter><filter id="filter1_i" width="41" height="37.91" x="8.32" y="-15.69" color-interpolation-filters="sRGB" filterUnits="userSpaceOnUse"><feFlood flood-opacity="0" result="BackgroundImageFix"/><feBlend in="SourceGraphic" in2="BackgroundImageFix" result="shape"/><feColorMatrix in="SourceAlpha" result="hardAlpha" values="0 0 0 0 0 0 0 0 0 0 0 0 0 0 0 0 0 0 127 0"/><feOffset dx="2" dy="4"/><feGaussianBlur stdDeviation="2.5"/><feComposite in2="hardAlpha" k2="-1" k3="1" operator="arithmetic"/><feColorMatrix values="0 0 0 0 0 0 0 0 0 0 0 0 0 0 0 0 0 0 0.25 0"/><feBlend in2="shape" result="effect1_innerShadow"/></filter><filter id="filter2_i" width="17.4" height="17.65" x="25.86" y="-4.81" color-interpolation-filters="sRGB" filterUnits="userSpaceOnUse"><feFlood flood-opacity="0" result="BackgroundImageFix"/><feBlend in="SourceGraphic" in2="BackgroundImageFix" result="shape"/><feColorMatrix in="SourceAlpha" result="hardAlpha" values="0 0 0 0 0 0 0 0 0 0 0 0 0 0 0 0 0 0 127 0"/><feOffset dy="4"/><feGaussianBlur stdDeviation="2"/><feComposite in2="hardAlpha" k2="-1" k3="1" operator="arithmetic"/><feColorMatrix values="0 0 0 0 0 0 0 0 0 0 0 0 0 0 0 0 0 0 0.25 0"/><feBlend in2="shape" result="effect1_innerShadow"/></filter><filter id="filter3_i" width="41.28" height="26.7" x="57.49" y="3.02" color-interpolation-filters="sRGB" filterUnits="userSpaceOnUse"><feFlood flood-opacity="0" result="BackgroundImageFix"/><feBlend in="SourceGraphic" in2="BackgroundImageFix" result="shape"/><feColorMatrix in="SourceAlpha" result="hardAlpha" values="0 0 0 0 0 0 0 0 0 0 0 0 0 0 0 0 0 0 127 0"/><feOffset dx="2" dy="4"/><feGaussianBlur stdDeviation="5"/><feComposite in2="hardAlpha" k2="-1" k3="1" operator="arithmetic"/><feColorMatrix values="0 0 0 0 0 0 0 0 0 0 0 0 0 0 0 0 0 0 0.25 0"/><feBlend in2="shape" result="effect1_innerShadow"/></filter><filter id="filter4_i" width="17.36" height="10.04" x="62.46" y="14.41" color-interpolation-filters="sRGB" filterUnits="userSpaceOnUse"><feFlood flood-opacity="0" result="BackgroundImageFix"/><feBlend in="SourceGraphic" in2="BackgroundImageFix" result="shape"/><feColorMatrix in="SourceAlpha" result="hardAlpha" values="0 0 0 0 0 0 0 0 0 0 0 0 0 0 0 0 0 0 127 0"/><feOffset dy="4"/><feGaussianBlur stdDeviation="2"/><feComposite in2="hardAlpha" k2="-1" k3="1" operator="arithmetic"/><feColorMatrix values="0 0 0 0 0 0 0 0 0 0 0 0 0 0 0 0 0 0 0.25 0"/><feBlend in2="shape" result="effect1_innerShadow"/></filter><filter id="filter5_i" width="85.18" height="47.28" x="21.76" y="-19.55" color-interpolation-filters="sRGB" filterUnits="userSpaceOnUse"><feFlood flood-opacity="0" result="BackgroundImageFix"/><feBlend in="SourceGraphic" in2="BackgroundImageFix" result="shape"/><feColorMatrix in="SourceAlpha" result="hardAlpha" values="0 0 0 0 0 0 0 0 0 0 0 0 0 0 0 0 0 0 127 0"/><feOffset dx="2" dy="4"/><feGaussianBlur stdDeviation="2.5"/><feComposite in2="hardAlpha" k2="-1" k3="1" operator="arithmetic"/><feColorMatrix values="0 0 0 0 0 0 0 0 0 0 0 0 0 0 0 0 0 0 0.25 0"/><feBlend in2="shape" result="effect1_innerShadow"/></filter><filter id="filter6_i" width="59.61" height="57.76" x="30.45" y="20.51" color-interpolation-filters="sRGB" filterUnits="userSpaceOnUse"><feFlood flood-opacity="0" result="BackgroundImageFix"/><feBlend in="SourceGraphic" in2="BackgroundImageFix" result="shape"/><feColorMatrix in="SourceAlpha" result="hardAlpha" values="0 0 0 0 0 0 0 0 0 0 0 0 0 0 0 0 0 0 127 0"/><feOffset dx="-2" dy="2"/><feGaussianBlur stdDeviation="2.5"/><feComposite in2="hardAlpha" k2="-1" k3="1" operator="arithmetic"/><feColorMatrix values="0 0 0 0 0 0 0 0 0 0 0 0 0 0 0 0 0 0 0.25 0"/><feBlend in2="shape" result="effect1_innerShadow"/></filter><filter id="filter7_i" width="19.27" height="34.43" x="30.55" y="26.7" color-interpolation-filters="sRGB" filterUnits="userSpaceOnUse"><feFlood flood-opacity="0" result="BackgroundImageFix"/><feBlend in="SourceGraphic" in2="BackgroundImageFix" result="shape"/><feColorMatrix in="SourceAlpha" result="hardAlpha" values="0 0 0 0 0 0 0 0 0 0 0 0 0 0 0 0 0 0 127 0"/><feOffset dx="-2" dy="4"/><feGaussianBlur stdDeviation="2.5"/><feComposite in2="hardAlpha" k2="-1" k3="1" operator="arithmetic"/><feColorMatrix values="0 0 0 0 0 0 0 0 0 0 0 0 0 0 0 0 0 0 0.25 0"/><feBlend in2="shape" result="effect1_innerShadow"/></filter></defs></svg>
