<svg xmlns="http://www.w3.org/2000/svg" width="304" height="300" fill="none">
    <path fill="#3B417F" d="M84.202 22.826C81.884 16.254 77 6.5 77 6.5L57.578 16.864s4.71 8.46 7.133 14.156C78.547 63.548 52.913 87.828 80.8 119.662c21.747 24.826 55.002-2.808 80.155 18.56 27.857 23.666.513 66.353 29.713 88.341 28.528 21.483 67.241-11.742 93.038 4.387 18.322 11.456 8.185 37.009 26.407 48.625 10.455 6.665 30.461 8.952 30.461 8.952l.63-28.762s-6.698.336-14.112-2.36c-20.029-7.282-12.164-31.347-29.149-44.219-25.214-19.108-57.843 11.537-84.825-4.983-33.747-20.663-2.273-71.989-34.186-95.385-25.895-18.984-58.4 5.757-79.11-13.07-22.726-20.658-5.401-47.96-15.619-76.922z"/>
</svg>
