<svg xmlns="http://www.w3.org/2000/svg" width="375" height="204" fill="none"><g filter="url(#filter0_i)"><path fill="#3C3D75" d="M-95 211.5s127.36-.92 154.95-20.65C82.7 174.6 88.82 154.47 106.02 143c31.71-21.16 68.02 4.46 92.74-11.97 31.7-21.07 18.54-42.47 46.66-62.82 28.12-20.34 67-1.2 101.11-9.57 71.05-17.45 89.42-32.55 93.83-37.65l1.3-1.84s-.27.65-1.3 1.84l-54.51 77.14s-22.5 22.17-26.09 40.63c-3.4 17.5 7.02 28.59 0 44.98-6.97 16.3-30.99 27.78-30.99 27.78H-95z"/></g><g filter="url(#filter1_i)"><path fill="#fff" d="M55.16 221.98c-3.4.05-5.38 0-5.38 0h5.38c14.88-.21 57.01-2.27 79.48-18.33 16.82-12.03 20.4-23.49 37.6-34.97 24.69-16.46 46.67 3.6 71.39-12.83 17.84-11.85 15.42-23.03 28.71-46.66 13.3-23.64 34.6-14.39 56.84-19.45 41.3-9.4 88.1-34.45 122.67-55.7A2957.9 2957.9 0 00502.68 0s-20.8 15.59-50.83 34.04c-35.35 23.19-83.06 53.49-122.67 75.15-18.98 10.38-34.52 17.32-43.55 40.03-6.58 16.56 7.02 28.6 0 44.98-6.98 16.31-30.99 27.78-30.99 27.78H55.16z"/></g><defs><filter id="filter0_i" width="546.66" height="196.36" x="-95" y="19.14" color-interpolation-filters="sRGB" filterUnits="userSpaceOnUse"><feFlood flood-opacity="0" result="BackgroundImageFix"/><feBlend in="SourceGraphic" in2="BackgroundImageFix" result="shape"/><feColorMatrix in="SourceAlpha" result="hardAlpha" values="0 0 0 0 0 0 0 0 0 0 0 0 0 0 0 0 0 0 127 0"/><feOffset dx="10" dy="4"/><feGaussianBlur stdDeviation="5"/><feComposite in2="hardAlpha" k2="-1" k3="1" operator="arithmetic"/><feColorMatrix values="0 0 0 0 0 0 0 0 0 0 0 0 0 0 0 0 0 0 0.4 0"/><feBlend in2="shape" result="effect1_innerShadow"/></filter><filter id="filter1_i" width="462.9" height="227" x="49.78" y="0" color-interpolation-filters="sRGB" filterUnits="userSpaceOnUse"><feFlood flood-opacity="0" result="BackgroundImageFix"/><feBlend in="SourceGraphic" in2="BackgroundImageFix" result="shape"/><feColorMatrix in="SourceAlpha" result="hardAlpha" values="0 0 0 0 0 0 0 0 0 0 0 0 0 0 0 0 0 0 127 0"/><feOffset dx="10" dy="5"/><feGaussianBlur stdDeviation="5"/><feComposite in2="hardAlpha" k2="-1" k3="1" operator="arithmetic"/><feColorMatrix values="0 0 0 0 0 0 0 0 0 0 0 0 0 0 0 0 0 0 0.4 0"/><feBlend in2="shape" result="effect1_innerShadow"/></filter></defs></svg>
