<svg xmlns="http://www.w3.org/2000/svg" width="1031" height="280" fill="none"><g filter="url(#filter0_i)"><path fill="#3C3D75" d="M13.73 289.6c-8.68.13-13.73 0-13.73 0h13.73c38.01-.53 145.62-5.8 203-46.81 42.95-30.72 52.12-59.99 96.04-89.3 63.05-42.06 119.34-7.77 182.46-49.71C540.8 73.49 590.32 0 590.32 0H1031s-57.46 56.63-66.61 103.78c-8.68 44.69 17.91 73.02 0 114.87-17.83 41.66-79.16 70.96-79.16 70.96H13.73z"/></g><g filter="url(#filter1_i)"><path fill="#fff" d="M262.3 289.6c-8.67.13-13.72 0-13.72 0h13.73c38.01-.53 145.62-5.8 203-46.81 42.95-30.72 52.12-59.99 96.05-89.3 63.04-42.06 119.33-7.77 182.45-49.71C789.38 73.49 838.9 0 838.9 0h78.67s-57.46 56.63-66.6 103.78c-8.69 44.69 17.9 73.02 0 114.87-17.84 41.66-79.17 70.96-79.17 70.96H262.3z"/></g><defs><filter id="filter0_i" width="1041" height="293.66" x="0" y="0" color-interpolation-filters="sRGB" filterUnits="userSpaceOnUse"><feFlood flood-opacity="0" result="BackgroundImageFix"/><feBlend in="SourceGraphic" in2="BackgroundImageFix" result="shape"/><feColorMatrix in="SourceAlpha" result="hardAlpha" values="0 0 0 0 0 0 0 0 0 0 0 0 0 0 0 0 0 0 127 0"/><feOffset dx="10" dy="4"/><feGaussianBlur stdDeviation="5"/><feComposite in2="hardAlpha" k2="-1" k3="1" operator="arithmetic"/><feColorMatrix values="0 0 0 0 0 0 0 0 0 0 0 0 0 0 0 0 0 0 0.4 0"/><feBlend in2="shape" result="effect1_innerShadow"/></filter><filter id="filter1_i" width="678.99" height="294.66" x="248.58" y="0" color-interpolation-filters="sRGB" filterUnits="userSpaceOnUse"><feFlood flood-opacity="0" result="BackgroundImageFix"/><feBlend in="SourceGraphic" in2="BackgroundImageFix" result="shape"/><feColorMatrix in="SourceAlpha" result="hardAlpha" values="0 0 0 0 0 0 0 0 0 0 0 0 0 0 0 0 0 0 127 0"/><feOffset dx="10" dy="5"/><feGaussianBlur stdDeviation="5"/><feComposite in2="hardAlpha" k2="-1" k3="1" operator="arithmetic"/><feColorMatrix values="0 0 0 0 0 0 0 0 0 0 0 0 0 0 0 0 0 0 0.4 0"/><feBlend in2="shape" result="effect1_innerShadow"/></filter></defs></svg>
