<svg width="250" height="250" fill="none" xmlns="http://www.w3.org/2000/svg">
    <path d="M220.371 206.92c-.556-33.976-35.294-44.015-60.66-51.344-2.959-.855-5.805-1.678-8.472-2.499v-14.016a49.977 49.977 0 0013.395-12.313h15.451c7.561 0 13.713-6.152 13.713-13.713v-16.6a17.616 17.616 0 001.426-6.958v-5.162c0-2.467-.51-4.817-1.426-6.952v-8.564C193.798 30.863 162.935 0 125 0 87.072 0 56.216 30.863 56.216 68.8v8.318c0 .065.008.128.01.193a17.585 17.585 0 00-1.45 7.004v5.163c0 9.76 7.934 17.699 17.686 17.699h4.035c2.795 13.403 11.023 24.833 22.265 31.881v14.019c-2.668.821-5.513 1.643-8.473 2.499-25.365 7.329-60.104 17.368-60.66 51.344V245.117A4.883 4.883 0 0034.512 250h63.477a4.883 4.883 0 000-9.766H39.394V207.04c.206-11.854 5.651-20.74 17.136-27.964 7.579-4.767 16.844-8.164 25.977-11.005l11.797 22.985c1.315 2.562 4.682 3.433 7.074 1.819l5.261-3.549 4.516 16.975-7.738 33.933H92.835a4.883 4.883 0 000 9.766h122.653a4.883 4.883 0 004.883-4.883v-38.118-.079zM157 164.957l.973.282-8.441 16.462-15.796-10.652 13.384-9.028c3.11.979 6.416 1.935 9.88 2.936zm-31.996 11.982l9.791 6.603-4.732 17.786h-10.125l-4.731-17.781 9.797-6.608zm-.001-11.779l-16.476-11.11v-10.279A49.302 49.302 0 00125 146.595c5.773 0 11.316-.997 16.472-2.821v10.276l-16.469 11.11zm39.777-95.467l-.2-.128c-10.019-6.378-18.673-11.886-32.231-8.007a5.092 5.092 0 00-.374.123 1023.25 1023.25 0 00-8.016 3.06c-15.441 5.943-23.872 9.19-38.74 8.772v-3.91c0-21.936 17.846-39.782 39.781-39.782 21.934 0 39.78 17.846 39.78 39.781v.09zm19.252 43.342a3.951 3.951 0 01-3.947 3.947h-9.731a49.157 49.157 0 003.15-9.805h4.035a17.58 17.58 0 006.494-1.242l-.001 7.1zm1.426-23.558c0 4.375-3.552 7.934-7.92 7.934h-2.997l.005-21.016h2.993c4.367 0 7.919 3.553 7.919 7.92v5.162zM72.462 97.411c-4.367 0-7.92-3.559-7.92-7.933v-5.163c0-4.367 3.553-7.92 7.92-7.92h2.992l.005 21.017h-2.997zm3.084-30.782H72.46c-2.282 0-4.463.44-6.467 1.23C66.498 35.74 92.772 9.767 125 9.767c32.238 0 58.519 25.977 59.02 58.099a17.582 17.582 0 00-6.482-1.236h-3.084C172.911 40.688 151.321 20.055 125 20.055S77.089 40.688 75.546 66.63zm9.968 35.17l-.002-.015a39.991 39.991 0 01-.292-4.735V83.278c16.706.407 26.671-3.427 42.247-9.423 2.453-.945 4.989-1.92 7.751-2.96 9.224-2.574 14.531.806 24.118 6.909 1.663 1.059 3.488 2.22 5.444 3.411V97.05a39.527 39.527 0 01-5.376 19.933H125a4.883 4.883 0 000 9.766h26.428c-7.032 6.265-16.291 10.082-26.428 10.082-20.327 0-37.13-15.329-39.486-35.031zm14.966 79.902l-8.45-16.463.97-.281c3.464-1.001 6.77-1.958 9.881-2.936l13.39 9.029-15.791 10.651zm12.954 58.533l6.645-29.14h9.844l6.655 29.14h-23.144zm97.171 0h-64.01l-7.75-33.934 4.518-16.98 5.273 3.555c2.394 1.614 5.761.743 7.075-1.82l11.784-22.983c9.133 2.841 18.397 6.237 25.976 11.004 11.484 7.224 16.93 16.11 17.135 27.964l-.001 33.194z" fill="#fff"/>
    <path d="M83.49 215.818H58.883a4.883 4.883 0 000 9.766H83.49a4.883 4.883 0 000-9.766zM70.911 240.234a4.883 4.883 0 000 9.766h.014a4.877 4.877 0 004.876-4.883 4.888 4.888 0 00-4.89-4.883z" fill="#fff"/>
    <path d="M209.53 23.08h.5v0h2.05v-2.05h0v-.5h0v-.5h0V11.1c0-.856.694-1.55 1.55-1.55h5.74c.856 0 1.55.694 1.55 1.55v11.98h2.05v0h1v0h8.93c.856 0 1.55.694 1.55 1.55v5.74a1.55 1.55 0 01-1.55 1.55h-9.43 0-2.55V43.9a1.55 1.55 0 01-1.55 1.55h-5.74a1.55 1.55 0 01-1.55-1.55v-8.93h0v-.5h0v-.5h0v-2.05h-2.55 0-9.43a1.55 1.55 0 01-1.55-1.55v-5.74c0-.856.694-1.55 1.55-1.55h8.93v0h.5zm14.44-3.05V11.1a4.6 4.6 0 00-4.6-4.6h-5.74a4.6 4.6 0 00-4.6 4.6v8.93h-8.93a4.6 4.6 0 00-4.6 4.6v5.74a4.6 4.6 0 004.6 4.6h8.93v8.93a4.6 4.6 0 004.6 4.6h5.74a4.6 4.6 0 004.6-4.6v-8.93 0h8.93a4.6 4.6 0 004.6-4.6v-5.74a4.6 4.6 0 00-4.6-4.6h-8.93z" fill="#fff" stroke="#fff"/>
</svg>
