<svg width="15" height="28" viewBox="0 0 15 28" fill="none" xmlns="http://www.w3.org/2000/svg">
<path d="M11.2502 0.538574H3.75007C2.70826 0.538574 1.82291 0.89657 1.09359 1.61236C0.364622 2.32828 0 3.19755 0 4.22049V11.5841C0 12.6069 0.364417 13.4761 1.09359 14.1918C1.82284 14.9076 2.70847 15.2657 3.75007 15.2657H8.12506C8.64572 15.2657 9.08854 15.4448 9.45316 15.8026C9.81778 16.1603 10 16.5952 10 17.1068V17.7201C10 19.0753 9.51165 20.2319 8.53517 21.1909C7.55863 22.1494 6.38034 22.6289 4.99991 22.6289H3.75007C3.4113 22.6289 3.11844 22.7506 2.87094 22.9934C2.62364 23.2361 2.49989 23.5238 2.49989 23.8563V26.3111C2.49989 26.643 2.62364 26.9313 2.87094 27.1741C3.11865 27.4167 3.41124 27.5386 3.75007 27.5386H4.99998C6.35428 27.5386 7.6466 27.2793 8.87715 26.7617C10.1076 26.2441 11.172 25.5439 12.0705 24.6618C12.9688 23.7796 13.6817 22.7347 14.209 21.5265C14.7363 20.3184 15 19.0496 15 17.7202V4.22022C15 3.19728 14.6354 2.32808 13.9063 1.61229C13.1773 0.896503 12.2917 0.538574 11.2502 0.538574Z" fill="#FF9090"/>
</svg>
