<svg width="253" height="246" fill="none" xmlns="http://www.w3.org/2000/svg"><path d="M220.371 222.92c-.556-33.976-35.294-44.015-60.66-51.344-2.959-.855-5.805-1.678-8.472-2.499v-14.016a49.977 49.977 0 0013.395-12.313h15.451c7.561 0 13.713-6.152 13.713-13.713v-16.6a17.617 17.617 0 001.426-6.958v-5.162c0-2.467-.51-4.817-1.426-6.952v-8.564C193.798 46.863 162.935 16 125 16c-37.928 0-68.784 30.863-68.784 68.8v8.318c0 .065.008.128.01.193a17.584 17.584 0 00-1.45 7.004v5.163c0 9.759 7.934 17.699 17.686 17.699h4.035c2.795 13.403 11.023 24.833 22.265 31.881v14.019c-2.668.821-5.513 1.643-8.473 2.499-25.365 7.329-60.104 17.368-60.66 51.344V261.117A4.883 4.883 0 0034.512 266h63.477a4.883 4.883 0 000-9.766H39.394V223.04c.206-11.854 5.651-20.74 17.136-27.964 7.579-4.767 16.844-8.164 25.977-11.005l11.797 22.985c1.315 2.562 4.682 3.433 7.074 1.819l5.261-3.549 4.516 16.975-7.738 33.933H92.835a4.883 4.883 0 000 9.766h122.653a4.883 4.883 0 004.883-4.883v-38.118-.079zM157 180.957l.973.282-8.441 16.462-15.796-10.652 13.384-9.028c3.11.979 6.416 1.935 9.88 2.936zm-31.996 11.982l9.791 6.603-4.732 17.786h-10.125l-4.731-17.781 9.797-6.608zm-.001-11.779l-16.476-11.11v-10.279A49.302 49.302 0 00125 162.595c5.773 0 11.316-.997 16.472-2.821v10.276l-16.469 11.11zm39.777-95.467l-.2-.128c-10.019-6.378-18.673-11.886-32.231-8.007a5.092 5.092 0 00-.374.123 1023.25 1023.25 0 00-8.016 3.06c-15.441 5.943-23.872 9.19-38.74 8.772v-3.91c0-21.936 17.846-39.782 39.781-39.782 21.934 0 39.78 17.846 39.78 39.781v.09zm19.252 43.342a3.951 3.951 0 01-3.947 3.947h-9.731a49.157 49.157 0 003.15-9.805h4.035a17.58 17.58 0 006.494-1.242l-.001 7.1zm1.426-23.558c0 4.375-3.552 7.934-7.92 7.934h-2.997l.005-21.016h2.993c4.367 0 7.919 3.553 7.919 7.92v5.162zm-112.996 7.935c-4.367 0-7.92-3.56-7.92-7.934v-5.163c0-4.367 3.553-7.92 7.92-7.92h2.992l.005 21.017h-2.997zm3.084-30.783H72.46c-2.282 0-4.463.44-6.467 1.23C66.498 51.74 92.772 25.767 125 25.767c32.238 0 58.519 25.977 59.02 58.099a17.582 17.582 0 00-6.482-1.236h-3.084C172.911 56.688 151.321 36.055 125 36.055S77.089 56.688 75.546 82.63zm9.968 35.17l-.002-.015a39.987 39.987 0 01-.292-4.735V99.278c16.706.407 26.671-3.427 42.247-9.423 2.453-.945 4.989-1.92 7.751-2.96 9.224-2.574 14.531.806 24.118 6.909 1.663 1.059 3.488 2.22 5.444 3.411v15.834a39.527 39.527 0 01-5.376 19.933H125a4.883 4.883 0 000 9.766h26.428c-7.032 6.265-16.291 10.082-26.428 10.082-20.327 0-37.13-15.329-39.486-35.031zm14.966 79.902l-8.45-16.463.97-.281c3.464-1.001 6.77-1.958 9.881-2.936l13.39 9.029-15.791 10.651zm12.954 58.533l6.645-29.14h9.844l6.655 29.14h-23.144zm97.171 0h-64.01l-7.75-33.934 4.518-16.98 5.273 3.555c2.394 1.614 5.761.743 7.075-1.82l11.784-22.983c9.133 2.841 18.397 6.237 25.976 11.004 11.484 7.224 16.93 16.11 17.135 27.964l-.001 33.194z" fill="#fff"/><path d="M83.49 231.818H58.883a4.883 4.883 0 000 9.766H83.49a4.883 4.883 0 000-9.766z" fill="#fff"/><path d="M209.53 39.08h.5v0h2.05v-2.05h0v-.5h0v-.5h0V27.1c0-.856.694-1.55 1.55-1.55h5.74c.856 0 1.55.694 1.55 1.55v11.98h2.05v0h1v0h8.93c.856 0 1.55.694 1.55 1.55v5.74a1.55 1.55 0 01-1.55 1.55h-9.43 0-2.55V59.9a1.55 1.55 0 01-1.55 1.55h-5.74a1.55 1.55 0 01-1.55-1.55v-8.93h0v-.5h0v-.5h0v-2.05h-2.55 0-9.43a1.55 1.55 0 01-1.55-1.55v-5.74c0-.856.694-1.55 1.55-1.55h8.93v0h.5zm14.44-3.05V27.1a4.6 4.6 0 00-4.6-4.6h-5.74a4.6 4.6 0 00-4.6 4.6v8.93h-8.93a4.6 4.6 0 00-4.6 4.6v5.74a4.6 4.6 0 004.6 4.6h8.93v8.93a4.6 4.6 0 004.6 4.6h5.74a4.6 4.6 0 004.6-4.6v-8.93 0h8.93a4.6 4.6 0 004.6-4.6v-5.74a4.6 4.6 0 00-4.6-4.6h-8.93z" fill="#fff" stroke="#fff"/><mask id="a" maskUnits="userSpaceOnUse" x="229" y="0" width="24" height="24" fill="#000"><path fill="#fff" d="M229 0h24v24h-24z"/><path d="M237.26 9.36v-1.1h-5.06a2.2 2.2 0 00-2.2 2.2v3.08a2.2 2.2 0 002.2 2.2h5.06v-1.1h-5.06a1.1 1.1 0 01-1.1-1.1v-3.08a1.1 1.1 0 011.1-1.1h5.06zM244.74 14.64h5.06a1.1 1.1 0 001.1-1.1v-3.08a1.1 1.1 0 00-1.1-1.1h-5.06v-1.1h5.06a2.2 2.2 0 012.2 2.2v3.08a2.2 2.2 0 01-2.2 2.2h-5.06v-1.1zM238.36 15.74h-1.1v5.06a2.2 2.2 0 002.2 2.2h3.08a2.2 2.2 0 002.2-2.2v-5.06h-1.1v5.06a1.1 1.1 0 01-1.1 1.1h-3.08a1.1 1.1 0 01-1.1-1.1v-5.06zM243.64 8.26V3.2a1.1 1.1 0 00-1.1-1.1h-3.08a1.1 1.1 0 00-1.1 1.1v5.06h-1.1V3.2a2.2 2.2 0 012.2-2.2h3.08a2.2 2.2 0 012.2 2.2v5.06h-1.1zM237.26 8.26h1.1v1.1h-1.1v-1.1zM243.64 8.26h1.1v1.1h-1.1v-1.1zM243.64 14.64h1.1v1.1h-1.1v-1.1zM237.26 14.64h1.1v1.1h-1.1v-1.1z"/></mask><path d="M237.26 9.36v-1.1h-5.06a2.2 2.2 0 00-2.2 2.2v3.08a2.2 2.2 0 002.2 2.2h5.06v-1.1h-5.06a1.1 1.1 0 01-1.1-1.1v-3.08a1.1 1.1 0 011.1-1.1h5.06zM244.74 14.64h5.06a1.1 1.1 0 001.1-1.1v-3.08a1.1 1.1 0 00-1.1-1.1h-5.06v-1.1h5.06a2.2 2.2 0 012.2 2.2v3.08a2.2 2.2 0 01-2.2 2.2h-5.06v-1.1zM238.36 15.74h-1.1v5.06a2.2 2.2 0 002.2 2.2h3.08a2.2 2.2 0 002.2-2.2v-5.06h-1.1v5.06a1.1 1.1 0 01-1.1 1.1h-3.08a1.1 1.1 0 01-1.1-1.1v-5.06zM243.64 8.26V3.2a1.1 1.1 0 00-1.1-1.1h-3.08a1.1 1.1 0 00-1.1 1.1v5.06h-1.1V3.2a2.2 2.2 0 012.2-2.2h3.08a2.2 2.2 0 012.2 2.2v5.06h-1.1zM237.26 8.26h1.1v1.1h-1.1v-1.1zM243.64 8.26h1.1v1.1h-1.1v-1.1zM243.64 14.64h1.1v1.1h-1.1v-1.1zM237.26 14.64h1.1v1.1h-1.1v-1.1z" fill="#fff"/><path d="M237.26 8.26v-.402h-.402v.402h.402zm0 7.48h-.402v.403h.402v-.403zm7.48-7.48h.402v-.402h-.402v.402zm0 7.48v.403h.402v-.403h-.402zm-7.882-7.48v1.1h.804v-1.1h-.804zm0 6.38v1.1h.804v-1.1h-.804zm8.284-5.28v-1.1h-.804v1.1h.804zm0 6.38v-1.1h-.804v1.1h.804zm-7.882.403h1.1v-.805h-1.1v.805zm6.38 0h1.1v-.805h-1.1v.804zm-5.28-8.285h-1.1v.805h1.1v-.805zm6.38 0h-1.1v.804h1.1v-.804zm-7.48.402v.805h.805V8.26h-.805zm0 1.1v.805-.805zm0 6.38h.805v-.805h-.805v.805zm0-1.1v.805-.805zm7.48 0v.805-.805zm0-5.28v.805-.805zm0-1.1h-.805v.805h.805V8.26zm0 7.48v-.805h-.805v.805h.805zm-6.38 0h.805-.805zm-1.1 5.06h.805-.805zm7.48 0h.805-.805zm-1.1-5.06h.805-.805zm0-7.48h.805-.805zm-5.28 0h.805-.805zm-1.1-5.06h.805-.805zm7.48 0h.805-.805zm-6.38 6.16v.805h.805V9.36h-.805zm5.28 0h-.805v.805h.805V9.36zm0 5.28v-.805h-.805v.805h.805zm-5.28 0h.805v-.805h-.805v.805zm-7.555-4.18c0-.77.624-1.395 1.395-1.395v-1.61a3.005 3.005 0 00-3.005 3.005h1.61zm0 3.08v-3.08h-1.61v3.08h1.61zm1.395 1.395a1.395 1.395 0 01-1.395-1.395h-1.61a3.005 3.005 0 003.005 3.005v-1.61zm-1.905-1.395c0 1.052.853 1.905 1.905 1.905v-1.61a.295.295 0 01-.295-.295h-1.61zm0-3.08v3.08h1.61v-3.08h-1.61zm1.905-1.905a1.905 1.905 0 00-1.905 1.905h1.61c0-.163.132-.295.295-.295v-1.61zm17.6 6.89a1.905 1.905 0 001.905-1.905h-1.61a.295.295 0 01-.295.295v1.61zm1.905-1.905v-3.08h-1.61v3.08h1.61zm0-3.08a1.905 1.905 0 00-1.905-1.905v1.61c.163 0 .295.132.295.295h1.61zM249.8 9.065c.771 0 1.395.625 1.395 1.395h1.61a3.005 3.005 0 00-3.005-3.005v1.61zm1.395 1.395v3.08h1.61v-3.08h-1.61zm0 3.08c0 .77-.624 1.395-1.395 1.395v1.61a3.005 3.005 0 003.005-3.005h-1.61zm-11.735 8.655c-.77 0-1.395-.625-1.395-1.395h-1.61a3.005 3.005 0 003.005 3.005v-1.61zm3.08 0h-3.08v1.61h3.08v-1.61zm1.395-1.395c0 .77-.624 1.395-1.395 1.395v1.61a3.005 3.005 0 003.005-3.005h-1.61zm-1.395 1.905a1.905 1.905 0 001.905-1.905h-1.61a.295.295 0 01-.295.295v1.61zm-3.08 0h3.08v-1.61h-3.08v1.61zm-1.905-1.905c0 1.052.853 1.905 1.905 1.905v-1.61a.295.295 0 01-.295-.295h-1.61zm6.89-17.6a1.905 1.905 0 00-1.905-1.905v1.61c.163 0 .295.132.295.295h1.61zm-1.905-1.905h-3.08v1.61h3.08v-1.61zm-3.08 0a1.905 1.905 0 00-1.905 1.905h1.61c0-.163.132-.295.295-.295v-1.61zM238.065 3.2c0-.77.625-1.395 1.395-1.395V.195a3.005 3.005 0 00-3.005 3.005h1.61zm1.395-1.395h3.08V.195h-3.08v1.61zm3.08 0c.771 0 1.395.625 1.395 1.395h1.61A3.005 3.005 0 00242.54.195v1.61zm-4.985 6.455v1.1h1.61v-1.1h-1.61zm.805.295h-1.1v1.61h1.1v-1.61zm6.38 0h-1.1v1.61h1.1v-1.61zm-.295.805v-1.1h-1.61v1.1h1.61zm-.805 6.085h1.1v-1.61h-1.1v1.61zm.805.295v-1.1h-1.61v1.1h1.61zm-7.185-.295h1.1v-1.61h-1.1v1.61zm.295-.805v1.1h1.61v-1.1h-1.61zM232.2 9.065h5.06v-1.61h-5.06v1.61zm5.06 5.87h-5.06v1.61h5.06v-1.61zm0-1.1h-5.06v1.61h5.06v-1.61zm0-5.28h-5.06v1.61h5.06v-1.61zm12.54 5.28h-5.06v1.61h5.06v-1.61zm0-5.28h-5.06v1.61h5.06v-1.61zm-5.06.51h5.06v-1.61h-5.06v1.61zm5.06 5.87h-5.06v1.61h5.06v-1.61zM238.065 20.8v-5.06h-1.61v5.06h1.61zm5.87-5.06v5.06h1.61v-5.06h-1.61zm-1.1 0v5.06h1.61v-5.06h-1.61zm-5.28 0v5.06h1.61v-5.06h-1.61zm5.28-12.54v5.06h1.61V3.2h-1.61zm-5.28 0v5.06h1.61V3.2h-1.61zm.51 5.06V3.2h-1.61v5.06h1.61zm5.87-5.06v5.06h1.61V3.2h-1.61z" fill="#fff" mask="url(#a)"/></svg>
