<svg xmlns="http://www.w3.org/2000/svg" fill-rule="evenodd" stroke-linejoin="round" stroke-miterlimit="2" clip-rule="evenodd" viewBox="0 0 34 13"><path fill="#333570" d="M8.149 12.229c-.203.063-.369-.149-.272-.338l.704-1.368c.081-.14.003-.278-.15-.278-.154 0-.261.072-.344.215l-.994 1.889a.246.246 0 01-.193.132c-.068.006-.136.012-.203.016a.24.24 0 01-.224-.353l1.818-3.525c.074-.144-.007-.277-.16-.277s-.322.13-.398.277l-1.917 3.718a.245.245 0 01-.245.133 4.325 4.325 0 01-.199-.026.241.241 0 01-.178-.348l2.754-5.652c.071-.146-.007-.278-.16-.278-.154 0-.326.129-.398.278l-2.745 5.635a.247.247 0 01-.295.128c-.062-.02-.124-.042-.186-.064a.242.242 0 01-.135-.333l4.449-9.581c.069-.148-.006-.278-.16-.278-.153 0-.328.128-.398.278l-4.354 9.375a.243.243 0 01-.338.114 5.832 5.832 0 01-.134-.077.245.245 0 01-.094-.317l3.038-6.376c.07-.147-.007-.278-.16-.278s-.326.129-.398.278l-2.861 6.006a.243.243 0 01-.374.086 4.646 4.646 0 01-.078-.067.244.244 0 01-.056-.296l1.254-2.465c.073-.145-.007-.278-.16-.278s-.323.13-.398.278l-.987 1.941a.241.241 0 01-.402.05 8.87 8.87 0 01-.149-.19.246.246 0 01-.023-.257l1.426-2.904c.072-.146-.006-.278-.16-.278-.153 0-.325.129-.398.278L1.067 8.984c-.088.18-.339.188-.427.008a6.285 6.285 0 117.509 3.237zm13.872-7.098c0-.249-.052-.423-.156-.52a.523.523 0 00-.371-.147.505.505 0 00-.375.155.509.509 0 00-.152.37v1.655c.202-.101.368-.202.496-.303.128-.1.234-.204.317-.311a1.13 1.13 0 00.192-.409 2.19 2.19 0 00.049-.49zm.671 2.581a1.27 1.27 0 01-.353.881 1.195 1.195 0 01-.872.365c-.173 0-.334-.033-.482-.098a1.238 1.238 0 01-.742-1.148V4.989a1.254 1.254 0 011.251-1.246c.173 0 .335.031.487.093a1.192 1.192 0 01.666.69c.066.166.098.356.098.569 0 .315-.029.58-.089.797-.06.216-.152.411-.277.583a2.22 2.22 0 01-.559.512 8.85 8.85 0 01-.853.484v.241c0 .148.046.273.138.373a.469.469 0 00.362.152.474.474 0 00.358-.152.522.522 0 00.143-.373.11.11 0 01.076-.106l.344-.114a.232.232 0 01.304.22zm-3.996-3.248a.505.505 0 00-.375.155.513.513 0 00-.152.37v2.723c0 .148.051.273.152.373a.51.51 0 00.375.152.515.515 0 00.371-.152.495.495 0 00.157-.373.11.11 0 01.076-.106l.344-.114a.232.232 0 01.304.22 1.26 1.26 0 01-.765 1.148 1.221 1.221 0 01-.487.098c-.172 0-.335-.033-.487-.098a1.263 1.263 0 01-.666-.663 1.218 1.218 0 01-.098-.485V4.989c0-.196.033-.371.098-.525a1.141 1.141 0 01.666-.637 1.4 1.4 0 01.974.005c.152.059.285.142.398.249.113.107.203.237.268.392.066.154.099.326.099.516a.213.213 0 01-.214.213h-.297a.213.213 0 01-.213-.213.502.502 0 00-.157-.37.51.51 0 00-.371-.155zM16.355 8.59c0 .139.112.252.251.252h.221a.252.252 0 00.252-.252V2.695a.251.251 0 00-.252-.251h-.221a.25.25 0 00-.251.251V8.59zm16.112-2.151V5.015a.5.5 0 00-.157-.374.514.514 0 00-.371-.151.509.509 0 00-.375.151.504.504 0 00-.152.374v1.424c0 .148.05.272.152.373a.51.51 0 00.375.152.515.515 0 00.371-.152.5.5 0 00.157-.373zm.724-1.958v1.958c0 .338-.091.611-.273.818-.182.208-.478.329-.889.365-.191.018-.315.061-.371.129a.334.334 0 00-.085.218.35.35 0 00.053.165.232.232 0 00.179.111h1.185c.182 0 .304.188.229.354l-.102.228a.252.252 0 01-.232.149l-1.276-.01c-.358-.003-.537.098-.537.293 0 .196.179.294.537.294h.738c.191 0 .312.204.221.372l-.119.218a.251.251 0 01-.221.131h-.619c-.364 0-.663-.092-.899-.276a.882.882 0 01-.353-.73c0-.237.076-.442.228-.614.152-.172.353-.29.603-.356a.333.333 0 01-.183-.142.41.41 0 01-.058-.214.37.37 0 01.098-.24.537.537 0 01.304-.16c-.441-.231-.661-.599-.661-1.103V5.015c0-.172.028-.334.085-.485.056-.152.135-.284.237-.396.101-.113.226-.202.375-.267.149-.066.316-.098.501-.098.19 0 .351.019.482.058.131.038.227.075.286.111h.428c.2 0 .32.222.209.39l-.1.153zm-3.172-.65c.101 0 .187.014.259.04l.032.013c.092.04.114.15.078.243l-.121.309c-.037.094-.148.116-.248.116a.506.506 0 00-.376.156.512.512 0 00-.152.369v3.539a.251.251 0 01-.251.252h-.221a.252.252 0 01-.252-.252V4.127c0-.139.113-.251.252-.251h.078a.25.25 0 01.223.136l.091.175a.722.722 0 01.214-.24.636.636 0 01.394-.116zm-2.306 1.326c0-.249-.052-.423-.157-.521a.526.526 0 00-.371-.146.505.505 0 00-.375.155.513.513 0 00-.152.37V6.67c.203-.101.368-.202.496-.303.128-.101.234-.204.317-.311.095-.131.16-.267.193-.409a2.25 2.25 0 00.049-.49zm.67 2.581a1.251 1.251 0 01-.353.881 1.195 1.195 0 01-.872.365c-.172 0-.333-.033-.482-.098a1.235 1.235 0 01-.648-.663 1.251 1.251 0 01-.094-.485V5.015a1.254 1.254 0 011.251-1.246c.173 0 .335.031.487.093a1.192 1.192 0 01.666.69c.066.166.099.356.099.57 0 .314-.03.579-.09.796a1.784 1.784 0 01-.277.583c-.143.19-.329.36-.559.511a8.514 8.514 0 01-.853.485v.241c0 .148.046.273.138.373a.47.47 0 00.362.152.47.47 0 00.358-.152.522.522 0 00.143-.373c0-.048.031-.091.076-.106l.344-.114a.232.232 0 01.304.22zM24.325 4.49a.566.566 0 00-.393.155.483.483 0 00-.17.37v2.643c0 .148.056.273.17.373a.579.579 0 00.782 0 .474.474 0 00.174-.373V5.015a.48.48 0 00-.174-.37.573.573 0 00-.389-.155zm1.287 3.168a1.272 1.272 0 01-.335.881 1.132 1.132 0 01-.845.364c-.19 0-.351-.029-.482-.089a.671.671 0 01-.269-.186l-.086.128a.25.25 0 01-.209.112h-.097a.251.251 0 01-.251-.252V2.624a.25.25 0 01.172-.238l.221-.074a.252.252 0 01.331.239v1.467c.03-.065.107-.123.232-.173.125-.051.268-.076.429-.076a1.15 1.15 0 01.854.365c.104.112.186.244.246.396.059.151.089.313.089.485v2.643zm3.692 2.189c0 .077-.037.108-.154.108l-.079-.002v-.22a2.29 2.29 0 01.087-.003c.093 0 .146.032.146.102v.015zm.217.565a.024.024 0 00-.004-.013l-.168-.323c.082-.033.144-.108.144-.229v-.015c0-.203-.146-.269-.335-.269-.08 0-.175.007-.226.015-.035.006-.05.016-.05.055v.77c0 .012.01.023.022.023h.145c.012 0 .022-.011.022-.023v-.292l.038.002.041.001.012-.001.149.29.002.002c.005.011.009.021.021.021h.17c.012 0 .017-.006.017-.014zm-.779-.015v-.107c0-.012-.01-.023-.022-.023h-.226c-.053 0-.071-.018-.071-.078v-.121h.288c.012 0 .022-.01.022-.023v-.109a.022.022 0 00-.022-.023h-.288v-.104c0-.06.018-.078.071-.078h.226c.012 0 .022-.011.022-.023v-.107c0-.015-.007-.021-.022-.023l-.006-.001a1.238 1.238 0 00-.209-.014c-.144 0-.272.037-.272.246v.38c0 .209.127.247.271.247.115 0 .172-.008.21-.014l.006-.001c.015-.002.022-.009.022-.024zm-.585-.684v-.118c0-.012-.012-.021-.024-.021h-.552a.021.021 0 00-.022.021v.118c0 .013.01.022.022.022h.182v.668c0 .012.01.023.022.023h.146c.012 0 .022-.011.022-.023v-.668h.18c.012 0 .024-.009.024-.022zm-.675.669v-.787a.021.021 0 00-.022-.021h-.131c-.013 0-.023.009-.023.021v.485c0 .009-.003.011-.005.011-.003 0-.005-.002-.008-.008l-.001-.001-.264-.473c-.013-.024-.024-.035-.047-.035h-.112a.042.042 0 00-.042.043v.786c0 .012.01.023.022.023h.131a.023.023 0 00.023-.023v-.465c0-.007.002-.009.005-.009s.006.002.01.009l.254.452c.018.031.034.036.058.036h.109c.023 0 .043-.02.043-.044zm-.795.015v-.107a.023.023 0 00-.023-.023h-.226c-.052 0-.071-.018-.071-.078v-.121h.288c.012 0 .023-.01.023-.023v-.109a.023.023 0 00-.023-.023h-.288v-.104c0-.06.019-.078.071-.078h.226a.023.023 0 00.023-.023v-.107c0-.015-.007-.021-.023-.023l-.006-.001a1.218 1.218 0 00-.209-.014c-.143 0-.271.037-.271.246v.38c0 .209.127.247.27.247.116 0 .172-.008.211-.014l.005-.001c.016-.002.023-.009.023-.024zm-.629-.007v-.111c0-.014-.007-.023-.021-.023h-.004l-.014.001a1.603 1.603 0 01-.151.008c-.076 0-.137-.041-.137-.194v-.144c0-.153.061-.194.137-.194.055 0 .109.004.15.008l.015.001h.004c.014 0 .021-.009.021-.023v-.111c0-.016-.009-.021-.025-.025a.608.608 0 00-.166-.02c-.168 0-.329.091-.329.364v.144c0 .273.161.365.329.365a.62.62 0 00.166-.019c.016-.005.025-.011.025-.027zm-1.157-.33h-.166l.068-.317c.002-.011.005-.017.015-.017.01 0 .012.006.015.017l.068.317zm.267.345v-.003l-.166-.711c-.026-.111-.107-.128-.184-.128s-.159.017-.185.128l-.165.711-.001.003v.002c0 .012.007.019.018.019h.156c.011 0 .02-.009.023-.021l.04-.188h.228l.04.188c.002.012.011.021.022.021h.156c.011 0 .019-.007.019-.019l-.001-.002zm-.8.005v-.796c0-.024-.017-.04-.041-.04h-.104a.051.051 0 00-.049.03l-.17.327c-.005.01-.008.015-.013.015-.004 0-.007-.005-.012-.015l-.17-.327a.052.052 0 00-.049-.03h-.105c-.023 0-.04.014-.04.039v.797c0 .012.01.016.019.016h.147c.01 0 .018-.011.018-.023v-.479c0-.008.003-.009.005-.009.004 0 .006.003.009.008l.101.19a.035.035 0 00.033.019h.089a.036.036 0 00.033-.019l.1-.19c.004-.005.006-.008.009-.008.003 0 .006.001.006.009v.479c0 .012.008.023.018.023h.147c.009 0 .019-.004.019-.016zm-.905-.304v-.511c0-.012-.011-.021-.023-.021h-.145a.021.021 0 00-.022.021v.511c0 .117-.032.166-.132.166s-.13-.049-.13-.166v-.511a.021.021 0 00-.022-.021h-.146a.021.021 0 00-.022.021v.511c0 .261.143.33.32.33.177 0 .322-.069.322-.33zm-.984-.046h-.166l.068-.317c.002-.011.006-.017.016-.017s.012.006.014.017l.068.317zm.268.347v-.002l-.001-.003-.166-.711c-.025-.111-.106-.128-.183-.128s-.159.017-.185.128l-.166.711v.003l-.001.002c0 .012.008.019.019.019h.156c.011 0 .02-.009.022-.021l.04-.188h.228l.04.188c.003.012.012.021.023.021h.155c.012 0 .019-.007.019-.019zm-.98-.56c0 .077-.037.108-.154.108l-.079-.002v-.22l.087-.003c.094 0 .146.032.146.102v.015zm.217.565a.035.035 0 00-.003-.013l-.168-.323c.081-.033.143-.108.143-.229v-.015c0-.203-.146-.269-.335-.269-.08 0-.174.007-.226.015-.034.006-.05.016-.05.055v.77c0 .012.01.023.023.023h.144c.012 0 .022-.011.022-.023v-.292l.038.002.041.001.013-.001.149.29.001.002c.005.011.01.021.021.021h.17c.013 0 .017-.006.017-.014zm-.744-.699v-.118c0-.012-.012-.021-.024-.021h-.552a.021.021 0 00-.022.021v.118c0 .013.01.022.022.022h.182v.668c0 .012.01.023.022.023h.146c.012 0 .022-.011.022-.023v-.668h.18c.012 0 .024-.009.024-.022zm-.94.684v-.107c0-.012-.01-.023-.022-.023h-.191c-.053 0-.071-.018-.071-.078v-.592a.023.023 0 00-.023-.023h-.145a.023.023 0 00-.023.023v.592c0 .209.128.247.272.247.059 0 .144-.007.181-.015.016-.003.022-.009.022-.024zm-.82-.337h-.165l.067-.317c.003-.011.006-.017.016-.017s.012.006.015.017l.067.317zm.269.347l-.001-.002-.001-.003-.165-.711c-.026-.111-.107-.128-.184-.128s-.159.017-.185.128l-.165.711-.001.003-.001.002c0 .012.008.019.019.019h.156c.011 0 .02-.009.022-.021l.04-.188h.229l.04.188c.002.012.011.021.022.021h.156c.011 0 .019-.007.019-.019zm-.674-.694v-.118c0-.012-.011-.021-.023-.021H18.5a.021.021 0 00-.022.021v.118c0 .013.01.022.022.022h.181v.668c0 .012.01.023.023.023h.145a.023.023 0 00.023-.023v-.668h.18a.022.022 0 00.023-.022zm-.674.669v-.787a.021.021 0 00-.022-.021h-.132a.021.021 0 00-.022.021v.485c0 .009-.003.011-.005.011-.003 0-.005-.002-.008-.008l-.001-.001-.264-.473c-.013-.024-.024-.035-.047-.035h-.112a.042.042 0 00-.042.043v.786c0 .012.01.023.022.023h.131c.012 0 .022-.011.022-.023v-.465c0-.007.003-.009.006-.009s.006.002.01.009l.254.452c.017.031.034.036.058.036h.109c.023 0 .043-.02.043-.044zm-.796.015v-.107c0-.012-.01-.023-.022-.023h-.226c-.052 0-.071-.018-.071-.078v-.121h.288c.012 0 .023-.01.023-.023v-.109a.023.023 0 00-.023-.023h-.288v-.104c0-.06.019-.078.071-.078h.226c.012 0 .022-.011.022-.023v-.107c0-.015-.006-.021-.022-.023l-.006-.001a1.218 1.218 0 00-.209-.014c-.143 0-.271.037-.271.246v.38c0 .209.127.247.27.247.115 0 .172-.008.211-.014l.005-.001c.016-.002.022-.009.022-.024zm-.83-.323c0 .154-.064.196-.164.196a.824.824 0 01-.079-.003v-.535l.079-.002c.1 0 .164.041.164.196v.148zm.191 0v-.148c0-.242-.134-.363-.355-.363-.093 0-.192.009-.237.017-.022.004-.033.014-.033.041v.758c0 .026.011.036.033.04.045.008.144.017.237.017.221 0 .355-.12.355-.362z"/></svg>
