<svg width="134" height="50" viewBox="0 0 134 50" fill="none" xmlns="http://www.w3.org/2000/svg">
<path fill-rule="evenodd" clip-rule="evenodd" d="M32.4136 48.8825C31.6059 49.1329 30.9457 48.2883 31.3325 47.5362L34.1313 42.0944C34.4541 41.5375 34.1439 40.9898 33.5338 40.9898C32.9236 40.9898 32.497 41.2772 32.1681 41.8434L28.2122 49.3602C28.0588 49.6516 27.7718 49.8503 27.444 49.8822C27.1739 49.9086 26.9052 49.9304 26.6365 49.9478C25.8893 49.9961 25.4057 49.2072 25.7489 48.5417L32.978 34.5233C33.2738 33.9491 32.9522 33.4187 32.342 33.4187C31.7319 33.4187 31.0613 33.9379 30.7594 34.5233L23.1331 49.3113C22.9473 49.6716 22.5621 49.8859 22.1593 49.8404C21.8946 49.8104 21.6311 49.7764 21.3689 49.7382C20.7202 49.6438 20.3721 48.9419 20.6592 48.3527L31.6134 25.8695C31.8959 25.2886 31.5876 24.765 30.977 24.765C30.3669 24.765 29.6826 25.2785 29.3944 25.8695L18.4743 48.2833C18.2618 48.7196 17.766 48.9424 17.3042 48.7931C17.0552 48.7126 16.8079 48.6283 16.5624 48.5403C16.0247 48.3476 15.7837 47.7316 16.0243 47.2136L33.7231 9.10418C33.9956 8.51678 33.6973 8 33.0872 8C32.477 8 31.7822 8.50595 31.5046 9.10418L14.1859 46.3951C13.9479 46.9076 13.3317 47.1229 12.8382 46.8476C12.6593 46.7478 12.4818 46.6459 12.3056 46.5418C11.8713 46.2853 11.7162 45.7377 11.9332 45.2824L24.0166 19.9209C24.2963 19.3343 23.9909 18.8159 23.3807 18.8159C22.7705 18.8159 22.0822 19.3255 21.7981 19.9209L10.4173 43.8076C10.1445 44.3801 9.41367 44.558 8.92808 44.15C8.82454 44.063 8.72171 43.9752 8.61961 43.8866C8.28141 43.593 8.19556 43.1059 8.39853 42.7067L13.384 32.9011C13.6766 32.3249 13.3582 31.7957 12.7481 31.7957C12.1379 31.7957 11.4637 32.3149 11.1655 32.9011L7.23844 40.6245C6.92226 41.2464 6.08333 41.3604 5.64157 40.8205C5.43883 40.5727 5.24076 40.321 5.04749 40.0654C4.82489 39.7711 4.79321 39.3762 4.95588 39.0449L10.6291 27.4921C10.914 26.9111 10.6033 26.3879 9.99312 26.3879C9.38296 26.3879 8.70107 26.9011 8.4105 27.4921L4.24576 35.9731C3.89464 36.6881 2.89747 36.7202 2.54635 36.0052C0.915695 32.6845 0 28.9492 0 25C0 11.1929 11.1929 0 25 0C38.8071 0 50 11.1929 50 25C50 36.2259 42.601 45.7236 32.4136 48.8825ZM87.5935 20.648C87.5935 19.657 87.3862 18.9668 86.9712 18.5774C86.5566 18.1882 86.0649 17.9935 85.4959 17.9935C84.9034 17.9935 84.4054 18.1996 84.0025 18.6127C83.5996 19.0258 83.398 19.5153 83.398 20.0818V26.6655C84.2041 26.2643 84.8619 25.8632 85.3713 25.4618C85.8811 25.061 86.3017 24.6479 86.6333 24.2231C87.0127 23.7039 87.2676 23.1611 87.3979 22.5949C87.5282 22.0287 87.5935 21.3798 87.5935 20.648ZM90.2598 30.9128C90.2598 31.5973 90.1355 32.2405 89.8866 32.8423C89.6378 33.4439 89.2942 33.9687 88.8558 34.4172C88.4171 34.8656 87.9016 35.2194 87.3091 35.4789C86.7167 35.7386 86.0764 35.8683 85.3891 35.8683C84.7018 35.8683 84.0618 35.7386 83.4693 35.4789C82.8766 35.2194 82.3614 34.8656 81.9227 34.4172C81.484 33.9687 81.1407 33.4439 80.8915 32.8423C80.643 32.2405 80.5184 31.5973 80.5184 30.9128V20.0818C80.5184 19.3973 80.6487 18.7544 80.9096 18.1526C81.1702 17.5507 81.5258 17.0259 81.976 16.5777C82.4264 16.1293 82.9539 15.7752 83.5581 15.5154C84.1626 15.256 84.8086 15.1263 85.4959 15.1263C86.1832 15.1263 86.8289 15.25 87.4334 15.4981C88.0379 15.7458 88.5654 16.0996 89.0155 16.5597C89.4657 17.0199 89.8216 17.5804 90.0822 18.2412C90.3431 18.9018 90.4734 19.657 90.4734 20.5063C90.4734 21.757 90.3546 22.8133 90.1177 23.6745C89.8809 24.5358 89.5132 25.3087 89.0155 25.9929C88.4465 26.7479 87.706 27.4264 86.7934 28.0282C85.8811 28.6301 84.7491 29.2729 83.398 29.9572V30.9128C83.398 31.5029 83.5819 31.9984 83.9493 32.3996C84.3167 32.8007 84.7966 33.0014 85.3891 33.0014C85.9581 33.0014 86.4323 32.8007 86.8114 32.3996C87.1903 31.9984 87.3801 31.5029 87.3801 30.9128C87.3801 30.7227 87.5019 30.5539 87.6824 30.494L89.0505 30.04C89.6458 29.8425 90.2598 30.2856 90.2598 30.9128ZM74.3677 17.9935C73.7752 17.9935 73.2773 18.1996 72.8743 18.6127C72.4717 19.0258 72.2701 19.5153 72.2701 20.0818V30.9128C72.2701 31.5029 72.4717 31.9984 72.8743 32.3996C73.2773 32.8007 73.7752 33.0014 74.3677 33.0014C74.9367 33.0014 75.4284 32.8007 75.8433 32.3996C76.258 31.9984 76.4656 31.5029 76.4656 30.9128C76.4656 30.7227 76.5874 30.5539 76.7678 30.494L78.136 30.04C78.7312 29.8425 79.3452 30.2856 79.3452 30.9128C79.3452 31.5973 79.2149 32.2405 78.954 32.8423C78.6934 33.4439 78.3378 33.9687 77.8873 34.4172C77.4372 34.8656 76.9097 35.2194 76.3052 35.4789C75.701 35.7386 75.055 35.8683 74.3677 35.8683C73.6804 35.8683 73.0347 35.7386 72.4302 35.4789C71.8257 35.2194 71.2982 34.8656 70.8481 34.4172C70.3979 33.9687 70.042 33.4439 69.7814 32.8423C69.5205 32.2405 69.3902 31.5973 69.3902 30.9128V20.0818C69.3902 19.3032 69.5205 18.607 69.7814 17.9935C70.042 17.3797 70.3979 16.8605 70.8481 16.436C71.2982 16.0112 71.8257 15.6868 72.4302 15.4627C73.0347 15.2383 73.6804 15.1263 74.3677 15.1263C75.055 15.1263 75.701 15.2443 76.3052 15.4801C76.9097 15.7162 77.4372 16.0466 77.8873 16.4714C78.3378 16.8962 78.6934 17.415 78.954 18.0288C79.2149 18.6424 79.3452 19.3266 79.3452 20.0818C79.3452 20.5508 78.965 20.9311 78.4959 20.9311H77.3149C76.8458 20.9311 76.4656 20.5508 76.4656 20.0818C76.4656 19.5153 76.258 19.0258 75.8433 18.6127C75.4284 18.1996 74.9367 17.9935 74.3677 17.9935ZM65.0527 34.4082C65.0527 34.9604 65.5005 35.4082 66.0527 35.4082H66.9326C67.4849 35.4082 67.9326 34.9604 67.9326 34.4082V10.9584C67.9326 10.4061 67.4849 9.9584 66.9326 9.9584H66.0527C65.5005 9.9584 65.0527 10.4061 65.0527 10.9584V34.4082ZM129.141 25.8485V20.1851C129.141 19.5949 128.933 19.0997 128.519 18.6986C128.104 18.2975 127.612 18.0968 127.044 18.0968C126.451 18.0968 125.953 18.2975 125.55 18.6986C125.147 19.0997 124.946 19.5949 124.946 20.1851V25.8485C124.946 26.4383 125.147 26.9341 125.55 27.3352C125.953 27.7361 126.451 27.9368 127.044 27.9368C127.612 27.9368 128.104 27.7361 128.519 27.3352C128.933 26.9341 129.141 26.4383 129.141 25.8485ZM132.021 18.0614V25.8485C132.021 27.1935 131.659 28.2792 130.937 29.1051C130.214 29.9307 129.034 30.4145 127.399 30.5562C126.64 30.6272 126.149 30.798 125.924 31.0694C125.698 31.3408 125.586 31.6299 125.586 31.9367C125.586 32.1254 125.657 32.3438 125.799 32.5915C125.941 32.8393 126.178 32.9867 126.51 33.034H131.222C131.947 33.034 132.432 33.7819 132.134 34.4435L131.727 35.3504C131.565 35.7123 131.204 35.9439 130.807 35.9408L125.728 35.9012C124.306 35.89 123.595 36.2903 123.595 37.0689C123.595 37.8478 124.306 38.2372 125.728 38.2372H128.665C129.424 38.2372 129.906 39.0498 129.543 39.7162L129.07 40.5831C128.894 40.9043 128.558 41.1041 128.192 41.1041H125.728C124.282 41.1041 123.091 40.7384 122.155 40.0071C121.218 39.2755 120.75 38.3079 120.75 37.1045C120.75 36.1606 121.053 35.3467 121.657 34.6621C122.262 33.9776 123.061 33.5058 124.057 33.2464C123.725 33.1283 123.482 32.9396 123.328 32.6799C123.174 32.4205 123.097 32.1371 123.097 31.8306C123.097 31.5002 123.227 31.1814 123.488 30.8747C123.749 30.5679 124.152 30.3558 124.697 30.2375C122.943 29.3172 122.066 27.8544 122.066 25.8485V20.1851C122.066 19.5006 122.179 18.8577 122.404 18.2559C122.629 17.6543 122.943 17.1292 123.346 16.681C123.749 16.2325 124.247 15.8787 124.839 15.6187C125.432 15.3593 126.095 15.2296 126.83 15.2296C127.588 15.2296 128.228 15.3063 128.75 15.4597C129.271 15.6133 129.651 15.7604 129.887 15.9021H131.587C132.383 15.9021 132.86 16.7873 132.422 17.4522L132.021 18.0614ZM119.404 15.4776C119.807 15.4776 120.151 15.5304 120.435 15.6367C120.479 15.6533 120.522 15.6706 120.564 15.6887C120.929 15.8472 121.017 16.2838 120.872 16.6547L120.392 17.8837C120.246 18.2562 119.804 18.3445 119.404 18.3445C118.811 18.3445 118.314 18.5509 117.911 18.964C117.508 19.3768 117.306 19.8666 117.306 20.4328V34.5117C117.306 35.064 116.858 35.5117 116.306 35.5117H115.427C114.874 35.5117 114.427 35.064 114.427 34.5117V16.6544C114.427 16.1021 114.874 15.6544 115.427 15.6544H115.737C116.111 15.6544 116.454 15.8631 116.626 16.1954L116.986 16.8934C117.152 16.563 117.436 16.2442 117.839 15.9378C118.243 15.6307 118.764 15.4776 119.404 15.4776ZM110.231 20.7513C110.231 19.7603 110.024 19.0701 109.609 18.6806C109.194 18.2915 108.703 18.0968 108.134 18.0968C107.541 18.0968 107.043 18.3032 106.64 18.716C106.238 19.1294 106.036 19.6189 106.036 20.1851V26.7688C106.842 26.3676 107.5 25.9665 108.009 25.5654C108.519 25.1642 108.94 24.7511 109.271 24.3264C109.65 23.8072 109.906 23.2647 110.036 22.6982C110.166 22.132 110.231 21.4831 110.231 20.7513ZM112.898 31.0164C112.898 31.7006 112.773 32.3438 112.524 32.9456C112.276 33.5474 111.932 34.0723 111.494 34.5205C111.055 34.9689 110.539 35.323 109.947 35.5821C109.354 35.8419 108.714 35.9719 108.027 35.9719C107.34 35.9719 106.7 35.8419 106.107 35.5821C105.514 35.323 104.999 34.9689 104.561 34.5205C104.122 34.0723 103.778 33.5474 103.529 32.9456C103.281 32.3438 103.156 31.7006 103.156 31.0164V20.1851C103.156 19.5006 103.286 18.8577 103.547 18.2559C103.808 17.6543 104.164 17.1292 104.614 16.681C105.064 16.2325 105.592 15.8787 106.196 15.6187C106.801 15.3593 107.446 15.2296 108.134 15.2296C108.821 15.2296 109.467 15.3536 110.071 15.6013C110.676 15.8491 111.203 16.2032 111.653 16.6633C112.104 17.1235 112.459 17.684 112.72 18.3445C112.981 19.0051 113.111 19.7603 113.111 20.6099C113.111 21.8606 112.992 22.9166 112.755 23.7778C112.519 24.6391 112.151 25.412 111.653 26.0962C111.084 26.8511 110.344 27.53 109.431 28.1315C108.519 28.7333 107.387 29.3765 106.036 30.0607V31.0164C106.036 31.6065 106.22 32.1017 106.587 32.5028C106.954 32.904 107.435 33.1047 108.027 33.1047C108.596 33.1047 109.07 32.904 109.449 32.5028C109.828 32.1017 110.018 31.6065 110.018 31.0164C110.018 30.8261 110.14 30.6572 110.32 30.5973L111.688 30.1434C112.284 29.9458 112.898 30.3891 112.898 31.0164ZM96.7565 18.0968C96.164 18.0968 95.6425 18.3032 95.1924 18.716C94.7417 19.1294 94.5166 19.6189 94.5166 20.1851V30.6976C94.5166 31.2875 94.7417 31.7833 95.1924 32.1844C95.6425 32.5855 96.164 32.7862 96.7565 32.7862C97.3255 32.7862 97.8409 32.5855 98.3031 32.1844C98.7653 31.7833 98.9964 31.2875 98.9964 30.6976V20.1851C98.9964 19.6189 98.7653 19.1294 98.3031 18.716C97.8409 18.3032 97.3255 18.0968 96.7565 18.0968ZM101.876 30.6976C101.876 31.3819 101.758 32.025 101.521 32.6269C101.284 33.2284 100.958 33.7536 100.543 34.202C100.128 34.6505 99.6364 35.0043 99.0674 35.2637C98.4984 35.5234 97.8707 35.6531 97.1832 35.6531C96.4246 35.6531 95.7849 35.5351 95.2634 35.2993C94.7417 35.0633 94.3863 34.8155 94.1967 34.5561L93.8538 35.0682C93.6681 35.3454 93.3565 35.5117 93.0229 35.5117H92.637C92.0847 35.5117 91.637 35.064 91.637 34.5117V10.6774C91.637 10.2465 91.913 9.86403 92.322 9.7283L93.2016 9.43639C93.8489 9.22158 94.5166 9.70349 94.5166 10.3855V16.2206C94.6351 15.9611 94.9433 15.7311 95.4409 15.5304C95.9389 15.3299 96.5076 15.2296 97.1474 15.2296C97.8352 15.2296 98.4692 15.3593 99.0499 15.6187C99.6304 15.8787 100.128 16.2325 100.543 16.681C100.958 17.1292 101.284 17.6543 101.521 18.2559C101.758 18.8577 101.876 19.5006 101.876 20.1851V30.6976ZM116.56 39.4043C116.56 39.7145 116.414 39.8377 115.949 39.8377C115.901 39.8377 115.684 39.8331 115.635 39.8285V38.9524C115.688 38.9482 115.918 38.939 115.98 38.939C116.352 38.939 116.56 39.0668 116.56 39.345V39.4043ZM117.423 41.6534C117.423 41.6397 117.419 41.6215 117.41 41.6032L116.742 40.3166C117.065 40.1846 117.313 39.8878 117.313 39.4043V39.345C117.313 38.5376 116.733 38.2773 115.98 38.2773C115.662 38.2773 115.285 38.3047 115.082 38.3366C114.944 38.3595 114.883 38.4005 114.883 38.5559V41.6169C114.883 41.6671 114.922 41.7082 114.971 41.7082H115.547C115.595 41.7082 115.635 41.6671 115.635 41.6169V40.458C115.676 40.458 115.73 40.4603 115.785 40.4626H115.785C115.843 40.465 115.902 40.4674 115.949 40.4674L115.998 40.4629L116.591 41.6169L116.596 41.6272C116.616 41.6691 116.634 41.7082 116.68 41.7082H117.357C117.406 41.7082 117.423 41.6853 117.423 41.6534ZM114.325 41.5941V41.1699C114.325 41.1197 114.285 41.0787 114.237 41.0787H113.338C113.13 41.0787 113.055 41.0057 113.055 40.7685V40.2847H114.201C114.25 40.2847 114.29 40.2436 114.29 40.1935V39.7601C114.29 39.7099 114.25 39.6689 114.201 39.6689H113.055V39.2538C113.055 39.0166 113.13 38.9436 113.338 38.9436H114.237C114.285 38.9436 114.325 38.9026 114.325 38.8524V38.4282C114.325 38.3689 114.298 38.3458 114.237 38.3366L114.213 38.3331C114.059 38.3103 113.836 38.2773 113.382 38.2773C112.811 38.2773 112.302 38.4233 112.302 39.2538V40.7685C112.302 41.5987 112.807 41.7492 113.378 41.7492C113.835 41.7492 114.062 41.7157 114.216 41.6929L114.237 41.6899C114.298 41.6808 114.325 41.6534 114.325 41.5941ZM111.997 38.8752V38.4051C111.997 38.3549 111.953 38.3184 111.904 38.3184H109.708C109.66 38.3184 109.62 38.3549 109.62 38.4051V38.8752C109.62 38.9254 109.66 38.9619 109.708 38.9619H110.43V41.6169C110.43 41.6671 110.47 41.7082 110.518 41.7082H111.098C111.147 41.7082 111.187 41.6671 111.187 41.6169V38.9619H111.904C111.953 38.9619 111.997 38.9254 111.997 38.8752ZM109.314 41.5348V38.4051C109.314 38.3549 109.275 38.3184 109.226 38.3184H108.704C108.655 38.3184 108.615 38.3549 108.615 38.4051V40.3349C108.615 40.3671 108.602 40.3759 108.593 40.3759C108.581 40.3759 108.576 40.3686 108.562 40.3465L108.557 40.3394L107.509 38.4598C107.455 38.364 107.411 38.3184 107.323 38.3184H106.876C106.783 38.3184 106.708 38.3959 106.708 38.492V41.6169C106.708 41.6671 106.747 41.7082 106.796 41.7082H107.318C107.367 41.7082 107.407 41.6671 107.407 41.6169V39.7692C107.407 39.7419 107.416 39.7327 107.429 39.7327C107.442 39.7327 107.451 39.7419 107.469 39.7692L108.478 41.5667C108.549 41.6899 108.615 41.7082 108.708 41.7082H109.142C109.235 41.7082 109.314 41.6306 109.314 41.5348ZM106.15 41.5941V41.1699C106.15 41.1197 106.11 41.0787 106.061 41.0787H105.163C104.955 41.0787 104.88 41.0057 104.88 40.7685V40.2847H106.026C106.074 40.2847 106.114 40.2436 106.114 40.1935V39.7601C106.114 39.7099 106.074 39.6689 106.026 39.6689H104.88V39.2538C104.88 39.0166 104.955 38.9436 105.163 38.9436H106.061C106.11 38.9436 106.15 38.9026 106.15 38.8524V38.4282C106.15 38.3689 106.123 38.3458 106.061 38.3366L106.038 38.3332C105.884 38.3104 105.662 38.2773 105.207 38.2773C104.636 38.2773 104.127 38.4233 104.127 39.2538V40.7685C104.127 41.5987 104.632 41.7492 105.203 41.7492C105.661 41.7492 105.887 41.7157 106.042 41.6928L106.061 41.6899C106.123 41.6808 106.15 41.6534 106.15 41.5941ZM103.649 41.5667V41.1243C103.649 41.0695 103.622 41.0331 103.565 41.0331H103.552L103.493 41.0379C103.33 41.0515 103.113 41.0695 102.896 41.0695C102.591 41.0695 102.348 40.9053 102.348 40.2984V39.7236C102.348 39.1169 102.591 38.9524 102.896 38.9524C103.111 38.9524 103.326 38.9704 103.489 38.984L103.552 38.9892H103.565C103.622 38.9892 103.649 38.9524 103.649 38.898V38.4555C103.649 38.3917 103.614 38.3734 103.552 38.3549C103.459 38.323 103.202 38.2773 102.892 38.2773C102.22 38.2773 101.582 38.638 101.582 39.7236V40.2984C101.582 41.3843 102.22 41.7492 102.892 41.7492C103.202 41.7492 103.459 41.7036 103.552 41.6717C103.614 41.6534 103.649 41.6306 103.649 41.5667ZM99.0458 40.2528H98.3863L98.6563 38.9938C98.6652 38.9482 98.6784 38.9254 98.7182 38.9254C98.758 38.9254 98.7669 38.9482 98.7758 38.9938L99.0458 40.2528ZM100.111 41.6275C100.11 41.6231 100.108 41.6177 100.108 41.6124L99.4487 38.784C99.3468 38.3458 99.0237 38.2773 98.7182 38.2773C98.4129 38.2773 98.0854 38.3458 97.9834 38.784L97.3242 41.6124C97.3242 41.6177 97.3226 41.6231 97.3213 41.6275C97.3204 41.6306 97.3196 41.6333 97.3196 41.6352C97.3196 41.6808 97.3506 41.7082 97.3949 41.7082H98.0146C98.0587 41.7082 98.0942 41.6717 98.1031 41.626L98.2623 40.878H99.1698L99.329 41.626C99.3379 41.6717 99.3734 41.7082 99.4175 41.7082H100.037C100.082 41.7082 100.112 41.6808 100.112 41.6352C100.112 41.6333 100.112 41.6306 100.111 41.6275ZM96.9259 41.6443V38.478C96.9259 38.3823 96.8595 38.3184 96.7664 38.3184H96.3503C96.2572 38.3184 96.1954 38.364 96.1556 38.4416L95.4783 39.7419C95.4606 39.7784 95.4474 39.8012 95.4297 39.8012C95.4119 39.8012 95.3987 39.7784 95.381 39.7419L94.7037 38.4416C94.6639 38.364 94.6021 38.3184 94.509 38.3184H94.0929C94.0002 38.3184 93.9337 38.3777 93.9337 38.4738V41.6443C93.9337 41.6945 93.9735 41.7082 94.009 41.7082H94.5932C94.633 41.7082 94.6639 41.6671 94.6639 41.6169V39.7145C94.6639 39.6826 94.6774 39.678 94.686 39.678C94.6994 39.678 94.708 39.6871 94.7215 39.7099L95.1198 40.4629C95.151 40.5173 95.1951 40.5401 95.2527 40.5401H95.6066C95.6642 40.5401 95.7086 40.5173 95.7395 40.4629L96.1378 39.7099C96.1513 39.6871 96.1599 39.678 96.1733 39.678C96.1822 39.678 96.1954 39.6826 96.1954 39.7145V41.6169C96.1954 41.6671 96.2263 41.7082 96.2664 41.7082H96.8506C96.8861 41.7082 96.9259 41.6945 96.9259 41.6443ZM93.3272 40.4352V38.4051C93.3272 38.3549 93.2828 38.3184 93.2344 38.3184H92.6588C92.6102 38.3184 92.5704 38.3549 92.5704 38.4051V40.4352C92.5704 40.9008 92.4464 41.0969 92.048 41.0969C91.6497 41.0969 91.5303 40.9008 91.5303 40.4352V38.4051C91.5303 38.3549 91.4905 38.3184 91.4418 38.3184H90.8619C90.8133 38.3184 90.7735 38.3549 90.7735 38.4051V40.4352C90.7735 41.4755 91.3442 41.7492 92.048 41.7492C92.7519 41.7492 93.3272 41.4755 93.3272 40.4352ZM89.4147 40.2528H88.7552L89.0252 38.9938C89.0338 38.9482 89.0473 38.9254 89.0871 38.9254C89.1269 38.9254 89.1358 38.9482 89.1446 38.9938L89.4147 40.2528ZM90.4811 41.6329C90.4808 41.6314 90.4803 41.6295 90.4798 41.6275C90.4785 41.6231 90.4771 41.6177 90.4771 41.6124L89.8173 38.784C89.7156 38.3458 89.3923 38.2773 89.0871 38.2773C88.7815 38.2773 88.4539 38.3458 88.3523 38.784L87.6928 41.6124C87.6928 41.6177 87.6912 41.6231 87.6899 41.6275C87.689 41.6306 87.6882 41.6333 87.6882 41.6352C87.6882 41.6808 87.7194 41.7082 87.7638 41.7082H88.3832C88.4276 41.7082 88.4631 41.6717 88.472 41.626L88.6312 40.878H89.5387L89.6979 41.626C89.7068 41.6717 89.742 41.7082 89.7864 41.7082H90.4061C90.4502 41.7082 90.4814 41.6808 90.4814 41.6352C90.4814 41.6345 90.4813 41.6338 90.4811 41.6329ZM86.5817 39.4043C86.5817 39.7145 86.4357 39.8377 85.9709 39.8377C85.9222 39.8377 85.7055 39.8331 85.6568 39.8285V38.9524C85.7101 38.9482 85.94 38.939 86.0021 38.939C86.3738 38.939 86.5817 39.0668 86.5817 39.345V39.4043ZM87.4451 41.6534C87.4451 41.6397 87.4405 41.6215 87.4316 41.6032L86.7633 40.3166C87.0863 40.1846 87.3343 39.8878 87.3343 39.4043V39.345C87.3343 38.5376 86.7544 38.2773 86.0021 38.2773C85.6834 38.2773 85.3071 38.3047 85.1035 38.3366C84.9664 38.3595 84.9042 38.4005 84.9042 38.5559V41.6169C84.9042 41.6671 84.9443 41.7082 84.9927 41.7082H85.5683C85.617 41.7082 85.6568 41.6671 85.6568 41.6169V40.458C85.6979 40.458 85.7515 40.4603 85.8065 40.4626C85.8643 40.465 85.9234 40.4674 85.9709 40.4674L86.0199 40.4629L86.6129 41.6169L86.6179 41.6272C86.6379 41.6692 86.6564 41.7082 86.7014 41.7082H87.3784C87.4274 41.7082 87.4451 41.6853 87.4451 41.6534ZM84.4839 38.8752V38.4051C84.4839 38.3549 84.4395 38.3184 84.3908 38.3184H82.1956C82.1469 38.3184 82.1071 38.3549 82.1071 38.4051V38.8752C82.1071 38.9254 82.1469 38.9619 82.1956 38.9619H82.9169V41.6169C82.9169 41.6671 82.9567 41.7082 83.0054 41.7082H83.5853C83.6339 41.7082 83.6738 41.6671 83.6738 41.6169V38.9619H84.3908C84.4395 38.9619 84.4839 38.9254 84.4839 38.8752ZM80.748 41.5941V41.1699C80.748 41.1197 80.7082 41.0787 80.6598 41.0787H79.8984C79.6902 41.0787 79.6149 41.0057 79.6149 40.7685V38.4099C79.6149 38.3594 79.5751 38.3184 79.5264 38.3184H78.9468C78.8981 38.3184 78.8583 38.3594 78.8583 38.4099V40.7685C78.8583 41.5987 79.3672 41.7492 79.9382 41.7492C80.1727 41.7492 80.5135 41.7218 80.6598 41.6899C80.7217 41.6762 80.748 41.6534 80.748 41.5941ZM77.4861 40.2528H76.8266L77.0967 38.9938C77.1055 38.9482 77.119 38.9254 77.1588 38.9254C77.1986 38.9254 77.2075 38.9482 77.2164 38.9938L77.4861 40.2528ZM78.5528 41.6352C78.5528 41.6333 78.5521 41.6306 78.5512 41.6275C78.55 41.6231 78.5485 41.6177 78.5485 41.6124L77.889 38.784C77.7871 38.3458 77.4641 38.2773 77.1588 38.2773C76.8533 38.2773 76.5257 38.3458 76.424 38.784L75.7645 41.6124C75.7645 41.6177 75.7629 41.6231 75.7617 41.6275C75.7607 41.6306 75.7599 41.6333 75.7599 41.6352C75.7599 41.6808 75.7909 41.7082 75.8353 41.7082H76.4549C76.4993 41.7082 76.5345 41.6717 76.5434 41.626L76.7026 40.878H77.6101L77.7696 41.626C77.7782 41.6717 77.8137 41.7082 77.8578 41.7082H78.4775C78.5219 41.7082 78.5528 41.6808 78.5528 41.6352ZM75.8751 38.8752V38.4051C75.8751 38.3549 75.831 38.3184 75.782 38.3184H73.5868C73.5381 38.3184 73.4983 38.3549 73.4983 38.4051V38.8752C73.4983 38.9254 73.5381 38.9619 73.5868 38.9619H74.3081V41.6169C74.3081 41.6671 74.3479 41.7082 74.3969 41.7082H74.9765C75.0251 41.7082 75.0652 41.6671 75.0652 41.6169V38.9619H75.782C75.831 38.9619 75.8751 38.9254 75.8751 38.8752ZM73.1927 41.5348V38.4051C73.1927 38.3549 73.1529 38.3184 73.1042 38.3184H72.5819C72.5332 38.3184 72.4934 38.3549 72.4934 38.4051V40.3349C72.4934 40.3671 72.4803 40.3759 72.4714 40.3759C72.4592 40.3759 72.4545 40.3686 72.4404 40.3465L72.4359 40.3394L71.3869 38.4598C71.334 38.364 71.2896 38.3184 71.2011 38.3184H70.7541C70.661 38.3184 70.5857 38.3959 70.5857 38.492V41.6169C70.5857 41.6671 70.6255 41.7082 70.6742 41.7082H71.1965C71.2452 41.7082 71.2853 41.6671 71.2853 41.6169V39.7692C71.2853 39.7419 71.2939 39.7327 71.3073 39.7327C71.3205 39.7327 71.3294 39.7419 71.3471 39.7692L72.3563 41.5667C72.427 41.6899 72.4934 41.7082 72.5865 41.7082H73.0201C73.1131 41.7082 73.1927 41.6306 73.1927 41.5348ZM70.0282 41.5941V41.1699C70.0282 41.1197 69.9884 41.0787 69.9397 41.0787H69.0411C68.8329 41.0787 68.7579 41.0057 68.7579 40.7685V40.2847H69.9042C69.9529 40.2847 69.993 40.2436 69.993 40.1935V39.7601C69.993 39.7099 69.9529 39.6689 69.9042 39.6689H68.7579V39.2538C68.7579 39.0166 68.8329 38.9436 69.0411 38.9436H69.9397C69.9884 38.9436 70.0282 38.9026 70.0282 38.8524V38.4282C70.0282 38.3689 70.0015 38.3458 69.9397 38.3366L69.9165 38.3332C69.7626 38.3104 69.5401 38.2773 69.0852 38.2773C68.5142 38.2773 68.0053 38.4233 68.0053 39.2538V40.7685C68.0053 41.5987 68.5099 41.7492 69.0809 41.7492C69.5392 41.7492 69.7657 41.7157 69.9202 41.6928L69.9397 41.6899C70.0015 41.6808 70.0282 41.6534 70.0282 41.5941ZM66.7262 40.3078C66.7262 40.9236 66.4696 41.0878 66.0713 41.0878C65.9604 41.0878 65.819 41.0832 65.7568 41.0787V38.9482C65.819 38.9436 65.9604 38.939 66.0713 38.939C66.4696 38.939 66.7262 39.1033 66.7262 39.7191V40.3078ZM67.4833 40.3078V39.7191C67.4833 38.7566 66.9518 38.2773 66.0713 38.2773C65.7039 38.2773 65.3098 38.3138 65.1283 38.3458C65.0444 38.3594 65 38.4005 65 38.5054V41.5211C65 41.6261 65.0444 41.6671 65.1283 41.6808C65.3098 41.7127 65.7039 41.7492 66.0713 41.7492C66.9518 41.7492 67.4833 41.2703 67.4833 40.3078Z" fill="white"/>
<path fill-rule="evenodd" clip-rule="evenodd" d="M32.4136 48.8825C31.6059 49.1329 30.9457 48.2883 31.3325 47.5362L34.1313 42.0944C34.4541 41.5375 34.1439 40.9898 33.5338 40.9898C32.9236 40.9898 32.497 41.2772 32.1681 41.8434L28.2122 49.3602C28.0588 49.6516 27.7718 49.8503 27.444 49.8822C27.1739 49.9086 26.9052 49.9304 26.6365 49.9478C25.8893 49.9961 25.4057 49.2072 25.7489 48.5417L32.978 34.5233C33.2738 33.9491 32.9522 33.4187 32.342 33.4187C31.7319 33.4187 31.0613 33.9379 30.7594 34.5233L23.1331 49.3113C22.9473 49.6716 22.5621 49.8859 22.1593 49.8404C21.8946 49.8104 21.6311 49.7764 21.3689 49.7382C20.7202 49.6438 20.3721 48.9419 20.6592 48.3527L31.6134 25.8695C31.8959 25.2886 31.5876 24.765 30.977 24.765C30.3669 24.765 29.6826 25.2785 29.3944 25.8695L18.4743 48.2833C18.2618 48.7196 17.766 48.9424 17.3042 48.7931C17.0552 48.7126 16.8079 48.6283 16.5624 48.5403C16.0247 48.3476 15.7837 47.7316 16.0243 47.2136L33.7231 9.10418C33.9956 8.51678 33.6973 8 33.0872 8C32.477 8 31.7822 8.50595 31.5046 9.10418L14.1859 46.3951C13.9479 46.9076 13.3317 47.1229 12.8382 46.8476C12.6593 46.7478 12.4818 46.6459 12.3056 46.5418C11.8713 46.2853 11.7162 45.7377 11.9332 45.2824L24.0166 19.9209C24.2963 19.3343 23.9909 18.8159 23.3807 18.8159C22.7705 18.8159 22.0822 19.3255 21.7981 19.9209L10.4173 43.8076C10.1445 44.3801 9.41367 44.558 8.92808 44.15C8.82454 44.063 8.72171 43.9752 8.61961 43.8866C8.28141 43.593 8.19556 43.1059 8.39853 42.7067L13.384 32.9011C13.6766 32.3249 13.3582 31.7957 12.7481 31.7957C12.1379 31.7957 11.4637 32.3149 11.1655 32.9011L7.23844 40.6245C6.92226 41.2464 6.08333 41.3604 5.64157 40.8205C5.43883 40.5727 5.24076 40.321 5.04749 40.0654C4.82489 39.7711 4.79321 39.3762 4.95588 39.0449L10.6291 27.4921C10.914 26.9111 10.6033 26.3879 9.99312 26.3879C9.38296 26.3879 8.70107 26.9011 8.4105 27.4921L4.24576 35.9731C3.89464 36.6881 2.89747 36.7202 2.54635 36.0052C0.915695 32.6845 0 28.9492 0 25C0 11.1929 11.1929 0 25 0C38.8071 0 50 11.1929 50 25C50 36.2259 42.601 45.7236 32.4136 48.8825ZM87.5935 20.648C87.5935 19.657 87.3862 18.9668 86.9712 18.5774C86.5566 18.1882 86.0649 17.9935 85.4959 17.9935C84.9034 17.9935 84.4054 18.1996 84.0025 18.6127C83.5996 19.0258 83.398 19.5153 83.398 20.0818V26.6655C84.2041 26.2643 84.8619 25.8632 85.3713 25.4618C85.8811 25.061 86.3017 24.6479 86.6333 24.2231C87.0127 23.7039 87.2676 23.1611 87.3979 22.5949C87.5282 22.0287 87.5935 21.3798 87.5935 20.648ZM90.2598 30.9128C90.2598 31.5973 90.1355 32.2405 89.8866 32.8423C89.6378 33.4439 89.2942 33.9687 88.8558 34.4172C88.4171 34.8656 87.9016 35.2194 87.3091 35.4789C86.7167 35.7386 86.0764 35.8683 85.3891 35.8683C84.7018 35.8683 84.0618 35.7386 83.4693 35.4789C82.8766 35.2194 82.3614 34.8656 81.9227 34.4172C81.484 33.9687 81.1407 33.4439 80.8915 32.8423C80.643 32.2405 80.5184 31.5973 80.5184 30.9128V20.0818C80.5184 19.3973 80.6487 18.7544 80.9096 18.1526C81.1702 17.5507 81.5258 17.0259 81.976 16.5777C82.4264 16.1293 82.9539 15.7752 83.5581 15.5154C84.1626 15.256 84.8086 15.1263 85.4959 15.1263C86.1832 15.1263 86.8289 15.25 87.4334 15.4981C88.0379 15.7458 88.5654 16.0996 89.0155 16.5597C89.4657 17.0199 89.8216 17.5804 90.0822 18.2412C90.3431 18.9018 90.4734 19.657 90.4734 20.5063C90.4734 21.757 90.3546 22.8133 90.1177 23.6745C89.8809 24.5358 89.5132 25.3087 89.0155 25.9929C88.4465 26.7479 87.706 27.4264 86.7934 28.0282C85.8811 28.6301 84.7491 29.2729 83.398 29.9572V30.9128C83.398 31.5029 83.5819 31.9984 83.9493 32.3996C84.3167 32.8007 84.7966 33.0014 85.3891 33.0014C85.9581 33.0014 86.4323 32.8007 86.8114 32.3996C87.1903 31.9984 87.3801 31.5029 87.3801 30.9128C87.3801 30.7227 87.5019 30.5539 87.6824 30.494L89.0505 30.04C89.6458 29.8425 90.2598 30.2856 90.2598 30.9128ZM74.3677 17.9935C73.7752 17.9935 73.2773 18.1996 72.8743 18.6127C72.4717 19.0258 72.2701 19.5153 72.2701 20.0818V30.9128C72.2701 31.5029 72.4717 31.9984 72.8743 32.3996C73.2773 32.8007 73.7752 33.0014 74.3677 33.0014C74.9367 33.0014 75.4284 32.8007 75.8433 32.3996C76.258 31.9984 76.4656 31.5029 76.4656 30.9128C76.4656 30.7227 76.5874 30.5539 76.7678 30.494L78.136 30.04C78.7312 29.8425 79.3452 30.2856 79.3452 30.9128C79.3452 31.5973 79.2149 32.2405 78.954 32.8423C78.6934 33.4439 78.3378 33.9687 77.8873 34.4172C77.4372 34.8656 76.9097 35.2194 76.3052 35.4789C75.701 35.7386 75.055 35.8683 74.3677 35.8683C73.6804 35.8683 73.0347 35.7386 72.4302 35.4789C71.8257 35.2194 71.2982 34.8656 70.8481 34.4172C70.3979 33.9687 70.042 33.4439 69.7814 32.8423C69.5205 32.2405 69.3902 31.5973 69.3902 30.9128V20.0818C69.3902 19.3032 69.5205 18.607 69.7814 17.9935C70.042 17.3797 70.3979 16.8605 70.8481 16.436C71.2982 16.0112 71.8257 15.6868 72.4302 15.4627C73.0347 15.2383 73.6804 15.1263 74.3677 15.1263C75.055 15.1263 75.701 15.2443 76.3052 15.4801C76.9097 15.7162 77.4372 16.0466 77.8873 16.4714C78.3378 16.8962 78.6934 17.415 78.954 18.0288C79.2149 18.6424 79.3452 19.3266 79.3452 20.0818C79.3452 20.5508 78.965 20.9311 78.4959 20.9311H77.3149C76.8458 20.9311 76.4656 20.5508 76.4656 20.0818C76.4656 19.5153 76.258 19.0258 75.8433 18.6127C75.4284 18.1996 74.9367 17.9935 74.3677 17.9935ZM65.0527 34.4082C65.0527 34.9604 65.5005 35.4082 66.0527 35.4082H66.9326C67.4849 35.4082 67.9326 34.9604 67.9326 34.4082V10.9584C67.9326 10.4061 67.4849 9.9584 66.9326 9.9584H66.0527C65.5005 9.9584 65.0527 10.4061 65.0527 10.9584V34.4082ZM129.141 25.8485V20.1851C129.141 19.5949 128.933 19.0997 128.519 18.6986C128.104 18.2975 127.612 18.0968 127.044 18.0968C126.451 18.0968 125.953 18.2975 125.55 18.6986C125.147 19.0997 124.946 19.5949 124.946 20.1851V25.8485C124.946 26.4383 125.147 26.9341 125.55 27.3352C125.953 27.7361 126.451 27.9368 127.044 27.9368C127.612 27.9368 128.104 27.7361 128.519 27.3352C128.933 26.9341 129.141 26.4383 129.141 25.8485ZM132.021 18.0614V25.8485C132.021 27.1935 131.659 28.2792 130.937 29.1051C130.214 29.9307 129.034 30.4145 127.399 30.5562C126.64 30.6272 126.149 30.798 125.924 31.0694C125.698 31.3408 125.586 31.6299 125.586 31.9367C125.586 32.1254 125.657 32.3438 125.799 32.5915C125.941 32.8393 126.178 32.9867 126.51 33.034H131.222C131.947 33.034 132.432 33.7819 132.134 34.4435L131.727 35.3504C131.565 35.7123 131.204 35.9439 130.807 35.9408L125.728 35.9012C124.306 35.89 123.595 36.2903 123.595 37.0689C123.595 37.8478 124.306 38.2372 125.728 38.2372H128.665C129.424 38.2372 129.906 39.0498 129.543 39.7162L129.07 40.5831C128.894 40.9043 128.558 41.1041 128.192 41.1041H125.728C124.282 41.1041 123.091 40.7384 122.155 40.0071C121.218 39.2755 120.75 38.3079 120.75 37.1045C120.75 36.1606 121.053 35.3467 121.657 34.6621C122.262 33.9776 123.061 33.5058 124.057 33.2464C123.725 33.1283 123.482 32.9396 123.328 32.6799C123.174 32.4205 123.097 32.1371 123.097 31.8306C123.097 31.5002 123.227 31.1814 123.488 30.8747C123.749 30.5679 124.152 30.3558 124.697 30.2375C122.943 29.3172 122.066 27.8544 122.066 25.8485V20.1851C122.066 19.5006 122.179 18.8577 122.404 18.2559C122.629 17.6543 122.943 17.1292 123.346 16.681C123.749 16.2325 124.247 15.8787 124.839 15.6187C125.432 15.3593 126.095 15.2296 126.83 15.2296C127.588 15.2296 128.228 15.3063 128.75 15.4597C129.271 15.6133 129.651 15.7604 129.887 15.9021H131.587C132.383 15.9021 132.86 16.7873 132.422 17.4522L132.021 18.0614ZM119.404 15.4776C119.807 15.4776 120.151 15.5304 120.435 15.6367C120.479 15.6533 120.522 15.6706 120.564 15.6887C120.929 15.8472 121.017 16.2838 120.872 16.6547L120.392 17.8837C120.246 18.2562 119.804 18.3445 119.404 18.3445C118.811 18.3445 118.314 18.5509 117.911 18.964C117.508 19.3768 117.306 19.8666 117.306 20.4328V34.5117C117.306 35.064 116.858 35.5117 116.306 35.5117H115.427C114.874 35.5117 114.427 35.064 114.427 34.5117V16.6544C114.427 16.1021 114.874 15.6544 115.427 15.6544H115.737C116.111 15.6544 116.454 15.8631 116.626 16.1954L116.986 16.8934C117.152 16.563 117.436 16.2442 117.839 15.9378C118.243 15.6307 118.764 15.4776 119.404 15.4776ZM110.231 20.7513C110.231 19.7603 110.024 19.0701 109.609 18.6806C109.194 18.2915 108.703 18.0968 108.134 18.0968C107.541 18.0968 107.043 18.3032 106.64 18.716C106.238 19.1294 106.036 19.6189 106.036 20.1851V26.7688C106.842 26.3676 107.5 25.9665 108.009 25.5654C108.519 25.1642 108.94 24.7511 109.271 24.3264C109.65 23.8072 109.906 23.2647 110.036 22.6982C110.166 22.132 110.231 21.4831 110.231 20.7513ZM112.898 31.0164C112.898 31.7006 112.773 32.3438 112.524 32.9456C112.276 33.5474 111.932 34.0723 111.494 34.5205C111.055 34.9689 110.539 35.323 109.947 35.5821C109.354 35.8419 108.714 35.9719 108.027 35.9719C107.34 35.9719 106.7 35.8419 106.107 35.5821C105.514 35.323 104.999 34.9689 104.561 34.5205C104.122 34.0723 103.778 33.5474 103.529 32.9456C103.281 32.3438 103.156 31.7006 103.156 31.0164V20.1851C103.156 19.5006 103.286 18.8577 103.547 18.2559C103.808 17.6543 104.164 17.1292 104.614 16.681C105.064 16.2325 105.592 15.8787 106.196 15.6187C106.801 15.3593 107.446 15.2296 108.134 15.2296C108.821 15.2296 109.467 15.3536 110.071 15.6013C110.676 15.8491 111.203 16.2032 111.653 16.6633C112.104 17.1235 112.459 17.684 112.72 18.3445C112.981 19.0051 113.111 19.7603 113.111 20.6099C113.111 21.8606 112.992 22.9166 112.755 23.7778C112.519 24.6391 112.151 25.412 111.653 26.0962C111.084 26.8511 110.344 27.53 109.431 28.1315C108.519 28.7333 107.387 29.3765 106.036 30.0607V31.0164C106.036 31.6065 106.22 32.1017 106.587 32.5028C106.954 32.904 107.435 33.1047 108.027 33.1047C108.596 33.1047 109.07 32.904 109.449 32.5028C109.828 32.1017 110.018 31.6065 110.018 31.0164C110.018 30.8261 110.14 30.6572 110.32 30.5973L111.688 30.1434C112.284 29.9458 112.898 30.3891 112.898 31.0164ZM96.7565 18.0968C96.164 18.0968 95.6425 18.3032 95.1924 18.716C94.7417 19.1294 94.5166 19.6189 94.5166 20.1851V30.6976C94.5166 31.2875 94.7417 31.7833 95.1924 32.1844C95.6425 32.5855 96.164 32.7862 96.7565 32.7862C97.3255 32.7862 97.8409 32.5855 98.3031 32.1844C98.7653 31.7833 98.9964 31.2875 98.9964 30.6976V20.1851C98.9964 19.6189 98.7653 19.1294 98.3031 18.716C97.8409 18.3032 97.3255 18.0968 96.7565 18.0968ZM101.876 30.6976C101.876 31.3819 101.758 32.025 101.521 32.6269C101.284 33.2284 100.958 33.7536 100.543 34.202C100.128 34.6505 99.6364 35.0043 99.0674 35.2637C98.4984 35.5234 97.8707 35.6531 97.1832 35.6531C96.4246 35.6531 95.7849 35.5351 95.2634 35.2993C94.7417 35.0633 94.3863 34.8155 94.1967 34.5561L93.8538 35.0682C93.6681 35.3454 93.3565 35.5117 93.0229 35.5117H92.637C92.0847 35.5117 91.637 35.064 91.637 34.5117V10.6774C91.637 10.2465 91.913 9.86403 92.322 9.7283L93.2016 9.43639C93.8489 9.22158 94.5166 9.70349 94.5166 10.3855V16.2206C94.6351 15.9611 94.9433 15.7311 95.4409 15.5304C95.9389 15.3299 96.5076 15.2296 97.1474 15.2296C97.8352 15.2296 98.4692 15.3593 99.0499 15.6187C99.6304 15.8787 100.128 16.2325 100.543 16.681C100.958 17.1292 101.284 17.6543 101.521 18.2559C101.758 18.8577 101.876 19.5006 101.876 20.1851V30.6976ZM116.56 39.4043C116.56 39.7145 116.414 39.8377 115.949 39.8377C115.901 39.8377 115.684 39.8331 115.635 39.8285V38.9524C115.688 38.9482 115.918 38.939 115.98 38.939C116.352 38.939 116.56 39.0668 116.56 39.345V39.4043ZM117.423 41.6534C117.423 41.6397 117.419 41.6215 117.41 41.6032L116.742 40.3166C117.065 40.1846 117.313 39.8878 117.313 39.4043V39.345C117.313 38.5376 116.733 38.2773 115.98 38.2773C115.662 38.2773 115.285 38.3047 115.082 38.3366C114.944 38.3595 114.883 38.4005 114.883 38.5559V41.6169C114.883 41.6671 114.922 41.7082 114.971 41.7082H115.547C115.595 41.7082 115.635 41.6671 115.635 41.6169V40.458C115.676 40.458 115.73 40.4603 115.785 40.4626H115.785C115.843 40.465 115.902 40.4674 115.949 40.4674L115.998 40.4629L116.591 41.6169L116.596 41.6272C116.616 41.6691 116.634 41.7082 116.68 41.7082H117.357C117.406 41.7082 117.423 41.6853 117.423 41.6534ZM114.325 41.5941V41.1699C114.325 41.1197 114.285 41.0787 114.237 41.0787H113.338C113.13 41.0787 113.055 41.0057 113.055 40.7685V40.2847H114.201C114.25 40.2847 114.29 40.2436 114.29 40.1935V39.7601C114.29 39.7099 114.25 39.6689 114.201 39.6689H113.055V39.2538C113.055 39.0166 113.13 38.9436 113.338 38.9436H114.237C114.285 38.9436 114.325 38.9026 114.325 38.8524V38.4282C114.325 38.3689 114.298 38.3458 114.237 38.3366L114.213 38.3331C114.059 38.3103 113.836 38.2773 113.382 38.2773C112.811 38.2773 112.302 38.4233 112.302 39.2538V40.7685C112.302 41.5987 112.807 41.7492 113.378 41.7492C113.835 41.7492 114.062 41.7157 114.216 41.6929L114.237 41.6899C114.298 41.6808 114.325 41.6534 114.325 41.5941ZM111.997 38.8752V38.4051C111.997 38.3549 111.953 38.3184 111.904 38.3184H109.708C109.66 38.3184 109.62 38.3549 109.62 38.4051V38.8752C109.62 38.9254 109.66 38.9619 109.708 38.9619H110.43V41.6169C110.43 41.6671 110.47 41.7082 110.518 41.7082H111.098C111.147 41.7082 111.187 41.6671 111.187 41.6169V38.9619H111.904C111.953 38.9619 111.997 38.9254 111.997 38.8752ZM109.314 41.5348V38.4051C109.314 38.3549 109.275 38.3184 109.226 38.3184H108.704C108.655 38.3184 108.615 38.3549 108.615 38.4051V40.3349C108.615 40.3671 108.602 40.3759 108.593 40.3759C108.581 40.3759 108.576 40.3686 108.562 40.3465L108.557 40.3394L107.509 38.4598C107.455 38.364 107.411 38.3184 107.323 38.3184H106.876C106.783 38.3184 106.708 38.3959 106.708 38.492V41.6169C106.708 41.6671 106.747 41.7082 106.796 41.7082H107.318C107.367 41.7082 107.407 41.6671 107.407 41.6169V39.7692C107.407 39.7419 107.416 39.7327 107.429 39.7327C107.442 39.7327 107.451 39.7419 107.469 39.7692L108.478 41.5667C108.549 41.6899 108.615 41.7082 108.708 41.7082H109.142C109.235 41.7082 109.314 41.6306 109.314 41.5348ZM106.15 41.5941V41.1699C106.15 41.1197 106.11 41.0787 106.061 41.0787H105.163C104.955 41.0787 104.88 41.0057 104.88 40.7685V40.2847H106.026C106.074 40.2847 106.114 40.2436 106.114 40.1935V39.7601C106.114 39.7099 106.074 39.6689 106.026 39.6689H104.88V39.2538C104.88 39.0166 104.955 38.9436 105.163 38.9436H106.061C106.11 38.9436 106.15 38.9026 106.15 38.8524V38.4282C106.15 38.3689 106.123 38.3458 106.061 38.3366L106.038 38.3332C105.884 38.3104 105.662 38.2773 105.207 38.2773C104.636 38.2773 104.127 38.4233 104.127 39.2538V40.7685C104.127 41.5987 104.632 41.7492 105.203 41.7492C105.661 41.7492 105.887 41.7157 106.042 41.6928L106.061 41.6899C106.123 41.6808 106.15 41.6534 106.15 41.5941ZM103.649 41.5667V41.1243C103.649 41.0695 103.622 41.0331 103.565 41.0331H103.552L103.493 41.0379C103.33 41.0515 103.113 41.0695 102.896 41.0695C102.591 41.0695 102.348 40.9053 102.348 40.2984V39.7236C102.348 39.1169 102.591 38.9524 102.896 38.9524C103.111 38.9524 103.326 38.9704 103.489 38.984L103.552 38.9892H103.565C103.622 38.9892 103.649 38.9524 103.649 38.898V38.4555C103.649 38.3917 103.614 38.3734 103.552 38.3549C103.459 38.323 103.202 38.2773 102.892 38.2773C102.22 38.2773 101.582 38.638 101.582 39.7236V40.2984C101.582 41.3843 102.22 41.7492 102.892 41.7492C103.202 41.7492 103.459 41.7036 103.552 41.6717C103.614 41.6534 103.649 41.6306 103.649 41.5667ZM99.0458 40.2528H98.3863L98.6563 38.9938C98.6652 38.9482 98.6784 38.9254 98.7182 38.9254C98.758 38.9254 98.7669 38.9482 98.7758 38.9938L99.0458 40.2528ZM100.111 41.6275C100.11 41.6231 100.108 41.6177 100.108 41.6124L99.4487 38.784C99.3468 38.3458 99.0237 38.2773 98.7182 38.2773C98.4129 38.2773 98.0854 38.3458 97.9834 38.784L97.3242 41.6124C97.3242 41.6177 97.3226 41.6231 97.3213 41.6275C97.3204 41.6306 97.3196 41.6333 97.3196 41.6352C97.3196 41.6808 97.3506 41.7082 97.3949 41.7082H98.0146C98.0587 41.7082 98.0942 41.6717 98.1031 41.626L98.2623 40.878H99.1698L99.329 41.626C99.3379 41.6717 99.3734 41.7082 99.4175 41.7082H100.037C100.082 41.7082 100.112 41.6808 100.112 41.6352C100.112 41.6333 100.112 41.6306 100.111 41.6275ZM96.9259 41.6443V38.478C96.9259 38.3823 96.8595 38.3184 96.7664 38.3184H96.3503C96.2572 38.3184 96.1954 38.364 96.1556 38.4416L95.4783 39.7419C95.4606 39.7784 95.4474 39.8012 95.4297 39.8012C95.4119 39.8012 95.3987 39.7784 95.381 39.7419L94.7037 38.4416C94.6639 38.364 94.6021 38.3184 94.509 38.3184H94.0929C94.0002 38.3184 93.9337 38.3777 93.9337 38.4738V41.6443C93.9337 41.6945 93.9735 41.7082 94.009 41.7082H94.5932C94.633 41.7082 94.6639 41.6671 94.6639 41.6169V39.7145C94.6639 39.6826 94.6774 39.678 94.686 39.678C94.6994 39.678 94.708 39.6871 94.7215 39.7099L95.1198 40.4629C95.151 40.5173 95.1951 40.5401 95.2527 40.5401H95.6066C95.6642 40.5401 95.7086 40.5173 95.7395 40.4629L96.1378 39.7099C96.1513 39.6871 96.1599 39.678 96.1733 39.678C96.1822 39.678 96.1954 39.6826 96.1954 39.7145V41.6169C96.1954 41.6671 96.2263 41.7082 96.2664 41.7082H96.8506C96.8861 41.7082 96.9259 41.6945 96.9259 41.6443ZM93.3272 40.4352V38.4051C93.3272 38.3549 93.2828 38.3184 93.2344 38.3184H92.6588C92.6102 38.3184 92.5704 38.3549 92.5704 38.4051V40.4352C92.5704 40.9008 92.4464 41.0969 92.048 41.0969C91.6497 41.0969 91.5303 40.9008 91.5303 40.4352V38.4051C91.5303 38.3549 91.4905 38.3184 91.4418 38.3184H90.8619C90.8133 38.3184 90.7735 38.3549 90.7735 38.4051V40.4352C90.7735 41.4755 91.3442 41.7492 92.048 41.7492C92.7519 41.7492 93.3272 41.4755 93.3272 40.4352ZM89.4147 40.2528H88.7552L89.0252 38.9938C89.0338 38.9482 89.0473 38.9254 89.0871 38.9254C89.1269 38.9254 89.1358 38.9482 89.1446 38.9938L89.4147 40.2528ZM90.4811 41.6329C90.4808 41.6314 90.4803 41.6295 90.4798 41.6275C90.4785 41.6231 90.4771 41.6177 90.4771 41.6124L89.8173 38.784C89.7156 38.3458 89.3923 38.2773 89.0871 38.2773C88.7815 38.2773 88.4539 38.3458 88.3523 38.784L87.6928 41.6124C87.6928 41.6177 87.6912 41.6231 87.6899 41.6275C87.689 41.6306 87.6882 41.6333 87.6882 41.6352C87.6882 41.6808 87.7194 41.7082 87.7638 41.7082H88.3832C88.4276 41.7082 88.4631 41.6717 88.472 41.626L88.6312 40.878H89.5387L89.6979 41.626C89.7068 41.6717 89.742 41.7082 89.7864 41.7082H90.4061C90.4502 41.7082 90.4814 41.6808 90.4814 41.6352C90.4814 41.6345 90.4813 41.6338 90.4811 41.6329ZM86.5817 39.4043C86.5817 39.7145 86.4357 39.8377 85.9709 39.8377C85.9222 39.8377 85.7055 39.8331 85.6568 39.8285V38.9524C85.7101 38.9482 85.94 38.939 86.0021 38.939C86.3738 38.939 86.5817 39.0668 86.5817 39.345V39.4043ZM87.4451 41.6534C87.4451 41.6397 87.4405 41.6215 87.4316 41.6032L86.7633 40.3166C87.0863 40.1846 87.3343 39.8878 87.3343 39.4043V39.345C87.3343 38.5376 86.7544 38.2773 86.0021 38.2773C85.6834 38.2773 85.3071 38.3047 85.1035 38.3366C84.9664 38.3595 84.9042 38.4005 84.9042 38.5559V41.6169C84.9042 41.6671 84.9443 41.7082 84.9927 41.7082H85.5683C85.617 41.7082 85.6568 41.6671 85.6568 41.6169V40.458C85.6979 40.458 85.7515 40.4603 85.8065 40.4626C85.8643 40.465 85.9234 40.4674 85.9709 40.4674L86.0199 40.4629L86.6129 41.6169L86.6179 41.6272C86.6379 41.6692 86.6564 41.7082 86.7014 41.7082H87.3784C87.4274 41.7082 87.4451 41.6853 87.4451 41.6534ZM84.4839 38.8752V38.4051C84.4839 38.3549 84.4395 38.3184 84.3908 38.3184H82.1956C82.1469 38.3184 82.1071 38.3549 82.1071 38.4051V38.8752C82.1071 38.9254 82.1469 38.9619 82.1956 38.9619H82.9169V41.6169C82.9169 41.6671 82.9567 41.7082 83.0054 41.7082H83.5853C83.6339 41.7082 83.6738 41.6671 83.6738 41.6169V38.9619H84.3908C84.4395 38.9619 84.4839 38.9254 84.4839 38.8752ZM80.748 41.5941V41.1699C80.748 41.1197 80.7082 41.0787 80.6598 41.0787H79.8984C79.6902 41.0787 79.6149 41.0057 79.6149 40.7685V38.4099C79.6149 38.3594 79.5751 38.3184 79.5264 38.3184H78.9468C78.8981 38.3184 78.8583 38.3594 78.8583 38.4099V40.7685C78.8583 41.5987 79.3672 41.7492 79.9382 41.7492C80.1727 41.7492 80.5135 41.7218 80.6598 41.6899C80.7217 41.6762 80.748 41.6534 80.748 41.5941ZM77.4861 40.2528H76.8266L77.0967 38.9938C77.1055 38.9482 77.119 38.9254 77.1588 38.9254C77.1986 38.9254 77.2075 38.9482 77.2164 38.9938L77.4861 40.2528ZM78.5528 41.6352C78.5528 41.6333 78.5521 41.6306 78.5512 41.6275C78.55 41.6231 78.5485 41.6177 78.5485 41.6124L77.889 38.784C77.7871 38.3458 77.4641 38.2773 77.1588 38.2773C76.8533 38.2773 76.5257 38.3458 76.424 38.784L75.7645 41.6124C75.7645 41.6177 75.7629 41.6231 75.7617 41.6275C75.7607 41.6306 75.7599 41.6333 75.7599 41.6352C75.7599 41.6808 75.7909 41.7082 75.8353 41.7082H76.4549C76.4993 41.7082 76.5345 41.6717 76.5434 41.626L76.7026 40.878H77.6101L77.7696 41.626C77.7782 41.6717 77.8137 41.7082 77.8578 41.7082H78.4775C78.5219 41.7082 78.5528 41.6808 78.5528 41.6352ZM75.8751 38.8752V38.4051C75.8751 38.3549 75.831 38.3184 75.782 38.3184H73.5868C73.5381 38.3184 73.4983 38.3549 73.4983 38.4051V38.8752C73.4983 38.9254 73.5381 38.9619 73.5868 38.9619H74.3081V41.6169C74.3081 41.6671 74.3479 41.7082 74.3969 41.7082H74.9765C75.0251 41.7082 75.0652 41.6671 75.0652 41.6169V38.9619H75.782C75.831 38.9619 75.8751 38.9254 75.8751 38.8752ZM73.1927 41.5348V38.4051C73.1927 38.3549 73.1529 38.3184 73.1042 38.3184H72.5819C72.5332 38.3184 72.4934 38.3549 72.4934 38.4051V40.3349C72.4934 40.3671 72.4803 40.3759 72.4714 40.3759C72.4592 40.3759 72.4545 40.3686 72.4404 40.3465L72.4359 40.3394L71.3869 38.4598C71.334 38.364 71.2896 38.3184 71.2011 38.3184H70.7541C70.661 38.3184 70.5857 38.3959 70.5857 38.492V41.6169C70.5857 41.6671 70.6255 41.7082 70.6742 41.7082H71.1965C71.2452 41.7082 71.2853 41.6671 71.2853 41.6169V39.7692C71.2853 39.7419 71.2939 39.7327 71.3073 39.7327C71.3205 39.7327 71.3294 39.7419 71.3471 39.7692L72.3563 41.5667C72.427 41.6899 72.4934 41.7082 72.5865 41.7082H73.0201C73.1131 41.7082 73.1927 41.6306 73.1927 41.5348ZM70.0282 41.5941V41.1699C70.0282 41.1197 69.9884 41.0787 69.9397 41.0787H69.0411C68.8329 41.0787 68.7579 41.0057 68.7579 40.7685V40.2847H69.9042C69.9529 40.2847 69.993 40.2436 69.993 40.1935V39.7601C69.993 39.7099 69.9529 39.6689 69.9042 39.6689H68.7579V39.2538C68.7579 39.0166 68.8329 38.9436 69.0411 38.9436H69.9397C69.9884 38.9436 70.0282 38.9026 70.0282 38.8524V38.4282C70.0282 38.3689 70.0015 38.3458 69.9397 38.3366L69.9165 38.3332C69.7626 38.3104 69.5401 38.2773 69.0852 38.2773C68.5142 38.2773 68.0053 38.4233 68.0053 39.2538V40.7685C68.0053 41.5987 68.5099 41.7492 69.0809 41.7492C69.5392 41.7492 69.7657 41.7157 69.9202 41.6928L69.9397 41.6899C70.0015 41.6808 70.0282 41.6534 70.0282 41.5941ZM66.7262 40.3078C66.7262 40.9236 66.4696 41.0878 66.0713 41.0878C65.9604 41.0878 65.819 41.0832 65.7568 41.0787V38.9482C65.819 38.9436 65.9604 38.939 66.0713 38.939C66.4696 38.939 66.7262 39.1033 66.7262 39.7191V40.3078ZM67.4833 40.3078V39.7191C67.4833 38.7566 66.9518 38.2773 66.0713 38.2773C65.7039 38.2773 65.3098 38.3138 65.1283 38.3458C65.0444 38.3594 65 38.4005 65 38.5054V41.5211C65 41.6261 65.0444 41.6671 65.1283 41.6808C65.3098 41.7127 65.7039 41.7492 66.0713 41.7492C66.9518 41.7492 67.4833 41.2703 67.4833 40.3078Z" fill="#333570"/>
</svg>
