<svg width="283" height="297" fill="none" xmlns="http://www.w3.org/2000/svg"><g clip-path="url(#clip0)"><path d="M235.253 85.057l4.248-4.776c5.167-5.811 4.639-14.73-1.177-19.883l-9.562-8.469a14.165 14.165 0 00-12.378-3.22 14.034 14.034 0 00-7.543 4.414s-3.154.798-3.588-1.692l2.389-9.631a14.374 14.374 0 00-1.66-10.968 14.404 14.404 0 00-8.944-6.576l-33.899-8.35a14.625 14.625 0 00-6.581-.088c-5.449 1.19-9.667 5.285-11.007 10.688l-2.39 9.633c-2.636 2.69-5.99.495-5.99.495-1.838-7.469-9.176-12.032-16.706-10.388-.121.026-.242.054-.362.084l-12.422 3.056a14.029 14.029 0 00-8.704 6.387 13.982 13.982 0 00-1.635 10.659l.75 3.051c-51.194 21.31-81.465 76.668-69.242 132.653 13.755 62.996 76.081 102.89 139.212 89.106 63.13-13.783 103.157-76.025 89.403-139.021-3.886-17.795-11.65-33.744-22.212-47.164z" fill="#fff"/><path d="M231.694 67.859l-9.561-8.47a4.135 4.135 0 00-5.828.35l-4.444 4.997a4.114 4.114 0 00.345 5.816l.237.212-6.299 7.083a102.149 102.149 0 00-26.247-15.003l3.036-12.238 7.133 1.757a4.543 4.543 0 005.497-3.313l2.389-9.631a4.525 4.525 0 00-3.314-5.484l-33.899-8.35a4.542 4.542 0 00-5.496 3.313l-2.39 9.632a4.526 4.526 0 003.315 5.484l7.133 1.757-2.895 11.665a100.862 100.862 0 00-33.033-.222l-1.635-6.642.309-.076a4.124 4.124 0 003.024-4.987l-1.595-6.485a4.124 4.124 0 00-4.993-3.014l-12.42 3.055a4.124 4.124 0 00-3.024 4.987l1.595 6.484a4.125 4.125 0 004.993 3.014l.311-.075 1.564 6.358c-51.117 14.474-82.903 66.509-71.445 118.988 4.46 20.421 14.842 38.053 28.956 51.495l7.236-10.892C68.767 207.9 60.317 193.11 56.6 176.083 46.201 128.455 76.57 81.23 124.3 70.809c47.729-10.421 95.021 19.848 105.419 67.475 3.744 17.145 2.18 34.229-3.551 49.571l11.162 6.751c7.285-18.148 9.405-38.571 4.931-59.06-4.255-19.491-13.927-36.42-27.068-49.613l6.336-7.123.238.211a4.135 4.135 0 005.828-.349l4.444-4.997a4.113 4.113 0 00-.344-5.816zM86.978 243.851c-2.929-1.972-3.508-4.877-1.547-7.774 1.933-2.863 5.098-3.424 8.059-1.432a8.939 8.939 0 012.388 2.348l.113.164 1.922-2.559-.068-.087a11.606 11.606 0 00-2.805-2.589c-4.876-3.282-9.806-2.508-12.87 2.018-1.587 2.35-2.057 4.814-1.36 7.13.584 1.94 1.967 3.724 3.897 5.02a13.96 13.96 0 004.063 1.855l.108.029 1.58-2.768-.202-.034a8.269 8.269 0 01-3.278-1.321zM112.004 240.684l-12.434-5.627-.13-.059-7.035 15.459-.058.131 3.375 1.526 5.83-12.812 5.815 2.632-5.772 12.681-.058.129 3.374 1.53 7.034-15.46.059-.13zM120.827 253.762l-4.332-1.083 3.656-5.652.676 6.735zm-12.257 3.795l-.123.171 3.852.962 2.304-3.339 6.561 1.64.439 3.931.012.098 4.038 1.009-2.411-18.158-.013-.096-3.975-.991-10.684 14.773zM142.48 246.582a11.642 11.642 0 00-3.718-.884c-2.745-.223-5.142.353-6.933 1.66-1.926 1.403-3.064 3.612-3.29 6.388-.231 2.821.567 5.198 2.311 6.873 1.461 1.404 3.543 2.28 5.862 2.467a13.932 13.932 0 004.45-.373l.108-.027.019-3.184-.194.07a8.251 8.251 0 01-3.504.453c-3.519-.285-5.448-2.533-5.164-6.012.282-3.437 2.768-5.475 6.321-5.186a8.881 8.881 0 013.233.879l.179.086.421-3.17-.101-.04zM154.631 245.243l-4.947 10.879-.807 2.126-.273-3.596-.812-8.618-.013-.143-3.691.35 1.591 16.901.015.141 4.218-.398.082-.008 5.01-10.8.746-2.164.27 3.531.814 8.643.015.141 3.687-.349-1.586-16.901-.014-.142-4.222.399-.083.008zM171.093 249.887c1.363-.965 1.92-2.59 1.456-4.334-.703-2.647-3.242-3.656-6.806-2.72-1.942.518-3.156 1.164-4.598 2.102l-.099.064 1.172 2.946.152-.128c1.132-.953 2.166-1.507 3.461-1.849.091-.025.177-.045.263-.064 2.031-.443 2.559.642 2.694 1.146.328 1.241-.382 2.193-1.953 2.61l-2.116.563.783 2.948 2.119-.562c1.11-.305 2.001-.262 2.646.11.491.283.83.766 1.008 1.433.246.934-.272 2.239-2.541 2.841-.687.188-2.208.436-4.587.062l-.196-.03.533 3.138.372.024c1.505.1 2.725.181 4.297-.162.171-.037.347-.08.529-.128 6.137-1.632 5.863-5.332 5.459-6.848-.539-2.028-2.038-3.187-4.048-3.162zM182.744 244.743l.04 1.69-1.187-1.174-5.906-5.261-.067-.061-3.82 1.637 10.573 8.732.001 1.16c-.005 1.135-.646 1.412-1.213 1.657-.458.196-.851.258-1.407.225l-.196-.011.729 2.791h.109c.483 0 .96-.051 1.424-.152a6.652 6.652 0 001.188-.381c1.792-.768 2.625-2.055 2.698-4.176l.543-15.819.01-.224-3.391 1.453-.128 7.914zM200.451 242.316c-.197.589-.696 1.14-1.482 1.638l-1.672 1.058-2.555-4.022 1.671-1.059c1.609-1.02 2.852-.859 3.701.476.424.669.539 1.31.337 1.909zm-.304-6.332c-1.46-.326-3.068.056-4.775 1.14l-2.2 1.392-1.732-2.723 6.226-3.944-1.751-2.759-9.358 5.929 9.107 14.328.076.121 5.328-3.377c1.836-1.163 2.9-2.568 3.167-4.176.271-1.64-.39-2.903-.686-3.37-.499-.784-1.602-2.159-3.402-2.561zM207.97 238.955l.03.037a1.832 1.832 0 002.573.276c.786-.633.91-1.782.278-2.566l-.03-.037a1.83 1.83 0 00-2.573-.276 1.823 1.823 0 00-.278 2.566zM213.208 223.244c.042.717-.269 1.431-.904 2.067l-1.006 1.005-3.496-3.482 1.004-1.005c.637-.636 1.294-.964 1.963-.973.593-.009 1.161.243 1.65.729.473.469.753 1.06.789 1.659zm2.033-4.347c-.376-.373-1.413-1.27-2.893-1.508-1.852-.297-3.745.499-5.615 2.371l-3.523 3.524-.101.101 12.028 11.979.101.1 2.615-2.619-4.477-4.463 1.447-1.449c2.909-2.908 2.255-6.203.418-8.036zM230.265 211.171l-.324.481-7.366-4.927.322-.48c1.407-2.092 3.623-2.415 5.927-.876 2.304 1.544 2.842 3.713 1.441 5.802zm-2.712 4.036c-1.407 2.089-3.623 2.417-5.927.874-2.306-1.543-2.845-3.711-1.441-5.801l.324-.481 7.365 4.927-.321.481zm3.444-13.071c-2.947-1.972-7.451-2.113-10.375 2.237l-.483.722-1.804-1.205-2.063 3.075 1.8 1.202-.485.722c-1.127 1.678-1.619 3.604-1.386 5.427.26 2.02 1.385 3.75 3.252 4.999 1.604 1.073 3.671 1.604 5.693 1.163 1.69-.37 3.35-1.42 4.682-3.402l.484-.72 1.8 1.205 2.066-3.075-1.8-1.204.484-.72c2.922-4.35 1.081-8.455-1.865-10.426z" fill="#333570"/><path d="M106.315 97.814c19.01-2.584 26.97 1.342 38.159 3.044 4.874-1.185 10.178-2.103 15.906-2.747l-2.054 12.776-6.449-.28-4.899 47.319 13.421-33.545 4.877 1.332 12.278-27.127c20.934 5.413 25.804 29.985 17.358 45.717 1.057 30.431-19.059 58.002-39.407 60.768-5.196-1.15 17.485-46.026-4.938-42.723-26.418 3.892-7.66 60.871-14.296 67.636-1.508 1.539-6.472 1.805-8.078.262-18.933-18.203-33.898-48.171-33.01-75.077-5.42-20.502-10.876-54.362 11.132-57.355zm54.114 138.192c43.633-9.527 71.298-52.545 61.791-96.086-9.506-43.54-52.584-71.113-96.217-61.586-43.632 9.526-71.298 52.545-61.792 96.086 9.507 43.54 52.586 71.113 96.218 61.586z" fill="#333570"/></g><defs><clipPath id="clip0"><path fill="#fff" transform="rotate(-12.316 231.46 24.974)" d="M0 0h234v252H0z"/></clipPath></defs></svg>
