<svg xmlns="http://www.w3.org/2000/svg" fill="none" viewBox="0 0 134 51"><path fill="#fff" fill-rule="evenodd" d="M3.85 35.58c-.35.75-1.4.76-1.73 0a25.4 25.4 0 01.4-21.03A25.52 25.52 0 0136.51 2.51a25.48 25.48 0 01-3.33 47.3c-.8.26-1.47-.57-1.11-1.33l2.5-5.22c.27-.6-.03-1.12-.65-1.12-.61 0-1.31.51-1.6 1.11l-3.35 7.04a.99.99 0 01-.79.56l-1.07.1a.96.96 0 01-.9-1.4l6.97-14.62c.27-.6-.02-1.12-.64-1.12-.61 0-1.31.51-1.6 1.11l-7.32 15.35a.98.98 0 01-1 .56l-.95-.13c-.65-.1-1-.8-.71-1.39l11.07-23.2c.28-.6-.02-1.11-.64-1.11-.61 0-1.31.5-1.6 1.1L18.77 49.2a.98.98 0 01-1.2.52l-.85-.3a.98.98 0 01-.53-1.34l15.7-32.9c.27-.6-.03-1.12-.64-1.12s-1.31.51-1.6 1.11l-15.3 32.07a.98.98 0 01-1.37.45l-.78-.46a.98.98 0 01-.36-1.26l12.34-25.85c.27-.6-.03-1.11-.64-1.11s-1.32.5-1.6 1.1l-11.6 24.31a.97.97 0 01-1.52.34l-.7-.63a.98.98 0 01-.2-1.14l4.82-10.12c.28-.6-.02-1.11-.64-1.11-.6 0-1.31.5-1.6 1.1l-3.7 7.77a.96.96 0 01-1.65.19l-.6-.85a.98.98 0 01-.08-.99l6.38-13.38c.28-.59-.02-1.1-.64-1.1-.61 0-1.31.5-1.6 1.1l-4.76 9.98zM88.8 20.89c0-1-.22-1.69-.63-2.08a2.1 2.1 0 00-1.49-.58c-.6 0-1.1.2-1.5.62-.4.41-.61.9-.61 1.47v6.59c.81-.4 1.47-.8 1.99-1.2.5-.4.93-.82 1.27-1.24.38-.52.63-1.07.76-1.63.13-.57.2-1.22.2-1.95zm2.67 10.27a5 5 0 01-2.97 4.58c-.6.26-1.24.39-1.93.39a4.78 4.78 0 01-3.49-1.46 4.9 4.9 0 01-1.41-3.5V20.31a5 5 0 015.01-4.96c.7 0 1.34.12 1.95.37a4.68 4.68 0 012.67 2.75c.26.66.39 1.41.39 2.26 0 1.26-.12 2.31-.36 3.18-.24.86-.6 1.63-1.1 2.32a8.83 8.83 0 01-2.25 2.04c-.91.6-2.05 1.24-3.41 1.93v.95c0 .6.18 1.09.55 1.5.37.4.86.6 1.45.6.58 0 1.05-.2 1.43-.6.38-.41.58-.9.58-1.5 0-.19.12-.36.3-.42l1.38-.45a.92.92 0 011.21.87zM75.2 18.23c-.6 0-1.1.2-1.5.62-.41.41-.62.9-.62 1.47v10.84a2.06 2.06 0 002.11 2.09c.58 0 1.07-.2 1.49-.6.42-.4.63-.9.63-1.49 0-.19.12-.36.3-.42l1.38-.45a.92.92 0 011.21.87 4.99 4.99 0 01-5.01 4.96 4.91 4.91 0 01-3.54-1.45 5 5 0 01-1.46-3.5V20.31c0-.78.13-1.48.39-2.1a4.55 4.55 0 012.67-2.53 5.56 5.56 0 013.9.02 4.56 4.56 0 012.67 2.55c.25.62.38 1.3.38 2.06 0 .47-.38.85-.85.85h-1.2a.85.85 0 01-.84-.85 2 2 0 00-.63-1.47 2.04 2.04 0 00-1.48-.62zM65.82 35.2a1 1 0 001 1h.9a1 1 0 001-1V11.18a1 1 0 00-1-1h-.9a1 1 0 00-1 1v24.03zm64.65-9.12v-5.67c0-.59-.21-1.08-.63-1.49-.42-.4-.91-.6-1.49-.6-.59 0-1.1.2-1.5.6a2 2 0 00-.6 1.5v5.66a2 2 0 00.6 1.5c.4.4.91.6 1.5.6.58 0 1.07-.2 1.5-.6.4-.41.62-.9.62-1.5zm2.9-7.8v7.8c0 1.35-.37 2.44-1.1 3.26-.72.83-1.91 1.31-3.56 1.46-.76.07-1.26.24-1.48.51-.23.27-.34.56-.34.87 0 .19.07.4.21.65.15.25.39.4.72.45h4.75a1 1 0 01.9 1.4l-.4.92a1 1 0 01-.92.59l-5.12-.04c-1.43-.01-2.14.39-2.14 1.17 0 .78.71 1.17 2.14 1.17H130a1 1 0 01.88 1.48l-.48.87c-.17.32-.34.52-.7.52h-2.5a6.19 6.19 0 01-3.75-1.1 3.5 3.5 0 01-1.42-2.9c0-.95.3-1.77.92-2.45a4.72 4.72 0 012.41-1.42c-.33-.12-.58-.3-.73-.57a1.62 1.62 0 01-.24-.85c0-.33.14-.65.4-.95.26-.31.66-.52 1.21-.64a4.62 4.62 0 01-2.64-4.4v-5.67c0-.68.11-1.33.34-1.93.22-.6.54-1.13.95-1.58.4-.44.9-.8 1.5-1.06s1.26-.39 2-.39a6.93 6.93 0 013.08.67h1.72a1 1 0 01.83 1.55l-.4.62zm-11.95-2.92a3 3 0 011.17.21c.36.16.45.6.3.97l-.47 1.23c-.15.37-.6.46-1 .46-.6 0-1.1.21-1.5.62-.4.42-.6.9-.6 1.47V35.2a1 1 0 01-1.01 1h-.9a1 1 0 01-1-1V16.55a1 1 0 011-1h.33a1 1 0 01.88.54l.37.7c.17-.33.45-.65.86-.96.4-.3.93-.46 1.57-.46zm-9.37 5.55c0-.99-.21-1.68-.63-2.07a2.1 2.1 0 00-1.48-.58c-.6 0-1.1.2-1.5.61-.41.42-.61.9-.61 1.48v6.59c.8-.4 1.47-.8 1.98-1.2.51-.4.94-.82 1.27-1.25.38-.52.64-1.06.77-1.63.13-.56.2-1.21.2-1.95zm2.68 10.28a4.98 4.98 0 01-2.97 4.57 4.78 4.78 0 01-5.42-1.06 4.9 4.9 0 01-1.41-3.5V20.35a4.8 4.8 0 011.46-3.51 5.1 5.1 0 015.5-1.08 4.7 4.7 0 012.66 2.74c.26.66.4 1.42.4 2.27 0 1.25-.13 2.31-.36 3.17-.24.87-.61 1.64-1.11 2.32a8.87 8.87 0 01-2.24 2.04c-.92.6-2.05 1.25-3.41 1.93v.96c0 .6.18 1.09.55 1.49.37.4.85.6 1.45.6.57 0 1.05-.2 1.43-.6.38-.4.57-.9.57-1.49 0-.19.12-.36.3-.42l1.39-.46a.92.92 0 011.2.88zM98.3 18.65c-.6 0-1.12.2-1.58.62-.45.41-.68.9-.68 1.47v10.53c0 .59.23 1.08.68 1.49a2.32 2.32 0 003.13 0c.47-.4.7-.9.7-1.5V20.75a1.9 1.9 0 00-.7-1.47 2.28 2.28 0 00-1.55-.62zm5.15 12.62a5.2 5.2 0 01-1.34 3.5 4.58 4.58 0 01-3.38 1.46 4.7 4.7 0 01-1.94-.36 2.7 2.7 0 01-1.07-.74l-.35.52a1 1 0 01-.82.44h-.4a1 1 0 01-1-1V11.22a1 1 0 01.68-.95l.9-.3a1 1 0 011.31.96v5.84c.12-.26.43-.49.93-.69.5-.2 1.08-.3 1.72-.3a4.67 4.67 0 014.4 3.03c.24.6.36 1.25.36 1.93v10.53zM118.42 39.12c0 .3-.15.42-.63.42h-.32v-.85l.36-.02c.38 0 .59.13.59.4v.05zm.88 2.17s0-.03-.02-.04L118.6 40a.89.89 0 00.59-.88v-.05c0-.79-.6-1.04-1.36-1.04-.33 0-.71.03-.92.06-.14.02-.2.06-.2.21v2.96c0 .05.04.09.09.09h.58a.1.1 0 00.1-.09v-1.12h.36l.6 1.12c.03.04.05.09.1.09h.69c.05 0 .07-.02.07-.06zm-3.16-.05v-.41a.09.09 0 00-.1-.1h-.91c-.21 0-.29-.06-.29-.29v-.47h1.17c.05 0 .1-.04.1-.09v-.41a.09.09 0 00-.1-.1h-1.17v-.4c0-.22.08-.3.29-.3h.92c.05 0 .09-.03.09-.08v-.41c0-.06-.03-.08-.1-.09-.15-.02-.38-.06-.86-.06-.59 0-1.1.14-1.1.95v1.46c0 .8.5.95 1.1.95.48 0 .7-.04.87-.06.06 0 .09-.04.09-.1zm-2.38-2.63v-.45c0-.05-.04-.09-.1-.09h-2.23c-.05 0-.1.04-.1.09v.45c0 .05.05.08.1.08h.73v2.57c0 .05.05.09.1.09h.58c.05 0 .1-.04.1-.09v-2.57h.73c.05 0 .1-.03.1-.08zm-2.73 2.57v-3.02c0-.05-.04-.09-.1-.09h-.53c-.05 0-.09.04-.09.09v1.86c0 .03-.01.04-.02.04-.02 0-.02 0-.04-.04l-1.06-1.81c-.06-.1-.1-.14-.2-.14h-.45c-.1 0-.17.08-.17.17v3.02c0 .05.04.09.09.09h.53c.05 0 .09-.04.09-.09v-1.79c0-.02.01-.03.02-.03.02 0 .03 0 .04.03l1.03 1.74c.08.12.14.14.24.14h.44c.1 0 .18-.08.18-.17zm-3.23.06v-.41a.09.09 0 00-.1-.1h-.9c-.22 0-.3-.06-.3-.29v-.47h1.17c.05 0 .1-.04.1-.09v-.41a.09.09 0 00-.1-.1h-1.17v-.4c0-.22.08-.3.3-.3h.9c.06 0 .1-.03.1-.08v-.41c0-.06-.03-.08-.1-.09-.15-.02-.38-.06-.86-.06-.59 0-1.1.14-1.1.95v1.46c0 .8.5.95 1.1.95.48 0 .7-.04.87-.06.06 0 .09-.04.09-.1zm-2.55-.03v-.43c0-.05-.03-.08-.09-.08h-.01c-.17 0-.42.03-.67.03-.31 0-.56-.16-.56-.74v-.56c0-.59.25-.74.56-.74.25 0 .5.02.67.03h.01c.06 0 .09-.03.09-.09v-.42c0-.07-.04-.08-.1-.1-.1-.03-.36-.08-.68-.08-.68 0-1.33.35-1.33 1.4v.56c0 1.04.65 1.4 1.33 1.4.32 0 .58-.05.68-.08.06-.02.1-.04.1-.1zm-4.7-1.27h-.67l.27-1.22c.01-.04.03-.06.07-.06.04 0 .05.02.06.06l.27 1.22zm1.09 1.34v-.03l-.68-2.73c-.1-.42-.43-.49-.74-.49s-.65.07-.75.5l-.67 2.72-.01.03c0 .04.03.07.08.07h.63c.04 0 .08-.04.09-.08l.16-.72h.93l.16.72c0 .04.05.08.1.08h.62c.05 0 .08-.03.08-.07zm-3.25 0v-3.05c0-.1-.07-.16-.16-.16h-.43c-.1 0-.16.05-.2.12l-.69 1.26c-.02.03-.03.06-.05.06-.02 0-.03-.03-.05-.06l-.69-1.26a.21.21 0 00-.2-.12h-.42c-.1 0-.16.06-.16.15v3.07c0 .05.04.06.07.06h.6c.04 0 .07-.04.07-.09v-1.84c0-.03.01-.03.02-.03.02 0 .03 0 .04.03l.4.72c.04.06.08.08.14.08h.36c.06 0 .1-.02.14-.08l.4-.72.04-.03c.01 0 .02 0 .02.03v1.84c0 .05.04.09.08.09h.6c.03 0 .07-.02.07-.06zm-3.67-1.16v-1.96c0-.05-.05-.09-.1-.09h-.58c-.05 0-.1.04-.1.09v1.96c0 .45-.12.64-.53.64-.4 0-.53-.2-.53-.64v-1.96c0-.05-.04-.09-.09-.09h-.59c-.05 0-.09.04-.09.09v1.96c0 1 .59 1.27 1.3 1.27.72 0 1.3-.27 1.3-1.27zm-4-.18h-.67l.28-1.22c0-.04.02-.06.06-.06.04 0 .05.02.06.06l.28 1.22zm1.1 1.34v-.03l-.68-2.73c-.1-.42-.44-.49-.75-.49-.3 0-.64.07-.75.5l-.67 2.72v.03c0 .04.03.07.07.07h.63c.05 0 .09-.04.1-.08l.16-.72h.92l.17.72c0 .04.04.08.09.08h.63c.04 0 .08-.03.08-.07zm-3.98-2.16c0 .3-.15.42-.63.42h-.32v-.85l.36-.02c.37 0 .59.13.59.4v.05zm.88 2.17s0-.03-.02-.04L88.02 40a.89.89 0 00.58-.88v-.05c0-.79-.59-1.04-1.35-1.04-.33 0-.71.03-.92.06-.14.02-.2.06-.2.21v2.96c0 .05.04.09.09.09h.58c.05 0 .1-.04.1-.09v-1.12h.36l.6 1.12c.03.04.05.09.1.09h.69c.05 0 .07-.02.07-.06zm-3.02-2.68v-.45c0-.05-.05-.09-.1-.09h-2.24c-.05 0-.09.04-.09.09v.45c0 .05.04.08.1.08h.73v2.57c0 .05.04.09.09.09h.59c.05 0 .09-.04.09-.09v-2.57h.73c.05 0 .1-.03.1-.08zm-3.81 2.63v-.41a.09.09 0 00-.1-.1h-.77c-.21 0-.29-.06-.29-.29v-2.28a.09.09 0 00-.1-.09h-.58c-.05 0-.1.04-.1.1v2.27c0 .8.53.95 1.1.95.25 0 .6-.03.75-.06.06-.01.09-.04.09-.1zm-3.33-1.3h-.67l.27-1.22c.01-.04.02-.06.06-.06.05 0 .05.02.06.06l.28 1.22zm1.09 1.34v-.03l-.68-2.73c-.1-.42-.43-.49-.75-.49-.3 0-.64.07-.75.5l-.67 2.72v.03c0 .04.03.07.07.07h.64c.04 0 .08-.04.09-.08l.16-.72h.93l.16.72c0 .04.04.08.09.08h.63c.04 0 .08-.03.08-.07zm-2.73-2.67v-.45c0-.05-.05-.09-.1-.09h-2.24c-.05 0-.09.04-.09.09v.45c0 .05.04.08.1.08h.73v2.57c0 .05.04.09.09.09H76c.05 0 .09-.04.09-.09v-2.57h.73c.05 0 .1-.03.1-.08zm-2.74 2.57v-3.02c0-.05-.04-.09-.1-.09h-.52c-.05 0-.1.04-.1.09v1.86c0 .03 0 .04-.02.04-.01 0-.02 0-.03-.04l-1.07-1.81c-.06-.1-.1-.14-.2-.14h-.45c-.1 0-.17.08-.17.17v3.02c0 .05.04.09.09.09h.53c.05 0 .1-.04.1-.09v-1.79c0-.02 0-.03.02-.03.01 0 .02 0 .04.03l1.03 1.74c.07.12.14.14.23.14H74c.1 0 .18-.08.18-.17zm-3.23.06v-.41a.09.09 0 00-.09-.1h-.92c-.2 0-.28-.06-.28-.29v-.47h1.16c.05 0 .1-.04.1-.09v-.41a.09.09 0 00-.1-.1h-1.16v-.4c0-.22.07-.3.28-.3h.92c.05 0 .09-.03.09-.08v-.41c0-.06-.03-.08-.09-.09-.16-.02-.38-.06-.87-.06-.58 0-1.1.14-1.1.95v1.46c0 .8.51.95 1.1.95.48 0 .71-.04.87-.06.06 0 .09-.04.09-.1zm-3.37-1.25c0 .6-.26.76-.67.76l-.32-.01v-2.06h.32c.41 0 .67.15.67.75v.56zm.77 0v-.56c0-.93-.54-1.4-1.44-1.4-.37 0-.77.04-.96.07-.08.01-.13.05-.13.15v2.92c0 .1.05.14.13.15.19.03.59.07.96.07.9 0 1.44-.47 1.44-1.4z" clip-rule="evenodd"/></svg>
