<svg xmlns="http://www.w3.org/2000/svg" fill="none" viewBox="0 0 21 14"><path fill="#3C3D75" d="M20.87 6.28C20.67 6.03 16.2 0 10.5 0 4.79 0 .32 6.03.13 6.28a.7.7 0 000 .82c.2.26 4.66 6.29 10.37 6.29 5.7 0 10.18-6.03 10.37-6.29a.7.7 0 000-.82zM10.5 12c-4.2 0-7.85-4-8.93-5.3C2.65 5.37 6.3 1.37 10.5 1.37c4.2 0 7.85 4 8.93 5.31C18.35 8 14.7 12 10.5 12z"/><path fill="#3C3D75" d="M10.5 2.54a4.16 4.16 0 00-4.15 4.15 4.16 4.16 0 004.15 4.16 4.16 4.16 0 004.15-4.16 4.16 4.16 0 00-4.15-4.15zm0 6.92A2.77 2.77 0 017.73 6.7a2.77 2.77 0 012.77-2.77 2.77 2.77 0 012.77 2.77 2.77 2.77 0 01-2.77 2.77z"/></svg>
