<svg xmlns="http://www.w3.org/2000/svg" fill="none" viewBox="0 0 17 17"><path fill="#33386F" d="M15.179 1.821h-1.822V.607a.607.607 0 10-1.214 0v1.214H4.857V.607a.607.607 0 10-1.214 0v1.214H1.82A1.821 1.821 0 000 3.643v11.536C0 16.184.815 17 1.821 17H15.18A1.821 1.821 0 0017 15.179V3.643a1.821 1.821 0 00-1.821-1.822zm.607 13.358a.607.607 0 01-.607.607H1.82a.607.607 0 01-.607-.607V7.286h14.572v7.893zm0-9.108H1.214V3.643c0-.335.272-.607.607-.607h1.822V4.25a.607.607 0 101.214 0V3.036h7.286V4.25a.607.607 0 101.214 0V3.036h1.822c.335 0 .607.272.607.607V6.07z"/><path fill="#33386F" d="M4.857 8.5H3.643a.607.607 0 100 1.215h1.214a.607.607 0 100-1.215zM9.107 8.5H7.893a.607.607 0 100 1.215h1.214a.607.607 0 100-1.215zM13.357 8.5h-1.214a.607.607 0 000 1.215h1.214a.607.607 0 000-1.215zM4.857 10.929H3.643a.607.607 0 100 1.214h1.214a.607.607 0 100-1.214zM9.107 10.929H7.893a.607.607 0 100 1.214h1.214a.607.607 0 100-1.214zM13.357 10.929h-1.214a.607.607 0 100 1.214h1.214a.607.607 0 100-1.214zM4.857 13.357H3.643a.607.607 0 000 1.214h1.214a.607.607 0 100-1.214zM9.107 13.357H7.893a.607.607 0 000 1.214h1.214a.607.607 0 100-1.214zM13.357 13.357h-1.214a.607.607 0 000 1.214h1.214a.607.607 0 100-1.214z"/></svg>
