<svg xmlns="http://www.w3.org/2000/svg" width="112" height="142" fill="none"><path stroke="#33386F" d="M45.095 121.065l1.235 42.462 41.358-1.73-2.046-48.925s9.232-15.437 12.228-24.886c1.913-6.037 3.961-9.924 4.739-16.174.56-4.509-.749-6.174.37-10.577.733-2.886 4.055-4.125 2.961-6.894-.632-1.598-2.585-2.407-4.991-2.77-3.416-.513-5.736.96-8.255 3.324-3.482 3.268-2.128 7.617-4.38 11.828-1.257 2.352-2.77 4.99-2.77 4.99s-1.26-1.796-1.487-3.187c-.48-2.937-.658-4.75.224-7.592 2.387-7.682 3.303-12.891 4.525-21.311 1.056-7.276 2.271-11.47 1.112-18.731-.854-5.347.827-12.436-4.587-12.535-3.635-.067-4.548 1.414-6.306 4.596-1.903 3.442-.302 6.777-1.181 10.61-.584 2.544-1.64 3.765-2.173 6.32-.543 2.604.123 4.212-.528 6.791-.73 2.887-2.348 4.062-3.232 6.905-1.02 3.285-1.26 8.718-1.26 8.718s-2.12-11.825-3.124-22.886c-.347-3.83-2.227-5.939-3.38-9.608-1.658-5.276-.869-7.816-2.694-12.614-1.061-2.788-3.755-4.693-6.669-4.054-2.09.458-3.457 1.499-3.93 3.143-.473 1.645.71 8.54 1.128 14.034.338 4.425.06 6.725 1.005 11.06.513 2.355 1.274 4.577 1.375 6.984l.656 15.678S53.842 46.3 52.324 41.42c-1.353-4.346-2.744-6.629-4.248-10.925-1.85-5.28-1.297-5.09-3.212-12.051-.778-2.825-3.51-4.87-5.858-4.088-2.349.782-3.92 2.04-4.144 4.506-.371 4.078.733 7.278 1.59 12.12.612 3.458.884 5.681 1.466 9.145.547 3.257 1.658 4.753 1.96 8.042.195 2.104.139 3.295.227 5.406l.43 10.272-6.262 5.678s-8.29-3.986-13.033-7.308C15.388 58.118 7.26 51.7 4.198 56.16c-2.034 2.962-.509 5.995 1.983 8.583 8.776 9.11 20.964 15.641 20.964 15.641s7.833 25.398 14.818 37.02c1.027 1.709 3.132 3.661 3.132 3.661z"/><path stroke="#33386F" d="M28.996 72.644c-1.301 1.819-.643 2.588-2.074 3.614-1.43 1.027-4.75-.65-7.564-2.646-2.813-1.997-5.854-3.986-9.867-7.617-2.011-1.82-3.628-4.012-2.508-6.405.853-1.821 2.173-1.986 4.29-1.614 2.991.525 6.86 4.48 11.765 7.452 3.195 1.936 8.87 3.085 7.834 4.953-.91 1.644-.782.735-1.876 2.263z"/><path stroke="#33386F" d="M41.054 15.694c-1.736-.32-3.296.138-4.233 1.756-1.096 1.894-.7 3.654-.327 5.9.316 1.9 1.235 4.865 1.767 8.107.541 3.299.273 5.454.947 8.724.488 2.37.814 2.77 1.505 5.097.791 2.666.73 4.099.94 9.114.12 2.885 2.77 1.94 4.548 1.264 1.78-.677 4.893-2.406 5.63-4.466.805-2.248-.34-6.695-1.733-11.464-1.185-4.053-2.924-6.672-4.038-10.748-.812-2.971-1.159-4.402-1.894-7.529-.677-2.878-.451-5.264-3.112-5.755z"/><path stroke="#33386F" d="M58.276 5.355c-1.464-1.27-3.697-1.14-5.159.216-2.21 2.052.185 9.914.385 16.06.104 3.175-.05 3.944.297 7.097.34 3.093 1.085 4.564 1.754 7.603 1.295 5.886.273 6.576 1.178 14.448.263 2.288 2.537 3.311 5.153 3.086 2.211-.19 3.719-.394 5.432-1.81 3.474-2.869-1.644-13.847-2.486-23.789-.323-3.812-2.068-3.59-2.947-9.329-.915-5.97-.926-11.254-3.607-13.582z"/><path stroke="#33386F" d="M101.997 58.791c.513-2.857.641-4-.621-4.567-1.263-.567-5.197-.88-8.078 2.49-2.936 3.436-1.907 6.075-3.58 10.486-1.31 3.452-1.474 3.502-2.256 5.782-1.403 4.09-1.78 4.633-2.78 7.557-.725 2.117-.986 3.994.309 7.385 1.894 4.962 2.709 6.517 4.832 5.827 1.821-.593 1.663-1.285 2.86-3.709 1.11-2.248.821-1.724 2.333-5.982.76-2.142 1.74-4.437 2.24-6.654.745-3.304.67-3.804 1.344-7.123 1.035-5.099 2.479-6.37 3.397-11.492z"/><path stroke="#33386F" d="M77.631 111.405c5.184-2.774 7.74-7.376 7.475-13.686-.185-4.436-3.039-6.964-3.224-11.4 0 0 .946-20.46-.956-22.84-1.902-2.378-3.537-2.277-5.858-4.25-2.248-1.91-1.501-3.568-4.266-4.597-3.19-1.186-5.07 1.306-8.658 1.205-2.684-.075-4.99-1.235-7.608-.524-3.055.83-9.256 5.997-15.474 12.868-4.053 4.478-7.957 10.395-6.921 15.881 1.443 7.648 8.71 26.886 13.023 32.605 1.258 1.67 4.75 2.752 7.274 2.646 5.782-.242 7.085-2.998 12.607-4.731 4.836-1.518 7.403-.402 12.586-3.177z"/><path stroke="#33386F" d="M75.148 41.423c-.998 3.26-2.975 10.052-2.258 12.046.718 1.995 1.43 3.005 2.95 4.483 2.108 2.05 4.528 4.003 6.88 2.237 1.875-1.408 4.64-17.45 5.743-29.829.24-2.68-.432-4.826-.719-7.506-.35-3.277.34-6.41-1.373-8.621-1.09-1.409-1.666-1.358-3.283-1.005-2.137.467-2.57 2.026-3.468 4.256-1.076 2.672 0 4.67-.494 7.557-.402 2.352-1.268 3.421-1.641 5.779-.334 2.108.13 3.414-.318 5.494-.44 2.048-1.409 3.118-2.019 5.109z"/></svg>
