<svg xmlns="http://www.w3.org/2000/svg" width="126" height="103" fill="none"><path stroke="#3C3D75" d="M30.812 17.457S24.662 5.386 14.598 7.078c-6.941 1.168-11.734 8.063-6.204 17.28 2.984 4.972 8.596 7.896 13.402 13.596 3.866 4.584 5.665 12.944 9.147 12.333.482-.085.62-.624.62-.624m-1.928-23.889s-1.9-.155-2.849-.603c-2.834-1.338-.747-4.842-1.504-7.883-.875-3.516-3.523-5.102-7.684-5.132-2.793-.02-5.303 1.847-5.885 5.301-.583 3.455 2.393 9.235 9.348 12.24 5.307 2.294 7.245 4.593 7.984 6.743"/><path stroke="#3C3D75" d="M98.602 81.2s1.682 2.966 2.161 5.06c1.819 7.95-17.302 14.276-33.425 4.602-16.124-9.673-26.942-10.575-24.03-15.31 1.093-1.775 3.352-3.602 3.352-3.602"/><path stroke="#3C3D75" d="M134.146 24.458s-2.097 21.47-9.51 35.047c-7.168 13.128-22.215 20.232-26.831 21.779-3.462 1.16-11.887 3-26.428.878-14.078-2.055-21.696-7.553-24.542-9.804-4.656-3.682-14.107-12.426-16.984-29.445-2.38-14.083 2.798-36.056 2.798-36.056"/><mask id="a" width="115" height="86" x="20" y="6" maskUnits="userSpaceOnUse"><path fill="#FF9090" d="M79.396 22.186c49.21 8.614 54.677 3.48 54.677 3.48s-2.024 20.261-9.438 33.84c-7.167 13.127-22.214 20.23-26.83 21.778-3.463 1.16-11.887 3-26.428.878-14.078-2.055-21.696-7.553-24.542-9.804-4.656-3.682-14.107-12.426-16.984-29.445C27.47 28.83 32.649 6.857 32.649 6.857s5.15 8.047 46.747 15.329z"/></mask><g stroke="#3C3D75" mask="url(#a)"><path d="M56.913 17.153l.615-3.045 1.907-2.17-.9-3.452-1.894-16.967-1.302-2.765 1.155-5.248 2.051-2.183 3.888-28.657 1.016-3.174-.29 2.985.882 6.367-1.63 12.743-.557 10.524-1.351 1.516-.627 5.789 3.519 24.692-.665 1.919v1.29m-7.51 19.536l1.072 10.526s.309 4.42 2.244 6.012c1.874 1.543 5.448 1.222 7.648.196.728-.34 2.186-1.169 3.462-1.842.808-.427 2.192-3.351 2.192-3.351l1.731-3.578-.807-4.385 4.962 4.155.808 5.077-2.424 3.157-2.539 1.575-16.114 9.177-3.863-6.27-2.452-1.592-.305-6.047-1.039-2.424-3.347-23.196.924-1.731-.594-4.996m2.619.833l.398 4.163-1.038 1.73 1.038 9.233 5.41-6.656 1.173-6.505"/><path d="M56.301 20.115a212.834 212.834 0 01-6.903-1.892m22.377 5.421c3.214.652 6.546 1.282 9.965 1.88 28.057 4.912 51.336 5.84 51.995 2.075l.617-3.524s-26.54-8.043-50.225-12.189C60.442 7.74 32.669 6.744 32.669 6.744l-.537 3.068c-.338 1.927 5.309 4.708 14.66 7.623"/></g><path stroke="#3C3D75" d="M58.232 17.336l.344.09.03.353.692 8.35.009.107-.036.1-3.457 9.855 12.87-4.426v-3.183l.363-.103.556-.16.025-.074a310.01 310.01 0 011.191-3.43c.332-.936.673-1.876.947-2.58.136-.35.258-.65.356-.864.047-.104.096-.203.142-.28a.88.88 0 01.1-.137.572.572 0 01.127-.106.516.516 0 01.378-.063c2.733.6 3.656.742 5.162.974.897.139 2.002.31 3.82.628 14.011 2.453 26.945 3.83 36.448 4.124 4.755.147 8.632.023 11.35-.367 1.363-.195 2.404-.453 3.112-.761.738-.322.964-.63 1.001-.835.036-.208-.07-.568-.642-1.105-.55-.516-1.427-1.094-2.625-1.719-2.39-1.246-5.949-2.622-10.427-4.04-8.951-2.835-21.495-5.817-35.508-8.27-14.014-2.453-26.825-3.91-36.206-4.284-4.694-.187-8.509-.102-11.18.258-1.339.18-2.36.426-3.053.725-.72.31-.942.613-.978.82-.025.146.012.364.236.678.223.315.6.676 1.15 1.078 1.097.802 2.785 1.696 5.004 2.646 4.432 1.898 10.883 3.983 18.7 6.001z"/></svg>
