<svg xmlns="http://www.w3.org/2000/svg" width="110" height="136" fill="none"><path stroke="#33386F" d="M76.296 101.465s-11.154 3.969-18.618 4.691c-10.44 1.009-17.839-3.053-28.292-2.199-11.139.91-25.801 7.33-25.801 7.33s2.004-2.701 3.877-4.183c2.82-2.233 3.054-2.455 5.651-4.027 4.922-2.978 10.538-4.477 16.273-4.836M97.48 60.143c1.515-.477 3.84-1.266 4.91-1.924 9.269-5.7 7.403-17.318 17.299-21.843 6.911-3.16 21.137 0 21.137 0s-9.647-.065-18.682 3.4c-10.882 4.172-11.809 17.184-17.701 27.239a3272.413 3272.413 0 00-10.77 18.58"/><path stroke="#33386F" d="M20.35 8.277s0-4.104 2.786-5.425c5.51-2.61 6.544 1.882 17.89 5.959"/><path stroke="#33386F" d="M5.544 57.093s.05-.533 0-1.906C5.228 46.582 1 51.962 1 35.104c0-4.081 1.922-7.826 3.518-11.581 1.093-2.57.99-3.713 2.932-5.718 2.243-2.314 5.44-.911 8.063-2.785 2.572-1.838 1.092-6.775 4.251-6.89 16.126-.586 16.892 3.008 16.892 3.008"/><path stroke="#33386F" d="M29.44 19.71s-1.691.123-2.64.587c-2.168 1.063-3.078 4.823-3.078 4.823"/><path stroke="#33386F" d="M57.879 10.475s-4.754-4.089-10.262-3.371c-7.187.936-15.194 4.85-17.884 11.58C27.84 23.417 29.146 31 29.146 31h-2.932M25.12 71.613c-4.808-8.943-4.249-12.549-5.796-22.583-1.309-8.49-1.305-21.199-.902-28.629"/><path stroke="#33386F" d="M76.79 97.922c-6.43-.699-17.608-1.986-23.032-3.038-3.121-.606-7.332-2.507-10.098-4.074-8.112-4.595-10.053-11.366-16.859-17.738C17.933 64.77 14.194 62.077 1.88 54.455c-2.12-1.312 4.568 16.874 10.555 26.094 5.558 8.56 12.228 16.365 21.843 19.79 20.622 7.347 37.845 2.454 41.704 1.166"/><path stroke="#33386F" d="M59.203 19.352s-3.071-2.706-3.083-5.358c-.008-1.776 1.103-2.55 1.613-4.252.9-3.002-.706-3.746.879-6.45 4.429-7.554 17.201 5.454 23.309 11.728 4.197 4.311 5.71 10.703 6.217 13.77"/><path stroke="#33386F" d="M93.062 83.627s7.093-18.077 3.518-31.811c-1.067-4.1-3.518-10.116-6.743-15.833-1.44-5.23-.88-7.96-4.398-9.528-5.438-2.424-7.622.293-13.487-.733-8.48-1.484-12.764-10.229-20.816-7.184-6.971 2.636-8.772 7.987-10.995 15.1-2.716 8.688-.884 14.249 0 23.309 1.034 10.605-1.102 18.491 5.717 26.68 5.996 7.201 12.432 8.392 21.55 10.555 3.233.767 7.857 1.18 10.322 1.358"/><path stroke="#33386F" d="M114.318 134.884s2.14 1.894-8.942-9.918c-10.173-10.843-16.272-19.204-29.026-23.015-2.343-.7 1.392-4.152 1.466-6.597.08-2.66-1.086-3.23-1.466-5.864-.294-2.04.69-3.482 0-5.424-.963-2.71-6.157-5.424-6.157-5.424s5.402 1.64 8.942 2.346c4.973.992 11.927-1.515 14.074 3.078 1.066 2.282-.953 3.648-.733 6.157.38 4.344-.153 6.033 2.638 9.382 5.864 7.037 12.22 13.26 19.204 22.576 7.699 10.269 6.059 7.284 6.059 7.284l-6.059 5.419z"/><path stroke="#33386F" d="M17.419 16.779c.405-1.157 1.906-2.492 1.906-2.492l6.89 16.712s-9.822-11.288-8.796-14.22z"/></svg>
