<svg xmlns="http://www.w3.org/2000/svg" width="139" height="130" fill="none"><path stroke="#fff" d="M95.842 46.877s-5.847-4.184-8.982-6.46c-8.38-6.083-9.063-13.885-17.433-19.983-7.51-5.472-17.327-8.702-25.782-2.608-5.483 3.952-6.718 15.307-11.984 24.148-2.356 3.956-5.365 6.884-8.12 9.69-3.832 3.904-7.688 10.009-7.26 17.426.25 4.328 3.395 8.636 7.56 12.016m25.133 7.86c2.269.398 4.61 1.054 7.127 2.288 3.478 1.704 4.995 3.457 8.486 5.135 7.975 3.832 16.067 7.167 24.555 8.979 1.724.369 10.666 2.011 13.824-2.153 2.976-3.926-.817-8.032-5.544-11.757M79.263 76.894c-1.283-1.993-1.652-4.106-.304-6.302 2.52-4.105 6.799-3.203 11.617-.964m14.745 7.763c5.273 2.639 10.529 4.374 13.127.236 2.48-3.95-.64-9.014-3.648-12.935"/><path fill="#fff" d="M75.7 40.26c-5.488-9.539-17.67-12.823-27.209-7.336l-.498-.867c10.018-5.763 22.81-2.313 28.573 7.705l-.867.499zM48.49 32.925c-9.54 5.487-12.824 17.668-7.337 27.208l-.867.498c-5.762-10.018-2.312-22.81 7.706-28.573l.498.867zm-7.337 27.208a19.83 19.83 0 008.05 7.731l-.461.887a20.83 20.83 0 01-8.456-8.12l.867-.498zm28.6 6.459c8.456-5.828 11.156-17.27 5.945-26.33l.867-.499c5.473 9.515 2.637 21.531-6.244 27.652l-.568-.823zm-3.64-3.03c7.382-4.246 9.924-13.671 5.678-21.053l.867-.498c4.521 7.86 1.814 17.897-6.046 22.418l-.498-.867zm5.678-21.053c-4.246-7.38-13.672-9.923-21.053-5.677l-.498-.867c7.86-4.52 17.897-1.814 22.418 6.046l-.867.498zm-21.053-5.677c-7.381 4.246-9.923 13.672-5.677 21.053l-.867.499c-4.521-7.86-1.815-17.898 6.045-22.419l.5.867zm13.323 27.72a15.543 15.543 0 002.053-.99l.498.867c-.712.41-1.442.76-2.184 1.053l-.367-.93zm-19-6.667a15.348 15.348 0 005.229 5.413l-.527.85a16.347 16.347 0 01-5.569-5.764l.867-.499z" mask="url(#a)"/><path stroke="#fff" d="M97.165 50.7c0-2.2-1.517-4.177-1.517-4.177s2.118.463 3.446.471c2.572.017 10.652-.358 14.929 5.224 1.417 1.85 3.38 7.595.721 12.118-1.101 1.873-5.399 4.946-7.802 9.466-1.823 3.428-8.226 15.8-10.986 18.917 0 0-1.611 2.652-3.862 1.663-1.856-.814.532-5.517.532-5.517s-2.894 5.211-5.448 3.909c-3.06-1.561.96-6.312.96-6.312s-5.652 5.111-8.301 2.203c-3.009-3.303 4.251-6.8 4.251-6.8s-1.946-.426-3.068-1.131c-1.122-.705-2.17-1.92-1.716-3.307.694-2.12 4.749-1.642 6.327-2.426.717-.356 2.117-1.317 3.815-3.393 2.624-3.208 3.993-5.71 5.236-8.933 2.382-6.175 2.483-9.366 2.483-11.975z"/><path stroke="#fff" d="M24.597 81.23c-2.615-.46-5.034-4.569-5.034-4.569s.313 2.472.36 3.94c.088 2.841-.66 12.072 5.632 16.65 2.085 1.518 7.238 4.315 13.426.477 2.041-1.266 5.323-6.097 10.258-8.873 3.742-2.105 17.253-9.51 20.626-12.642 0 0 2.617-2.76 1.634-4.592-1.127-2.097-5.166-.484-5.166-.484s4.357-2.509 3.351-4.626c-1.618-3.406-6.004-.322-6.004-.322s4.011-5.941 1.257-7.683c-4.178-2.643-7.405 4.878-7.405 4.878s-.384-2.14-1.336-3.36c-.743-.955-2.145-2.225-3.704-1.81-1.4.374-1.79 4.101-2.511 7.057-.576 2.359-1.25 4.129-3.17 5.351-5.51 3.505-9.064 4.125-15.27 6.871-2.819 1.247-3.911 4.27-6.944 3.736z"/></svg>
