<svg xmlns="http://www.w3.org/2000/svg" width="105" height="139" fill="none"><path stroke="#3C3D75" d="M27.51 51.348c-1.661-2.426-3.024-4.698-7.285-3.438C10.15 50.89 9.14 62.942 5.861 72.924c-3.812 11.608-.172 17.65-1.076 29.835-.926 12.486-5.446 12.151-3.134 21.513 5.832 23.622 29.474 10.924 53.752 9.299 12.276-.821 33.568 7.141 43.588 0 13.607-9.698-5.352-30.035-5.213-46.745.147-17.73-9.152-36.056-18.893-36.056-2.877 0-4.903.303-6.58.821"/><path stroke="#3C3D75" d="M37.984 90.066c-.596-9.137 23.032-4.376 23.032-4.376s-18.08.496-18.08 4.376c0 5.448 16.741 1.858 16.512 9.906-.227 7.927-13.209 4.788-13.209 9.328 0 3.88 11.723 1.486 11.723 7.843s-10.402 4.871-11.145 8.173c-.743 3.302 4.953 5.696 4.953 5.696s-7.677-.908-8.255-5.696c-.85-7.036 8.833-4.541 8.833-7.678 0-3.797-10.751-1.005-11.062-8.338-.318-7.496 11.97-6.686 11.97-9.328 0-2.642-14.776-2.292-15.272-9.906z"/><g filter="url(#filter0_d)"><path stroke="#3C3D75" d="M42.404 72.977l-.72 2.324m13.209-2.49l.873 2.407"/></g><path stroke="#3C3D75" d="M37.123 23.305l.943-3.48h11.145l1.254 3.48"/><path stroke="#3C3D75" d="M59.72 28.729V25.26h-9.246v3.468"/><path stroke="#3C3D75" d="M50.474 30.957v-2.394h9.246v1.982"/><path stroke="#3C3D75" d="M59.745 30.462v-9.426h3.375v9.426"/><mask id="a" fill="#fff"><path d="M63.12 21.037l-1.688-5.906-1.687 5.905"/></mask><path fill="#3C3D75" d="M61.432 15.131l.962-.275-.962-3.365-.961 3.365.961.275zm2.65 5.63l-1.688-5.905-1.923.55 1.687 5.905 1.923-.55zm-3.611-5.905l-1.687 5.906 1.923.55 1.687-5.906-1.923-.55z" mask="url(#a)"/><path stroke="#3C3D75" d="M37.1 31.948v-8.643h13.374v7.751"/><path stroke="#3C3D75" d="M37 27h-4l-1 3"/><path stroke="#3C3D75" d="M31.651 37.149v-6.77H37.1v1.57"/><g filter="url(#filter1_d)"><path stroke="#3C3D75" d="M46.247 19.978v-3.949h-3.375v3.949"/><mask id="b" fill="#fff"><path d="M46.5 15.5l-1.94-5.376L42.5 15.5"/></mask><path fill="#3C3D75" d="M44.56 10.124l.94-.34-.913-2.529-.962 2.51.934.359zm2.88 5.037L45.5 9.784l-1.881.68 1.94 5.375 1.882-.678zm-3.814-5.395l-2.06 5.376 1.868.716 2.06-5.377-1.868-.715z" mask="url(#b)"/></g><path stroke="#3C3D75" d="M56.995 36.571c1.156-2.229 1.816-5.828 3.22-6.356 1.403-.529 3.726.111 4.375 1.816 1.981 5.2 3.602 7.45 3.963 13.62.782 13.374-8.668 25.51-8.668 25.51s-2.56 2.146-11.228 2.146-11.97-1.733-11.97-1.733-8.806-11.562-9.163-20.226c-.23-5.59.578-11.97 3.137-13.704.861-.583 2.311-1.073 2.311-1.073s1.081-3.807 3.303-4.54c1.841-.608 3.29 1.703 4.87.578.541-.386.793-.67 1.32-1.074 1.404-1.073 3.623-2.764 6.688-2.064 2.394.548 2.91 10.667 4.54 10.072 1.63-.595 2.504-1.432 3.302-2.972z"/><rect width="18.219" height="4.997" x="39.42" y="75.74" stroke="#3C3D75" rx="2.499"/><defs><filter id="filter0_d" width="35.03" height="22.808" x="41.206" y="66.641" color-interpolation-filters="sRGB" filterUnits="userSpaceOnUse"><feFlood flood-opacity="0" result="BackgroundImageFix"/><feColorMatrix in="SourceAlpha" values="0 0 0 0 0 0 0 0 0 0 0 0 0 0 0 0 0 0 127 0"/><feOffset dx="10" dy="4"/><feGaussianBlur stdDeviation="5"/><feColorMatrix values="0 0 0 0 0 0 0 0 0 0 0 0 0 0 0 0 0 0 0.4 0"/><feBlend in2="BackgroundImageFix" result="effect1_dropShadow"/><feBlend in="SourceGraphic" in2="effect1_dropShadow" result="shape"/></filter><filter id="filter1_d" width="24.375" height="29.854" x="37.372" y="4.124" color-interpolation-filters="sRGB" filterUnits="userSpaceOnUse"><feFlood flood-opacity="0" result="BackgroundImageFix"/><feColorMatrix in="SourceAlpha" values="0 0 0 0 0 0 0 0 0 0 0 0 0 0 0 0 0 0 127 0"/><feOffset dx="5" dy="4"/><feGaussianBlur stdDeviation="5"/><feColorMatrix values="0 0 0 0 0 0 0 0 0 0 0 0 0 0 0 0 0 0 0.4 0"/><feBlend in2="BackgroundImageFix" result="effect1_dropShadow"/><feBlend in="SourceGraphic" in2="effect1_dropShadow" result="shape"/></filter></defs></svg>
