<svg xmlns="http://www.w3.org/2000/svg" width="105" height="129" fill="none"><path stroke="#3C3D75" d="M27.51 41.35c-1.66-2.43-3.02-4.7-7.28-3.44-10.08 2.98-11.1 15.03-14.37 25.01C2.05 74.53 5.7 80.57 4.8 92.76c-.93 12.48-5.45 12.15-3.14 21.51 5.83 23.62 29.48 10.93 53.75 9.3 12.28-.82 33.57 7.14 43.6 0 13.6-9.7-5.36-30.03-5.22-46.74.14-17.73-9.15-36.06-18.9-36.06-2.87 0-4.9.3-6.57.82"/><path stroke="#3C3D75" d="M37.98 80.07c-.6-9.14 23.04-4.38 23.04-4.38s-18.08.5-18.08 4.38c0 5.44 16.74 1.85 16.5 9.9-.22 7.93-13.2 4.79-13.2 9.33 0 3.88 11.72 1.49 11.72 7.84 0 6.36-10.4 4.87-11.14 8.18-.75 3.3 4.95 5.7 4.95 5.7s-7.68-.92-8.26-5.7c-.84-7.04 8.84-4.54 8.84-7.68 0-3.8-10.75-1-11.06-8.34-.32-7.5 11.97-6.69 11.97-9.33 0-2.64-14.78-2.29-15.28-9.9z"/><g filter="url(#filter0_d)"><path stroke="#3C3D75" d="M42.4 62.98l-.72 2.32m13.21-2.49l.88 2.4"/></g><path stroke="#3C3D75" d="M37.12 13.3l.95-3.47H49.2l1.25 3.48"/><path stroke="#3C3D75" d="M59.72 18.73v-3.47h-9.25v3.47"/><path stroke="#3C3D75" d="M50.47 20.96v-2.4h9.25v1.98"/><path stroke="#3C3D75" d="M59.75 20.46v-9.42h3.37v9.42"/><mask id="a" fill="#fff"><path d="M63.12 11.04l-1.69-5.9-1.68 5.9"/></mask><path fill="#3C3D75" d="M61.43 5.13l.96-.27-.96-3.37-.96 3.37.96.27zm2.65 5.63l-1.69-5.9-1.92.55 1.69 5.9 1.92-.55zm-3.6-5.9l-1.7 5.9 1.93.55 1.68-5.9-1.92-.55z" mask="url(#a)"/><path stroke="#3C3D75" d="M37.1 21.95V13.3h13.37v7.75"/><path stroke="#3C3D75" d="M37 17h-4l-1 3"/><path stroke="#3C3D75" d="M31.65 27.15v-6.77h5.45v1.57"/><path stroke="#3C3D75" d="M46.25 9.98V6.03h-3.38v3.95"/><mask id="b" fill="#fff"><path d="M46.5 5.5L44.56.12 42.5 5.5"/></mask><path fill="#3C3D75" d="M44.56.12l.94-.34-.91-2.52-.96 2.5.93.36zm2.88 5.04L45.5-.22l-1.88.68 1.94 5.38 1.88-.68zm-3.81-5.4l-2.06 5.38 1.86.72L45.5.48l-1.86-.71z" mask="url(#b)"/><path stroke="#3C3D75" d="M57 26.57c1.15-2.23 1.81-5.83 3.22-6.36 1.4-.52 3.72.12 4.37 1.82 1.98 5.2 3.6 7.45 3.96 13.62.78 13.38-8.67 25.51-8.67 25.51s-2.55 2.15-11.22 2.15c-8.67 0-11.97-1.74-11.97-1.74s-8.8-11.56-9.17-20.22c-.23-5.6.58-11.97 3.14-13.7.86-.59 2.31-1.08 2.31-1.08s1.08-3.8 3.3-4.54c1.85-.6 3.3 1.7 4.88.58.54-.39.79-.67 1.32-1.07 1.4-1.08 3.62-2.77 6.68-2.07 2.4.55 2.91 10.67 4.54 10.07a5.46 5.46 0 003.3-2.97z"/><rect width="18.22" height="5" x="39.42" y="65.74" stroke="#3C3D75" rx="2.5"/><defs><filter id="filter0_d" width="35.03" height="22.81" x="41.21" y="56.64" color-interpolation-filters="sRGB" filterUnits="userSpaceOnUse"><feFlood flood-opacity="0" result="BackgroundImageFix"/><feColorMatrix in="SourceAlpha" type="matrix" values="0 0 0 0 0 0 0 0 0 0 0 0 0 0 0 0 0 0 127 0"/><feOffset dx="10" dy="4"/><feGaussianBlur stdDeviation="5"/><feColorMatrix type="matrix" values="0 0 0 0 0 0 0 0 0 0 0 0 0 0 0 0 0 0 0.4 0"/><feBlend in2="BackgroundImageFix" mode="normal" result="effect1_dropShadow"/><feBlend in="SourceGraphic" in2="effect1_dropShadow" mode="normal" result="shape"/></filter></defs></svg>
