<svg xmlns="http://www.w3.org/2000/svg" width="108" height="123" fill="none"><path stroke="#3C3D75" d="M55.062 46.176l2.333-3.593s4.798-4.804 10.018-5.512c10.639-1.443 19.162.35 25.11-3.242 3.216-1.941 4.888-3.311 7.183-6.285C101.399 25.35 106 18.23 106 18.23s-7.577 3.473-10.896 2.806c-3.397-.683-4.953-2.864-8.417-2.806-3.299.056-4.807 1.861-7.968 2.806-2.73.816-4.552.465-7.07 1.796-2.472 1.305-2.99 3.277-5.388 4.713-2.297 1.377-3.993.863-5.948 2.694-2.777 2.601-2.076 5.586-3.455 9.133-.81 2.083-2.133 4.823-3.6 6.972"/><path stroke="#3C3D75" d="M81.947 36.27s-8.904-2.968-15.124-1.724c-1.736.347-3.376 1.381-5.09 2.705-1.798 1.39-4.412 5.393-4.412 5.393"/><path stroke="#3C3D75" d="M51.18 46.28s-2.91-6.799-7.903-9.625c-10.176-5.76-19.52-7.392-24.084-13.429-2.467-3.263-3.604-5.325-4.723-9.26-.826-2.904-2.6-11.965-2.6-11.965s6.259 6.575 9.885 7.242c3.711.683 6.166-.894 9.646.566 3.314 1.39 4.11 3.825 6.925 6.058 2.43 1.928 4.415 2.31 6.425 4.675 1.971 2.32 1.698 4.522 3.542 6.944 1.767 2.32 3.69 2.488 4.927 5.129 1.757 3.754-.158 6.489-.197 10.634-.01.898.072 1.938.209 3.03"/><path stroke="#3C3D75" d="M28.902 29.97s10.205.598 15.993 4.371c1.615 1.053 2.856 2.761 4.054 4.793 1.257 2.132 2.282 7.237 2.282 7.237"/><path stroke="#3C3D75" d="M24.5 44.734c7.839-3.108 19.428 1.623 28.128 1.623 9.33 0 19.654-7.483 33.087 0 13.433 7.483 11.36 33.628 6.491 46.34-4.868 12.712-8.475 17.129-12.712 22.539-2.95 3.767-6.581 6.491-11.72 6.491s-8.34-2.206-14.966-2.254c-7.08-.051-11.179 2.254-16.012 2.254s-7.7-3.001-10.854-6.491c-3.155-3.49-10.008-15.066-11.36-25.975 0 0 6.058 3.977 12.802 1.813 6.744-2.164 6.23-8.372 6.377-8.474.518-.358 2.295.148 4.293-3.553 2.146-5.403-1.406-7.327-1.258-7.623 2.06-1.65 2.039-4.46 1.702-6.143-.37-1.85-1.39-3.81-4.737-5.107 0-.296.963-5.551-5.403-8.215-4.736-1.703-12.139 1.337-13.055 2.151 1.146-3.63 4.922-7.682 9.196-9.376z"/><path stroke="#3C3D75" d="M15.303 54.02s7.636-.45 9.091 3.54c.864 2.37 0 5.026 0 5.026s2.05 0 2.872 3.66c.53 2.37-1.651 3.949-1.651 3.949s2.389 1.507 1.65 4.737c-.64 2.8-3.732 3.59-3.732 3.59s2.905 3.218 0 8.044c-2.28 3.787-8.86 2.705-8.86 2.705"/></svg>
