<svg xmlns="http://www.w3.org/2000/svg" width="136" height="103" fill="none"><path stroke="#3C3D75" d="M30.81 17.46S24.66 5.39 14.6 7.08C7.66 8.25 2.86 15.14 8.4 24.36c2.98 4.97 8.59 7.9 13.4 13.6 3.86 4.58 5.66 12.94 9.14 12.33.48-.09.62-.63.62-.63m-1.93-23.89s-1.9-.15-2.84-.6c-2.84-1.34-.75-4.84-1.5-7.88-.88-3.52-3.53-5.1-7.7-5.13-2.78-.02-5.3 1.84-5.88 5.3-.58 3.45 2.4 9.23 9.35 12.24 5.3 2.3 7.25 4.59 7.98 6.74"/><path stroke="#3C3D75" d="M98.6 81.2s1.69 2.97 2.16 5.06c1.82 7.95-17.3 14.28-33.42 4.6C51.2 81.2 40.4 80.3 43.3 75.56c1.1-1.78 3.35-3.61 3.35-3.61"/><path stroke="#3C3D75" d="M134.15 24.46s-2.1 21.47-9.51 35.05c-7.17 13.12-22.22 20.23-26.84 21.77-3.46 1.16-11.88 3-26.42.88-14.08-2.05-21.7-7.55-24.55-9.8-4.65-3.68-14.1-12.43-16.98-29.45-2.38-14.08 2.8-36.05 2.8-36.05"/><mask id="a" width="115" height="86" x="20" y="6" mask-type="alpha" maskUnits="userSpaceOnUse"><path fill="#FF9090" d="M79.4 22.19c49.2 8.61 54.67 3.48 54.67 3.48s-2.02 20.26-9.43 33.84c-7.17 13.12-22.22 20.23-26.84 21.77-3.46 1.16-11.88 3-26.42.88-14.08-2.05-21.7-7.55-24.55-9.8-4.65-3.68-14.1-12.43-16.98-29.45-2.38-14.08 2.8-36.05 2.8-36.05S37.8 14.9 79.4 22.19z"/></mask><g stroke="#3C3D75" mask="url(#a)"><path d="M56.91 17.15l.62-3.04 1.9-2.17-.9-3.45-1.89-16.97-1.3-2.77 1.15-5.24 2.06-2.19 3.88-28.65 1.02-3.18-.29 2.99.88 6.36-1.63 12.75-.56 10.52-1.35 1.52-.62 5.79 3.51 24.69-.66 1.92v1.29m-7.51 19.53l1.07 10.53s.31 4.42 2.25 6.01c1.87 1.54 5.44 1.22 7.64.2.73-.34 2.19-1.17 3.47-1.85.8-.42 2.19-3.35 2.19-3.35l1.73-3.57-.8-4.39 4.95 4.16.81 5.07-2.42 3.16-2.54 1.58-16.11 9.17-3.87-6.27-2.45-1.59-.3-6.05-1.04-2.42-3.35-23.2.92-1.73-.59-5m2.62.84l.4 4.16-1.04 1.73 1.04 9.24 5.4-6.66 1.18-6.5"/><path d="M56.3 20.11c-2.45-.62-4.75-1.26-6.9-1.89m22.38 5.42c3.2.66 6.54 1.29 9.96 1.88 28.06 4.92 51.34 5.84 52 2.08l.61-3.52s-26.54-8.05-50.22-12.2C60.44 7.75 32.67 6.75 32.67 6.75l-.54 3.07c-.34 1.93 5.31 4.71 14.66 7.63"/></g><path stroke="#3C3D75" d="M58.23 17.34l.35.09.03.35.69 8.35v.1l-.03.1-3.46 9.86 12.87-4.43V28.58l.37-.1.55-.16.03-.07a311.98 311.98 0 012.14-6.01 17.38 17.38 0 01.5-1.15.87.87 0 01.1-.14.52.52 0 01.5-.17c2.73.6 3.66.75 5.16.98.9.14 2 .3 3.82.63 14.01 2.45 26.95 3.83 36.45 4.12 4.76.15 8.63.02 11.35-.37 1.36-.2 2.4-.45 3.11-.76.74-.32.97-.63 1-.83.04-.21-.07-.57-.64-1.1-.55-.52-1.43-1.1-2.63-1.73a69.02 69.02 0 00-10.42-4.04c-8.95-2.83-21.5-5.81-35.51-8.27-14.01-2.45-26.82-3.9-36.2-4.28-4.7-.19-8.51-.1-11.19.26a12.2 12.2 0 00-3.05.72c-.72.31-.94.62-.98.82-.02.15.01.37.24.68.22.32.6.68 1.15 1.08 1.1.8 2.78 1.7 5 2.65 4.43 1.9 10.89 3.98 18.7 6z"/></svg>
