<svg xmlns="http://www.w3.org/2000/svg" width="17" height="17" fill="none"><g clip-path="url(#clip0)"><path fill="#3C3D75" d="M16.541 7.394l-.001-.001L9.605.459A1.554 1.554 0 008.5 0c-.418 0-.811.163-1.107.458L.461 7.39l-.007.008a1.567 1.567 0 001.09 2.668h.276v5.104c0 1.01.822 1.831 1.832 1.831h2.713a.498.498 0 00.498-.498v-4.001c0-.46.375-.836.836-.836h1.6c.46 0 .835.375.835.836v4.001c0 .275.223.498.499.498h2.713c1.01 0 1.831-.822 1.831-1.832v-5.103h.257c.418 0 .81-.163 1.106-.458.61-.61.61-1.602.001-2.213z"/></g><defs><clipPath id="clip0"><path fill="#fff" d="M0 0h17v17H0z"/></clipPath></defs></svg>
