<svg xmlns="http://www.w3.org/2000/svg" fill="none" viewBox="0 0 12 13"><path fill="#FF9090" d="M5.07 7.17a.4.4 0 01-.56-.55l4.94-4.66a.4.4 0 01.56.55L5.07 7.17z"/><path fill="#FF9090" d="M10.27 5.28a.4.4 0 01-.78 0l-.02-3.15a.4.4 0 11.78 0l.02 3.15z"/><path fill="#FF9090" d="M6.7 1.75a.4.4 0 100 .78l3.13-.02a.4.4 0 100-.78l-3.13.02zM10.22 9.63V8.41c-.02-.53-.77-.53-.8 0v1.22c0 .88-.71 1.6-1.6 1.6H2.4a1.6 1.6 0 01-1.6-1.6V4.2c0-.88.72-1.6 1.6-1.6h1.25c.53-.02.53-.77 0-.8H2.4A2.4 2.4 0 000 4.2v5.43a2.4 2.4 0 002.4 2.4h5.43a2.4 2.4 0 002.4-2.4z"/></svg>
