<svg width="80" height="80" fill="none" xmlns="http://www.w3.org/2000/svg"><circle cx="40" cy="40" r="40" fill="#fff"/><path d="M46.932 64.671c-.423.823.3 1.748 1.184 1.474C59.268 62.687 67.368 52.289 67.368 40 67.368 24.885 55.115 12.63 40 12.63c-15.115 0-27.368 12.254-27.368 27.369 0 4.323 1.002 8.412 2.787 12.048.384.782 1.476.747 1.86-.036l4.56-9.284c.318-.647 1.064-1.209 1.732-1.209.668 0 1.008.573.697 1.209l-6.211 12.647a1.07 1.07 0 00.1 1.117c.212.28.429.556.65.827.484.591 1.403.466 1.749-.215l4.299-8.455c.326-.641 1.064-1.21 1.732-1.21.668 0 1.017.58.697 1.21l-5.458 10.735c-.222.437-.128.97.242 1.292.112.097.224.193.337.288.532.447 1.332.252 1.63-.375l12.46-26.15c.31-.651 1.064-1.21 1.732-1.21.668 0 1.003.568.697 1.21L25.694 62.205a1.064 1.064 0 00.408 1.378c.193.114.387.226.583.335a1.06 1.06 0 001.475-.495l18.96-40.824c.304-.655 1.064-1.209 1.732-1.209.668 0 .995.566.697 1.209l-19.376 41.72a1.06 1.06 0 00.589 1.452c.269.097.54.189.812.277a1.065 1.065 0 001.281-.558l11.955-24.537c.315-.647 1.064-1.21 1.732-1.21.669 0 1.006.574.697 1.21L35.248 65.565c-.314.645.067 1.413.777 1.517.287.041.575.079.865.112.441.05.863-.185 1.066-.58l8.349-16.189c.33-.64 1.065-1.209 1.733-1.209.668 0 1.02.58.696 1.21L40.82 65.771c-.376.728.154 1.592.972 1.539.294-.019.588-.043.884-.072.358-.035.672-.252.84-.571l4.331-8.23c.36-.619.827-.934 1.495-.934.668 0 1.008.6.654 1.21l-3.064 5.957z" fill="#333570"/></svg>
