<svg xmlns="http://www.w3.org/2000/svg" fill="none" viewBox="0 0 23 24"><path fill="#3C3D75" d="M.48 8.93c.16.1.37.06.47-.1a1.74 1.74 0 012.6-.34c.34.31.54.74.57 1.2.02.43.22.85.54 1.18a.4.4 0 00.57 0L7.52 8.6a.38.38 0 01.51-.03l.03.03 2.08 2.07c-.17.11-.36.17-.55.18a2.4 2.4 0 00-1.07.33.34.34 0 00.34.58c.23-.14.5-.22.77-.23.44-.03.87-.22 1.2-.55.2-.2.1-.5-.1-.67l-2.2-2.19c-.15-.14-.14-.4 0-.54l2.08-2.07c.1.16.16.34.17.53a2.42 2.42 0 004.02 1.62 2.38 2.38 0 00.07-3.46 2.4 2.4 0 00-1.55-.7 1.15 1.15 0 01-.53-.17l2.07-2.07a.38.38 0 01.54 0l2.34 2.33c.13.13.34.13.47 0l.1-.1c.32-.32.52-.74.54-1.19a1.72 1.72 0 111.83 1.83c-.44.03-.87.22-1.2.55l-.09.1a.34.34 0 000 .47l2.34 2.33c.15.15.15.4 0 .54l-.51.52a.34.34 0 00.47.47l.51-.51c.42-.41.42-1.08 0-1.5l-2.08-2.08c.18-.13.38-.2.6-.22A2.39 2.39 0 0022.36 4c.82-.91.8-2.33-.02-3.23A2.38 2.38 0 0018.88.7a2.4 2.4 0 00-.7 1.55c-.01.22-.09.43-.22.6L15.88.77a1.06 1.06 0 00-1.5 0l-2.3 2.3a.39.39 0 000 .55c.33.32.76.51 1.2.54A1.72 1.72 0 1111.45 6a1.84 1.84 0 00-.54-1.2.39.39 0 00-.55 0l-2.3 2.3c-.2.2-.3.46-.3.71-.26.01-.52.11-.72.31l-2.07 2.08c-.1-.17-.17-.36-.18-.55A2.39 2.39 0 003.99 8a2.42 2.42 0 00-3.6.47c-.1.15-.06.36.1.46z"/><path fill="#3C3D75" d="M20.68 10.85c-.2-.02-.38-.08-.55-.19l.46-.46a.34.34 0 00-.47-.48l-.73.73c-.15.15-.11.4.05.52.33.33.75.52 1.2.55a1.72 1.72 0 11-1.83 1.82 1.84 1.84 0 00-.55-1.19c-.13-.16-.37-.2-.52-.05l-2.34 2.34a.38.38 0 01-.51.02l-.03-.03-2.28-2.28a.41.41 0 00-.58 0c-.32.33-.52.75-.54 1.2a1.72 1.72 0 11-3.4-.52.34.34 0 10-.65-.16 2.4 2.4 0 104.72.72c.01-.2.07-.38.18-.55l2.07 2.07.04.03c.12.16.1.37-.03.51l-2.34 2.34c-.18.17-.08.43.1.57.32.32.75.52 1.19.54a1.72 1.72 0 11-1.83 1.83 1.84 1.84 0 00-.54-1.2c-.14-.17-.4-.27-.57-.09l-2.34 2.34a.38.38 0 01-.54 0l-2.33-2.34c-.15-.15-.4-.11-.53.05-.32.33-.52.75-.54 1.2a1.72 1.72 0 11-1.83-1.83c.44-.03.86-.22 1.19-.55.17-.13.2-.37.05-.52L1.2 15.45a.38.38 0 010-.54l2.28-2.28a.4.4 0 000-.58 1.85 1.85 0 00-1.2-.54A1.72 1.72 0 01.73 10.2a.34.34 0 00-.66.16 2.4 2.4 0 002.19 1.82c.19.01.38.07.54.18L.72 14.43a1.06 1.06 0 000 1.5L2.79 18c-.16.11-.35.17-.54.18A2.42 2.42 0 00.63 22.2a2.38 2.38 0 003.46.08c.41-.42.66-.97.7-1.55.01-.2.07-.39.18-.55l2.07 2.07c.42.42 1.09.42 1.5 0l2.08-2.08c.13.18.2.38.22.6a2.39 2.39 0 002.4 2.25 2.4 2.4 0 00.14-4.79 1.15 1.15 0 01-.6-.22l2.08-2.08c.2-.2.3-.45.31-.7.27-.02.52-.13.71-.32l2.07-2.07c.11.16.17.35.18.54A2.41 2.41 0 0022.15 15a2.38 2.38 0 00.08-3.46 2.4 2.4 0 00-1.55-.7z"/></svg>
