<svg width="23" height="39" viewBox="0 0 23 39" fill="none" xmlns="http://www.w3.org/2000/svg">
<path d="M19.8009 21.7971C19.6988 21.1736 19.413 20.5721 18.9324 20.0915C18.2398 19.3989 17.3054 19.1131 16.4023 19.2058L21.2882 14.3199C22.51 13.0981 22.51 11.0988 21.2882 9.87855C20.0663 8.6567 18.0671 8.6567 16.8468 9.87855L6.28044 20.4449L6.28202 18.8728C6.28202 17.1406 5.58 15.5716 4.44453 14.4361C3.62315 13.6148 2.57406 13.0243 1.40089 12.7573C1.32079 12.7353 1.23442 12.7274 1.1449 12.7274C0.513555 12.7259 0.00157039 13.2379 0.00157039 13.8708L0 28.8282C0 28.8298 0 28.8345 0 28.8392V29.0858L0.0109935 29.0764C0.0691021 31.5955 1.05224 34.0989 2.9761 36.0212C6.94791 39.993 13.3838 39.993 17.3556 36.0212L21.0086 32.3682C21.8253 31.5515 22.0923 30.394 21.8159 29.3481L19.8009 21.7971ZM19.8983 31.2562L16.2453 34.9092C12.8923 38.2623 7.43948 38.2623 4.08802 34.9092C2.52537 33.3466 1.63489 31.261 1.5815 29.0387L1.57207 14.4346C2.23169 14.667 2.83319 15.0471 3.33261 15.5481C4.22151 16.437 4.71151 17.6164 4.70994 18.8744V21.7767C4.70994 22.0468 4.86856 22.2934 5.11513 22.4033C5.68994 22.6609 6.38253 22.5619 6.85525 22.0892L17.9571 10.9873C18.5696 10.3748 19.5669 10.3748 20.1778 10.9873C20.7903 11.5998 20.7903 12.5971 20.1778 13.208L13.7341 19.6518C13.5001 19.8858 13.4372 20.2439 13.5801 20.5438C13.7231 20.8438 14.0387 21.0213 14.3685 20.9883L16.5625 20.7668C16.8437 20.7386 17.3792 20.7574 17.8236 21.2019C18.1095 21.4877 18.2147 21.8238 18.2524 22.0531L20.2909 29.7517C20.437 30.3029 20.2893 30.8652 19.8983 31.2562Z" fill="#3C3D75"/>
<path d="M9.39478 0L8.28444 1.11035L11.127 3.95296H3.13947V5.52346H11.127L8.29072 8.36136L9.40106 9.47171L14.133 4.73821L9.39478 0Z" fill="#3C3D75"/>
</svg>
