<svg xmlns="http://www.w3.org/2000/svg" fill="none" viewBox="0 0 25 24"><path fill="#fff" d="M9.94 14.06c-2.29-2.29-2.808-4.581-2.925-5.5a.823.823 0 01.236-.688L9.105 6.02a.828.828 0 00.117-1.024L6.27.412A.828.828 0 005.198.11L.46 2.342a.823.823 0 00-.455.822C.253 5.523 1.281 11.321 6.98 17.02c5.698 5.698 11.496 6.726 13.856 6.974a.823.823 0 00.822-.455l2.232-4.738a.828.828 0 00-.3-1.07l-4.584-2.952a.828.828 0 00-1.024.116l-1.853 1.854a.822.822 0 01-.688.236c-.918-.116-3.21-.634-5.5-2.925z"/><path fill="#fff" d="M19.036 12.83a.828.828 0 01-.827-.828 6.214 6.214 0 00-6.207-6.207.828.828 0 110-1.655 7.871 7.871 0 017.862 7.862c0 .457-.37.828-.828.828z"/><path fill="#fff" d="M23.174 12.828a.828.828 0 01-.827-.827C22.34 6.29 17.712 1.66 12 1.655a.828.828 0 110-1.655c6.625.007 11.994 5.376 12.001 12a.828.828 0 01-.828.828z"/></svg>
